<svg version="1" xmlns="http://www.w3.org/2000/svg" width="1365.333" height="1365.333" viewBox="0 0 1024.000000 1024.000000"><path d="M507.5 91.9c-.3.5-.2 1.2.3 1.5.5.3.9-.1.9-.9 0-1.7-.3-1.9-1.2-.6zM517.9 92.7c-1.3 1.6-1.2 1.7.4.4.9-.7 1.7-1.5 1.7-1.7 0-.8-.8-.3-2.1 1.3zM512 92.4c0 .2.7.7 1.6 1 .8.3 1.2.2.9-.4-.6-1-2.5-1.4-2.5-.6zM476.4 94.1c-.4.7-.3.9.4.5.5-.3 1.3 0 1.5.6.4.9.6 1 .6.1.1-1.7-1.6-2.5-2.5-1.2z"/><path d="M482.4 94.1c-.4.8-.3.9.4.5s1.2-.3 1.2.2c0 1.7-1.3 2.2-2.8.9-1.3-1-1.4-.9-.8.1.5.9-.1 1.2-2.3 1-1.7-.1-3.1-.7-3.1-1.3 0-.5-.5-.2-1.1.8-.8 1.3-.7 2.2.1 3.2.8.9.8 1.5 0 2-.6.4-.9.1-.8-.7.2-.8-.6-1.3-2-1.2-1.9 0-2-.1-.9-1.5 2.5-2.9 3-4.7.8-2.3-2.1 2.2-4.8 2.2-3.5 0 .4-.7.2-.8-.4-.4-.9.5-.9 1.3-.2 2.6.8 1.6.8 1.8-.5 1.4-.8-.4-1.6-1-1.6-1.5-.1-.5-.2-1.3-.3-1.8 0-.5-.4-1.3-.8-1.7-.8-.7-.4 2.1.7 4.8.4 1.1.3 1.8-.5 1.8-.6 0-.9-.4-.6-.9.3-.5-.2-1.5-1.1-2.2-1.4-1.2-1.5-1.1-.9.8.5 1.7.3 2.2-1.1 2.2-1 .1-3.5.2-5.6.4-2.1.2-4 0-4.4-.6-.4-.6-.1-.7.7-.2.8.5 1.1.4.6-.3-.3-.5 0-1.2.6-1.5 1-.4 1-.7 0-1.8-.7-.8-1.2-1-1-.4.5 1.6-2.9 5.8-4.1 5.1-.6-.4-2.3.1-3.8 1.1-2.8 1.7-2.8 1.7-1.1-.3 1.6-1.9 1.6-2.2.2-4-1.5-1.8-1.5-1.8-.5.3.9 1.8.8 2.3-1.2 3-3.1 1.1-7.1 1-7.9-.2-.8-1-2.8 1.1-2.8 3 0 .5.4.3 1-.5.5-.8 1.2-1.1 1.7-.7.4.5.2 1.2-.5 1.6-2.2 1.4-5.4.5-7.4-2-1.8-2.2-1.9-2.3-.8-.2.8 1.7.8 2.9 0 4.3-1.3 2.5-2.2 2.6-1.3.2.6-1.5.5-1.5-1-.3-.9.7-1.4 1.8-1 2.4.4.6.1.7-.6.3-.9-.6-.8-1.3.5-2.7.9-1 2.1-1.6 2.5-1.3.5.3.6-.2.3-1-.5-1.2-1-1.1-3.1.7-1.3 1.2-2.9 2.3-3.4 2.3-.5.1-1.1.3-1.4.4-.3.1-1 .3-1.5.4-.6 0-1.5.8-2.1 1.6-.9 1.3-1 1.2-.5-.3.3-1.1 0-2-.9-2.3-.8-.4-1.2-1.1-.9-1.6.4-.6-.3-.5-1.5.1-2.3 1.3-2.7 2.6-1.1 3.6.6.4.7-.1.3-1.1-.4-1.1-.2-1.5.7-1.2.7.2 1.4 1.2 1.6 2.1.1 1-.2 1.4-.8 1-.7-.4-.9.2-.6 1.5.4 1.2.2 2-.3 1.6-.5-.3-.9-1.2-.9-2s-.6-1.3-1.2-1.2c-.7.2-1.2-.5-1-1.4.1-.9-.2-1.9-.8-2.3-.6-.4-.7.1-.3 1.1.5 1.3.3 1.5-.8.9-.9-.6-.8.1.5 2 1 1.7 1.3 2.4.5 1.7-1.8-1.7-3.4-1.5-2 .2.9 1.1.9 1.6 0 2.2-.7.4-.9.3-.5-.4.3-.6.2-1.3-.3-1.7-.6-.3-.8-1.2-.5-1.9.4-1-.4-1.3-2.9-1.2-2.1.1-3.3.5-3 1.2.2.7-.1 1.5-.6 1.9-.6.3-.9 1-.6 1.5.3.5-.5 1.4-1.7 2-2.2 1.1-2.2 1-.4-.4 1.1-.9 1.6-1.6 1.2-1.6-.5 0-.3-.6.3-1.4.9-1 .9-1.6.1-2.1-.6-.4-1.4-.4-1.7-.1-.4.3-.1.6.6.6s.9.5.6 1c-.5.8-1.2.7-2.3-.2-1.5-1.1-1.5-1.1-.5.3 1.1 1.3 1 1.9-.6 3.3-1.3 1.2-2.1 1.4-2.6.6-.4-.6-1.4-.9-2.2-.6-.8.3-1.1.2-.8-.3.3-.5 0-1.3-.6-1.7-.8-.4-.9-.3-.5.4s.2 1.2-.4 1.2c-.6 0-.9.3-.7.7.3.5-.1 1.4-.8 2-1.1 1-1.5.9-2-.8-.7-2-.7-2-2.1-.2-.7 1-1.4 1.4-1.4.9 0-.5-.6-.3-1.4.3-1 .9-2 .9-3.3.2-1.3-.6-2.4-.6-3.4 0-1.2.8-1.2 1 .1.8 3-.3 4 .1 4 1.7 0 1.4-.2 1.5-1.7.3-1.1-1-1.4-1-.9-.2.4.8.2 1.3-.4 1.3-.6 0-.9.4-.5.9.3.5.1 1.2-.4 1.5-.5.4-.8-.5-.7-1.9.3-2.1.1-2.3-1.5-1.4-1.1.5-1.9 1.5-1.9 2.2 0 .8.3.8.9-.2.6-.9.8-.4.8 1.7-.2 2.8-1.2 3.6-1.2.9 0-.7-1.1-1.1-2.5-.9-2.3.3-2.4.3-.7-1 1.8-1.3 1.7-1.4-.2-1.4-1.1 0-1.9.5-1.8 1.1.1.5-.9 1-2.3 1-2.1 0-2.5.5-2.4 2.7.1 1.7-.3 2.5-.9 2.1-.7-.4-.8.1-.3 1.3.6 1.5.5 1.6-.5.7-.9-.9-.9-1.6-.1-2.6.9-1.1.7-1.8-1.1-3.3l-2.2-1.9 1.9 2.2c2 2.4 1.6 2.9-1.2 1.4-1.4-.7-1.7-.4-1.7 1.5 0 1.3.5 2.4 1.2 2.4.6 0 1.5.4 1.8 1 .4.6-.2.7-1.6.2-1.2-.5-2.4-1.7-2.5-2.6-.1-1-.6-2.1-1-2.4-.4-.4-.4.1 0 1.2.5 1.4.2 1.7-.9 1.2-.8-.3-2.1.1-2.7.8-1.1 1.2-1.6 1.2-3.3-.2-1.8-1.6-1.9-1.6-.6 0 1.2 1.6 1 1.7-1.8 1.3-3.4-.4-5.5 1.4-4.5 4 .5 1.3.9 1.4 1.5.3.5-.7.9-.9.9-.3 0 .5-.5 1.7-1 2.5-.7 1.1-1 1.1-1 .2 0-.7-.5-1-1-.7-.6.4-.7 1.2-.3 1.8.4.8.1.7-.9-.1-1.1-.9-1.8-1-2.3-.2-.3.5-.2 1 .3 1s.9.7.9 1.6c0 1.5-.2 1.5-1.3-.1-.7-.9-1-2.4-.7-3.3.5-1 .3-1.3-.6-.7-.7.4-1.1 1.8-.9 3 .3 1.6.1 2.2-.8 1.8-1.2-.4-1.2-3 .1-5.6.4-.6-.1-.3-1 .8s-2.4 1.9-3.3 1.8c-1-.1-1.1 0-.4.3.6.3.9 1.1.6 1.6-.4.7-.2.8.4.4.7-.4 1.2-.2 1.2.3 0 .6-.7 1.1-1.5 1.1-.9 0-1.2.6-.9 1.7.5 1.5.4 1.6-.5.3-1-1.4-1.6-.7-1.2 1.4.2 1-2.9-1.2-4.1-2.9-.4-.6-.8-.2-.8.7 0 1-.5 1.8-1.1 1.8-.6 0-.8-.8-.5-1.8.5-1.5.5-1.5-.6-.1-.7.9-2 1.4-2.8 1.1-1.6-.5-1.5-.4 1.4 1.8 1.1.8 1.7 1 1.4.5-.3-.6.6-1.1 2-1.1 1.5-.1 2.1.1 1.4.3-.6.3-1 .9-.7 1.4.4.5-.1.6-.9.3-.9-.3-1.6-.1-1.6.5s-.5 1.1-1.1 1.1c-.5 0-.7-.5-.4-1 .3-.6 0-1.1-.7-1.1-4.7-.5-6.6-.4-6.1.3.2.5 1.4.6 2.5.2 1.5-.4 1.8-.3 1.3.6-.6.9-.4 1.1.5.5.9-.5 1.1-.4.6.3-.5.9-5.1 1-5.1.2 0-.1-.8-.3-1.7-.5-1.2-.2-1.5.2-1 1.3.5 1.5.4 1.6-1.3.2-1.1-.9-1.6-1-1.1-.3.4.8.2 1.3-.6 1.3-1.1 0-1.1.2 0 .9 1 .6 1 1-.3 2.1-1.2 1-1.3 1.6-.3 2.8.9 1.1.9 1.4.1.9-.7-.4-1.6 0-2.2 1-.6 1-1.1 1.3-1.1.8 0-.6.5-1.6 1.2-2.3.9-.9.9-1.2-.2-1.2s-1.1-.3-.2-1.2c1.5-1.5 1.6-2.8.2-2.8-.6 0-.9.6-.8 1.2.2.7-.3 1.2-1.1 1-1.2-.3-1.2-.1 0 1.4s1.2 1.6-.9 1c-1.5-.5-2.2-.3-2.2.5 0 .7-.3 1-.6.6-.7-.6-2.4.6-5.6 4-1.8 1.9-2.4 2.1-3.7 1-1.4-1.1-1.4-1-.2.5 1.5 2.1.2 2.4-1.8.5-1.1-1-1.1-.8-.2 1 1.2 2.3.5 5.7-1 4.7-.5-.3-.9 0-.9.6s-.5.8-1.1.4c-.8-.4-.5-1.1.9-1.8 1.6-.8 1.9-1.5 1.2-2.6-.8-1.3-1-1.2-1 .2 0 2-1.1 2.3-2.7.7-.8-.8-1.3-.7-1.8.2-.5.7-.4 1 .3.5 1.5-.9 2.2.7.8 2-.7.6-2.5 1-4 .8-3.1-.3-3.1-.2.3 1.6 1.3.6 2.1.8 1.8.3-.3-.5.3-1 1.4-1 1-.1 1.9.3 1.9.9 0 .6-.3.8-.6.5-.4-.4-1.8.6-3.1 2.1s-2.1 2-1.8 1.1c.8-2-2-4.6-3.1-2.8-.4.8-.3.9.4.5.8-.5 1.1.1 1 1.8-.1 1.3-.6 2.2-1 2-.5-.3-1.1.2-1.4 1-.3.9-1 1.6-1.6 1.6-.5 0-.7-.4-.4-.9.3-.5-.6-1.1-1.9-1.4-1.4-.2-2.3-.2-2.1.1.3.2.1 1.2-.4 2.2-.8 1.4-.5 1.7 1.5 1.5 1.7-.2 2.2.1 1.8 1.2-.5 1.2-.7 1.2-1.4.2-.4-.8-1.1-1-1.5-.6-.4.3-.1 1.5.7 2.4 1.3 1.6 1.2 1.7-.3.5-1.3-1-1.7-1-2.2 0-.3.7-.4.4-.1-.8.3-1.3-.1-2.7-1.2-3.5-1.4-1.2-1.6-1.2-.8 0 .6 1.1.4 1.3-.8.8-1.1-.4-1.4-.2-1 .9.4 1.2.8 1.2 2.2.2 1.4-1.1 1.4-1.1.4.3-.7.9-1.1 1.8-.8 2.1.3.3-.1 1-.9 1.7-1.1.9-1.5.8-1.9-.3-.4-1.1-.1-1.3 1.1-1 1.4.5 1.4.4-.1-.6-1-.7-1.9-1-2-.8-.1.2-1.4 1.7-3 3.4-1.9 2.1-2.3 3.1-1.3 3.1.8 0 1.2-.5.9-1-.4-.6-.1-.7.7-.2.9.6 1.1.4.5-.5-.6-.9-.4-1.1.5-.5.9.5 1.1.4.6-.3-1-1.7-.1-1.5 1.4.4 1.1 1.2 1.1 1.5-.1 1.2-.8-.2-1.3.2-1.2.9.1.6-.5 1-1.5.8-.9-.1-2.4.1-3.4.6-1.3.7-1.5.4-1.2-1.4.3-1.6.1-1.4-.7.6-.6 1.5-1.5 2.5-1.9 2.2-.5-.3-2 .6-3.3 1.9-1.4 1.4-2.8 2.2-3.1 1.8-.4-.3-.4.2 0 1.2.6 1.6.8 1.7 1.6.2.5-.9 1.4-1.3 2-1 .7.5.8.2.3-.6s-.4-1.1.3-.7c.5.4.7 1.7.4 3-.5 1.9-.7 1.9-1 .4-.4-1.8-.4-1.8-1.7 0-1 1.4-1.1 2.1-.2 3.3 1 1.3 1 1.3-.5.1-1-.7-1.6-1.7-1.3-2.1.3-.5 0-1.2-.6-1.6-.8-.5-.9-.3-.4.6.6 1 .4 1.2-.7.7-1.7-.6-1.9 1.6-.3 3 .4.4.5.1 0-.7-.6-1.2-.5-1.3.5-.3 1.9 1.8.6 2.7-1.9 1.4-1.3-.8-2.2-.8-2.6-.1-.4.6-1.2.7-1.8.4-.7-.4-.9-.4-.5.1.4.4.3 1.4-.3 2.1-.7.8-.6 1.4.2 2 .8.5.9.3.4-.6-.6-.9-.4-1.1.5-.5.7.5 1.1.4.8-.1-.4-.5.6-1 2-1 2.6-.2 2.6-.1.4.9-1.2.5-2.2 1.4-2.2 1.8 0 .4-1.7.6-3.8.4-2-.2-3.1-.1-2.4.1 1.5.7 1.6 3.4.1 3.4-.5 0-.7-.5-.3-1.2.4-.6.3-.8-.4-.4-.5.3-1.2.3-1.5-.1-.4-.9 0 .7.9 3.4.5 1.5.3 1.5-1-.1-.9-1.1-1.7-1.5-1.7-.8-.1.7-.2 1.6-.3 2.1-.2 1.7-6.6 6.2-7.7 5.5-.8-.4-.9-.3-.5.5.4.6 0 1.4-.9 1.7-1.3.5-1.2.9.6 2.5 1.2 1.1 1.7 1.9 1 1.9s-.9.4-.6 1c.3.5.1 1-.5 1-.7 0-1-.7-.7-1.5.4-.8.2-1.7-.2-2-1.4-.8-2 3.2-.7 4.6.8.9.8 1 0 .6-.7-.4-1.4 0-1.8.8-.3.8-1.2 1.2-2.1.9-1-.4-1.5-.2-1.3.6.2.7-.3 1.5-.9 1.7-.7.3-1.3 0-1.3-.7 0-.6.3-.9.7-.7.5.3.9-.7 1-2.1.1-2.4-.1-2.3-1.9 1.1-1.2 2.5-2.4 3.7-3.3 3.3-.8-.3-1.2 0-.9.7.6 1.6-3.4 6-4.7 5.2-1.5-1-1 .2.8 1.6 1.1 1 1.4 1 .9.1-.4-.6-.4-1.2.1-1.3.4 0 1.9-.2 3.3-.5 1.8-.3 2.1-.2 1 .5-.8.5-1.8.7-2.2.5-.4-.3-.8-.2-.8.3 0 .4-.7 1.7-1.5 2.7-1.1 1.5-1.7 1.6-2.8.7-1.1-.9-1.7-.7-2.8.6-.9 1.1-1 1.4-.1.9.6-.4 1.2-.3 1.2.3s.8.8 1.7.5c1.5-.5 1.5-.4.3.4-.8.6-1.7.9-2.1.6-.4-.2-1 .3-1.3 1.2-.5 1.2-.2 1.5 1.1 1 1.7-.6 1.7-.5.1.7-1 .8-1.5 1.6-1.2 1.9.3.3-.9.4-2.5.3-1.9-.2-2.8.1-2.4.8.4.7-.1.8-1.3.3-1.5-.6-1.6-.5-.7.5.9.9 1.6.9 2.5.1 1-.8 1.8-.8 2.8 0 1.3.8 1.3.9 0 .5-.9-.3-2.4.1-3.5.9-1.5 1.1-2 1.1-2.7.1-.6-.9-.8-.7-.8.5 0 .9-.3 1.8-.7 2.1-.5.2-.3.2.4.1 1.3-.3 1.5 5.4.2 6.2-.5.3-.6-.3-.2-1.2.4-1.2.3-1.5-.5-1-.7.4-1.2 1.4-1.2 2.2 0 .8-.5 1.4-1.1 1.4-1.1 0-.5-1.3 2-4.5.9-1.1 1.2-1.7.7-1.3-.5.4-1.6.2-2.5-.5-1.4-1-1.4-1-.3.5 1.1 1.4 1 1.8-.5 2.7-1 .6-1.3 1.1-.8 1.1.6.1.1.5-1 1-1.7.7-1.7.9-.3.9 1.8.1 1.4 3.1-.4 3.1-.5 0-.7-.4-.4-.8.2-.4-.5-1.4-1.7-2.1-1.8-1.1-2-1.1-1 0 1.5 1.5 1.7 4.3.3 3.4-.5-.3-1-.1-1 .5s1.1.8 2.4.6c1.5-.3 3 .2 3.8 1.2 1.1 1.3 1.1 1.4-.2.7-2.4-1.5-3.8-1.4-4.4.1-.7 1.7-3.7 1.9-3.2.1.1-.6.1-.9-.1-.4-.3.4-1 .4-1.6 0-.7-.3-.4.3.6 1.5 1.1 1.2 1.6 2.6 1.1 3.3-.5.9-.2 1 1.2.6 1.5-.6 1.5-.4-.4 1.1-1.7 1.3-2 2-1.1 2.9.9.9.3 1.1-2.7.8-3.7-.5-3.8-.4-1.5.9 2 1.1 2.1 1.4.6 1.9-2.4 1-3.2.8-1.5-.3 1.2-.8.9-1-1-.8-1.6.2-2.4-.2-2.2-1 .1-.8-.2-1.1-.8-.7-.8.5-.6 1.3.4 2.4 2.1 2.3 2 3.1-.3 2.6-1.1-.2-2.2.3-2.5 1.1-.4 1.1-.2 1.2 1.3.4 2.2-1.1 5.1 1.2 3.1 2.5-.6.3-.7 1.2-.3 1.8.4.7-.2.5-1.2-.3-1.7-1.4-1.8-1.3-1.2.3.5 1.2.3 1.6-.5 1.1s-.9-.2-.5 1c.6 1.4.3 1.7-.9 1.2-1.6-.6-4.3 1.8-4.4 3.8 0 .6.6.2 1.3-.8.8-1.1 2-1.6 2.8-1.3 1 .4.9.6-.3.6-2.1.1-2.4 2.1-.4 2.1.8 0 1.8.4 2.1 1 .4.6-.2.7-1.7.1-2.5-.9-5.8-.1-6.1 1.4-.1.6-.8.9-1.4.9-.9-.1-1 .3-.2 1.8.6 1.1.8 2.2.5 2.6-.3.3-.6.2-.6-.2s-.9-.2-2.1.4c-1.5.9-1.8 1.5-.9 2.5.8.9.8 1.5 0 2-.5.3-1 2.4-1 4.6 0 2.1-.5 3.9-1.1 3.9-.5 0-.7-.6-.4-1.3.4-.6-.2-.1-1.3 1.3-1.2 1.4-1.9 2.7-1.6 2.9.3.3-.6 1.1-1.8 1.8-1.3.7-1.7 1.2-1 1.3.7 0 1.1.4.7 1-.3.5-1.3.7-2.3.4-1.5-.5-1.5-.4.1.6.9.6 1.5 1.5 1.2 2-.3.5-.1 1.1.4 1.5.6.3.8-.4.6-1.5-.3-1.3 0-1.8.7-1.4.7.4.8.3.4-.4s-.2-1.2.3-1.2c1.4 0 1.4 1.3-.1 2.8-.9.9-.9 1.2 0 1.2.7 0 1.2.4 1.2 1 0 .5-.3.9-.8.7-.4-.1-.8.2-1 .8-.2.5-1 1.4-1.8 1.8-.8.5-1.2 1.2-.9 1.7.8 1.4-1.6 2.3-2.8 1.1-1.4-1.4-2.7-1.4-2.7 0 0 .5.5.7 1 .4.6-.3 1-.1 1 .4 0 .6-.5 1.1-1.2 1.1-.6 0-.2.8 1 1.8l2.1 1.8-2.2 1.4c-1.9 1.1-2 1.1-1-.1 1-1.2.8-1.7-1-2.9-2-1.2-2.1-1.2-.9.3 1.4 1.6.8 4.2-.7 3.3-.4-.3-.8.1-.8.8 0 .9.9 1.3 2.4 1 1.2-.2 2.3 0 2.3.6s-.4.8-1 .5c-.5-.3-1-.1-1 .4 0 .6.5 1.1 1.2 1.1.6 0 .9.3.6.6-.3.3-1.5 0-2.7-.7-2.4-1.5-4.1-.4-2.1 1.4 1 1 1.1.9.5-.3-.8-1.3-.7-1.3.8-.1.9.7 1.7 2.1 1.6 3 0 1.2-.2 1.2-.8-.3-.5-1.4-1-1.6-1.5-.7-.4.6-.3 1.8.3 2.5.9 1.1.6 1.3-1.8 1.1-1.7-.1-3 0-2.9.4 0 .3-.1.9-.2 1.3-.1.5-.3 1.4-.4 2-.1.7-.7 1.2-1.2 1.1-.6-.1-1.1.5-1.1 1.3 0 .7.2 1.2.5.9.2-.2 1.1.3 2 1.1 1.2 1.2 1.2 1.8.2 2.7-1 .9-1.1.9-.6-.1 1.4-2.4-.2-1.2-2 1.5-1.4 2.2-1.4 2.5-.2 1.5 1.3-1 1.8-1 2.4-.1.4.8.3.9-.4.5s-1.2-.3-1.2.3c0 .5.7 1.4 1.6 1.9 1.5.8 1.5 1 0 1.5-1 .4-1.5.3-1.1-.3.3-.6.2-1-.4-1-1.9 0-2.1 1.9-.4 2.9 1.1.6 1.3 1.1.5 1.1-.7 0-1.1.4-.8.9.4.5-.5.8-1.9.6-3-.3-3.3 1.1-.5 2 1.1.3 2 1.1 2 1.7 0 .6-.6.6-1.5-.2-1.8-1.5-2 .1-.3 1.9.8.9.8 1.1.2.8-.7-.4-1.4 0-1.8.8-.3.8 0 1.5.6 1.5s.9.3.6.6c-.4.3-1.5.1-2.6-.5-1.8-.9-1.9-.7-1.6 2.2.6 4.8-.2 6.3-2.4 4.6-1.6-1.3-1.6-1.2-.2.5 1.3 1.6 1.2 2-.3 3.1-1.6 1.2-1.6 1.3.2 1.8 1.2.3 1.8 0 1.7-.7-.2-.6-.1-.8.1-.4s1.2.5 2.1.2c1.5-.5 1.5-.4-.1.6-.9.6-1.4 1.6-1.1 2.2.5.7.2.8-.7.3-.7-.5-2.1-1-3.1-1-1.4-.1-1.5.2-.6 1.8.9 1.7.8 1.9-.6 1.4-1-.4-1.5-.3-1.1.3.4.6 1.3.9 2 .8.8-.2 1.4.1 1.4.7 0 .5-.8.8-1.7.7-1.1-.3-.9.3.8 1.7l2.5 2.1-2.8-1c-3.7-1.3-4-1.3-2.5.4.7.8 1.5 1.2 1.8 1.1.3-.2 1.2.1 2 .7 1.2.8 1.2.9-.3.4-1.4-.4-1.6-.1-1.3 1.9.3 1.5.1 2.3-.5 2-.5-.4-.7-1-.4-1.5.3-.4-.3-1.4-1.3-2.1-1.5-1.3-1.6-1.2-.4.3.8 1 .9 1.9.3 2.2-1.6 1-.8 4.6 1.2 5.2 1.7.5 1.6.8-.7 2.9-3.1 2.8-3.2 4-.8 5.4.9.6 1.1 1.1.5 1.1-.7 0-1.3.5-1.3 1.1 0 .5.6.7 1.3.3.6-.4.8-.3.4.1-.4.5-1.4 1-2.2 1.1-1.2.2-1.2-.2-.5-1.7.7-1.3.7-1.9 0-1.9-.5 0-1 .7-1 1.5 0 .7-.8 1.9-1.7 2.4-1 .6-1.3 1.1-.8 1.1 1.8 0 3.4 3.6 2.3 5.1-.8 1.1-.9 1-.4-.4.3-.9.1-1.7-.4-1.7-1.1 0-1.3 1.1-.4 3.4.3.8 1.1 1.4 1.7 1.2.7-.1.9-.1.4.1-.4.3-.4 1 0 1.6.3.7-.4.3-1.6-.8-1.5-1.3-2.1-1.5-1.9-.5.2.7 1.4 2.3 2.6 3.5l2.4 2-2.9.2c-2.4.1-2.5 0-.8-.8l2-.9-2 .3c-1.1.1-2.1.8-2.1 1.5-.1.6-.2 1.7-.3 2.3 0 .5-.5.7-1.1.4-.5-.3-1-.1-1 .4 0 1.5 4 .7 5.1-1 .7-1 .8-.8.6.8-.2 1.2-.6 2.6-1.1 3-.4.4.3 1.5 1.6 2.5l2.3 1.9-2.8-1.3c-1.6-.7-2.6-1.7-2.3-2.5.3-.7.1-1.3-.4-1.3-.6 0-1 .9-1 2.1 0 1.1-.4 1.8-.8 1.5-.4-.2-.9.4-.9 1.5-.1 1 .4 1.9 1 1.9.7 0 .6.4-.3 1-.9.6-1 1-.3 1 1.6 0 2.6-1.7 1.3-2.5-.6-.4-.8-1.1-.5-1.6 1.2-1.8 2.2-.8 2 2.1-.1 2.1.3 3 1.4 3.1 1.4 0 1.4.1.1.7-1.5.7-2.1 2.1-2.4 5.7-.1 1.1-.8 1.9-1.5 1.7-.7-.1-1 .2-.6.8.3.6 1.1.8 1.6.5.5-.4 1.7-.1 2.6.5 1.5.9 1.4 1-.7.4-2.3-.6-2.4-.6-1 1.2 1.1 1.3.6 1.2-2-.6-1.9-1.3-2.9-1.7-2.3-.9 1 1.2 1 1.8 0 2.9-.9 1-.9 1.1.1.6 1.6-.9 1.6.6 0 2.3-.9 1-.9 1.2-.1.7.8-.4 1.1.1 1 1.4-.1 2.3-.8 2.5-2.6.7-1.1-.9-1.2-.9-.7 0 .4.7 1.5 1.7 2.5 2.2 1.6.9 1.7.5 1.6-4 0-4 .2-4.7 1.1-3.5.6.9 1.5 1.2 1.9.8.4-.4 0 .5-1 2-1.6 2.6-1.6 2.8-.1 3.4 1.5.6 1.5.7-.1 1.9-.9.7-2.2 1.2-2.8 1.1-.5-.2-.7-.1-.2.1.4.3.5.9.2 1.3-.3.5 0 1.2.6 1.6.8.5.9.3.4-.7-.8-1.2-.6-1.2.8 0 1.8 1.4 2.2 2.2 1 2-2.2-.4-3.2.3-2.6 1.7.5 1.3.7 1.3 1.5.2.5-.8.7-.4.4 1.4-.3 1.8 0 2.8.7 2.8s.6.4-.3.9c-.8.6-1.7.8-2.1.5-.4-.2-.6.7-.3 2.2.3 1.5.1 2.3-.5 2-.6-.4-.8.2-.6 1.4.2 1.1-.3 2.4-1.3 3-.9.5-1.2 1-.6 1 1.6 0 3.5-2.5 2.6-3.5-.4-.5-.2-.5.5-.2.7.5 1-.1.9-1.8-.2-1.3 0-2.2.4-2 1.1.7.9 5.5-.1 5.5-1.4 0-1.1 2.8.4 3.3.6.2 0 .3-1.5.1-1.5-.2-3 .1-3.3.6-.4.6.2.7 1.2.3 1-.3 1.5-.3 1.1.2-.4.4.2 2.1 1.4 3.7 1.5 2.2 1.8 3.2.9 3.8-1 .5-.9 1.1.3 2.3 1.4 1.3 1.4 1.6 0 2.1-1 .4-1.3.2-.8-.7.4-.6.3-.8-.1-.4-1.7 1.5-1.3 3.7.8 5.3l2.2 1.6-2.2-.6c-1.2-.4-2.4-.2-2.9.5-.5.8-.3.9.6.4.9-.6 1.2-.4.8.7-.4.8-.2 2.1.2 2.8.5.8.5 2.1 0 3-.6 1.1-.5 2.2.3 3 1 1 .8 1.2-.7.6-1.9-.7-1.9-.6-.1 1.4 1 1.1 1.9 2 2 2 0 0 0-2.2-.1-5 0-2.7.3-4.7.8-4.4.4.3.6 1 .3 1.5-.4.5-.3 1.5.2 2.1 1.1 1.9 1.3 3.9.2 3.2-1.7-1-.9.9.9 2.2 1.6 1.2 1.6 1.2-.2 1.1-1.6-.2-1.9.5-1.9 3.8 0 2.4-.6 4.5-1.6 5.3-1.4 1.1-1.4 1.1.1.6 1.2-.4 1.6-.1 1.3 1.3-.2 1-.4 2-.4 2.3-.1.3-.6-.2-1.1-1-.6-.9-1-1-1-.3 0 .6.5 1.5 1 1.8.6.4.7 1.1.4 1.7-.4.7-.2.8.4.4.8-.5 1.2 0 1.2 1.3 0 1-.6 2.2-1.2 2.4-.7.3.1.4 1.9.2 2.4-.3 3 0 2.6 1.1-.3.8-.9 1.4-1.5 1.4-.5 0-.6-.5-.2-1.2.4-.7.3-.8-.5-.4-1.5 1-.9 3.1.9 3.1.7 0 1.5.6 1.8 1.2.2.7-.1 1.3-.8 1.3-.6 0-.8-.5-.4-1.2.5-.7.3-.8-.6-.3-1 .6-1 1.1.3 2 2.4 1.7 2.1 2.8-.4 1.4-1.3-.6-1.9-.7-1.5-.1.3.6 0 1.2-.6 1.5-.7.3-.4.5.7.6 4.3.2 5.5.5 5.5 1.3 0 .5-1.1.6-2.5.4-2.2-.4-2.3-.2-1.3 1.4 1 1.5 1.5 1.7 2.7.7 1.2-1 1.3-.9.6.2-.6 1.1-.4 1.3.9.8 1.1-.4 1.5-.3 1.1.4-.4.6-1.4.8-2.2.5-.9-.4-1.3-.1-1 .6.2.7 1.1 1.3 1.9 1.2.8-.1 1.5.5 1.5 1.2 0 .9-.5 1-1.9.3-1.2-.7-1.8-.6-1.8.1 0 .6-.6.8-1.2.4-1-.6-1-.4 0 .7 1.4 1.5 1.6 3.3.3 2.5-1-.7-.8.9.4 3.7.6 1.5 1 1.6 1.6.5.5-.7.9-1.8.9-2.3 0-.6-.4-.4-.9.4s-1.1.9-1.5.3c-1.1-1.8 1.5-2.5 3.2-.8 1.1 1 1.2 1.6.4 1.6-1.9 0-1.4 2.8.9 4.3 1.4 1 1.6 1.6.8 1.9-1 .3-.9.9.3 2.6.8 1.2 1.9 1.9 2.4 1.4.5-.4.1.2-.9 1.4-2 2.4-2.3 4.1-.4 2.5 1-.8 1.4-.7 1.4.4 0 .8-.4 1.2-.9.9-.4-.3-.8-.1-.8.5s-.7.8-1.5.5c-.8-.4-1.2-1-.9-1.5.3-.5 0-.9-.5-.9-1.6 0-1.3 2 .3 2.6.8.3 1.3 1.4 1.1 2.5-.3 1.2 0 1.7.7 1.3.6-.4.9-.1.6.7-.3.8-1 1.4-1.5 1.4-.6 0-1.4.3-1.8.7-.9.9 1.7.4 3.4-.6 1-.7 1.2-.4.6 1.3-.3 1.2-.2 2.1.3 2.1 1 0 .9-2-.2-6.7-.3-1.3 0-2.3.5-2.3s.9.6.8 1.2c-.3 2.5.1 3.9.9 3.4 1-.6.9 2.4-.1 4.1-.4.6-.3 1.4.2 1.7.5.4 1.1 0 1.4-.6.2-.7.8-.9 1.3-.5s.2 1.2-.6 1.7c-1.2.7-1.2 1.1.1 2.6.9 1.1.9 1.5.2 1-1.2-.6-1.8 1.1-1.4 3.6 0 .5-.4.8-.9.8-.6 0-1 .5-1 1.1 0 .8.6.7 1.6-.2 1.5-1.2 1.6-1.1 1 .9-.5 1.4-.3 2.2.4 2.2.6 0 .8-.5.5-1-.3-.6-.1-1 .4-1 1.7 0 1.3 1.8-.7 2.9-2.4 1.4-.6 1.4 2.1-.1 2-1 2.1-1 .9.5-.8.9-1.1 2-.8 2.6.3.5 0 1.1-.6 1.4-1 .3-1 .7 0 2 .8.9 1.1 2 .9 2.5-.3.4-.1 1.4.5 2.2.8 1.2.9 1.2.4-.3-.3-.9-.1-1.7.5-1.7s.7-.6.2-1.3c-1.1-1.8-1.2-3.7-.2-3.7.6 0 .9.8.7 1.7-.2 1 .3 1.7 1 1.6.6-.2 1.2.2 1.2.7 0 .6-.4 1-.9 1-1.3 0-2 4.9-.8 5.7.6.3.7.1.3-.5-.4-.7-.2-1.2.3-1.2 1.6 0 1.3 1.1-.6 3.3-1.8 1.9-1.7 2 .5.8 1.3-.7 2.6-1 3-.7.3.3 0 .6-.7.6s-.9.5-.5 1.2c.5.7.3.8-.5.3-1-.6-1.1-.3-.2 1.4.7 1.2.9 2.6.6 3.2-.9 1.4 1.5 4.1 3.1 3.5.7-.3 1.6 0 2 .6.5.7.2.8-.6.3-1-.6-1.1-.2-.6 1.9.4 1.8.3 2.5-.4 2.1-.5-.3-1-.1-1 .4 0 .6.7 1.1 1.5 1.1s1.5.4 1.5 1c0 .5-.6 1-1.2 1-.9 0-.8.4.2 1 1.8 1.2 4 1.4 2.5.2-1.3-.9-1.8-5.5-.5-4.7.6.3 1 1.3 1 2.1 0 .9.8 2.3 1.8 3.2 1 1 1.2 1.3.4.8-.9-.6-1.9-.3-3 .9-.9 1-1.2 1.5-.5 1.1.6-.3 1.3-.3 1.6.1.2.5.2.2 0-.5-.1-.7.2-1 .7-.7 1.4.9 1.2 3.2-.2 3.9-.7.3.3.4 2.2.1 1.9-.3 2.8-.2 2 .1-2.8 1.2-3.9 2.5-3.3 4 .3.8 1.1 1.3 1.7 1.1.7-.3 2 .1 3.1.9 1.6 1.2 1.7 1.6.5 2.7-1 1-1.1.9-.5-.2.6-1 .4-1.2-.5-.6-.8.5-1.1.4-.7-.1.3-.5-.3-1-1.4-1-2.4 0-2.4 0 .7 2.1 2 1.3 2.8 1.4 4 .4 1-.8 1.4-.8 1.4 0 0 .6-.5 1.1-1.1 1.1-.5 0-.8.4-.4.9.3.5 0 1.3-.6 1.7-.8.5-.9.3-.4-.6.5-.9.4-1.1-.3-.6-.9.5-.8 1.3.3 3 .8 1.2 1.2 2.6.8 3.1-.5.4-.2.5.5.1s1-1.2.7-1.7c-.3-.5.2-.6 1.1-.2 1.5.6 1.4.9-.7 2.6-2 1.7-2 1.9-.4 1.2 2.9-1.1 7.5-1.3 6.9-.3-.3.5-1.5.6-2.7.3-2.1-.6-2.1-.5.3 1.6 1.4 1.2 1.8 2 .9 1.7-1.3-.5-1.5-.1-1.1 1.9.4 2 .2 2.4-.9 1.8-.8-.5-1-.4-.6 0 1.5 1.7 3.6 1.3 3.2-.6-.2-1.1 0-1.7.5-1.4.4.3.7 1.3.5 2.3-.2.9-.4 2.1-.4 2.5-.1.5-.7.5-1.3.1-.7-.5 0 .9 1.5 2.9 2.6 3.4 2.6 4.2.4 3.8-.5-.1-.6.3-.2.9.3.6 1.1.8 1.6.5.5-.4 1.3.5 1.9 1.9.6 1.6 1.7 2.6 2.7 2.5 1.6-.1 1.6-.2.2-.6-1-.2-1.9-1.3-2.2-2.5-.6-2-.6-2 1.4.1 1.1 1.2 2.6 1.8 3.2 1.5.8-.5.8-.3 0 .7-1.6 1.6-1.7 3.9-.2 3.9.5 0 .8-.4.4-.9-.3-.5-.1-1.2.4-1.5 1.1-.7.9 1.3-.2 3.1-.5.7-.5 1.3 0 1.3.4 0 .2.4-.6.9-.9.6-1 1.1-.2 1.5.6.4 1.1.2 1.1-.4 0-.6.4-.9 1-.5.5.3.7 1.2.3 2-.3.9.1 1.5 1.1 1.5.9 0 1.6.4 1.6 1 0 1-1.5 1.4-3.5 1-.5-.1-.6.2-.2.6 1.3 1.4 3.5 1.3 4.1-.2.3-.8 1.3-1.4 2.3-1.3 1.5 0 1.5.2.3.7-.8.4-1.6 1.3-1.8 2-.1.8.1 1.1.5.9.5-.3 1.6.1 2.6.8 1.6 1.1 1.6 1.3.2 1.9-1.1.4-1.4.2-.9-.6.5-.7.3-.8-.6-.3-.9.5-1.1.4-.6-.3.5-.8.2-1-.8-.6-1.6.6-2.3 2.5-.8 2.3 1.8-.3 2.6.2 1.3 1-.9.6-.5.8 1.4.8 1.6.1 3.2.9 4.1 2.2 1.3 1.8 1.9 1.9 3.7 1 2-1.1 2-.9-.3 1.3-1.5 1.4-3 2.1-3.6 1.6-.6-.4-1.1-.2-1.1.6 0 1.4 2.1 1.6 3.3.3 1.2-1.2 2.1-.8 2.9 1 1.2 2.9 1.4 6.3.4 6.3-.5 0-.9.5-.9 1.1 0 .8.6.7 1.7-.2 1.5-1.2 1.6-1.2.9.6-.4 1.1-.4 1.7-.1 1.3.4-.3 1.8 0 3.2.7 1.5.8 3.1 1.1 3.6.8.6-.4.7-.1.2.7-.6.9-.4 1.2.6.8 1-.4 1.5.1 1.7 1.5.1 1.7-.1 1.8-.8.7-1.6-2.6-1.9-.6-.4 2.5.8 1.7 2.8 3.6 4.5 4.4 1.6.7 2.8 1.6 2.5 1.9-.3.2-1.1 0-1.9-.6-.9-.8-1.7-.8-2.7 0-1.2.8-1.2.9.2.4 1-.3 2-.1 2.3.4.4.6.1 1-.4 1-.6 0-1.1.5-1.1 1.1 0 .5.5.7 1 .4.6-.3 1-.2 1 .4 0 .5.9 1.3 2 1.6 1.1.4 1.8 1 1.5 1.5-.3.4.3.7 1.2.5 1-.2 1.8-.4 1.8-.5 0-.1 1-.3 2.2-.4 1.2-.1 2 .1 1.7.6-.4.5-1.2.7-2 .4-.8-.3-1.7.1-2 .9-.4.8-1 1.2-1.5.9-.5-.3-.6.3-.2 1.2.4 1.1.8 1.3 1.1.6.2-.7.9-.9 1.4-.6.6.4.8.3.5-.2-.3-.6.5-1 1.8-1s2.1.4 1.9.8c-.3.5-.9.6-1.4.3-.4-.3-1.1.2-1.4 1.1-.9 2.4-.7 2.9.6 1.6 1.6-1.6 2.5-1.5 3.2.4.3.8.2 1.2-.4.9-.5-.3-1.8-.2-2.7.4-1.4.8-1 1 1.9.7 2.2-.1 3.6.2 3.5.8-.1.6.7 1 1.8.9 1.1-.1 1.4 0 .8.3-2.2.9-1.4 2.2 1 1.8 2-.4 2-.4.2.4-2.3 1.1-4.5.5-4.2-1 .1-.6-.5-1.3-1.3-1.5-1.2-.4-1.2-.3-.2.5.8.5 1.4 1.3 1.5 1.8.1 1.6 2.5 3.5 3.1 2.5.8-1.3 4.1-.7 4.2.7.1.7.2 1.7.3 2.3 0 .6 1 .9 2.1.6 1.1-.3 1.8-.1 1.5.3-.7 1.2.6 4.1 1.5 3.5.5-.3 1.2.1 1.7.8.4.8 1.5 1.6 2.3 1.9 1 .3.8.6-.8 1-1.4.4-2 .2-1.5-.4.3-.7.1-.8-.5-.4-.8.5-1 .1-.5-1.1.6-1.7.6-1.7-1-.1-1.9 1.8-2.3 3.3-.7 2.3.6-.3 1.4.4 1.9 1.7.6 1.3 1 1.6 1 .8.1-.9 1.2-1.6 2.8-1.7 1.9-.1 2.2.1 1.2.8-1.3.8-.5 1.4 1.6.9.5-.1.7.1.4.5-1 1 4.1 5.6 5.3 4.9.7-.5.8-.2.4.5-.5.7-1.3 1-2 .8-.7-.3-1.2.4-1.3 1.7 0 1.1.1 1.5.4.8.3-.6 1-1.2 1.6-1.2.6 0 1.9-.8 3.1-1.7 2-1.8 2-1.8 0 .8-1 1.5-2.3 2.4-2.8 2.1-.5-.3-.6 0-.2.7.6.9 1.1.9 2.1.1.9-.8 1.5-.8 2 0 .3.6 1.1.7 1.7.4.7-.4.8-.2.4.4-.6 1.1.5 1.6 2.6 1.3 1.3-.1.1 3.1-1.4 4-1.7.9-3.3-1.4-2.3-3.2.4-.5-.1-.6-.9-.3-1.4.5-1.4.8 0 3 1.5 2.2 1.7 2.3 4.5.8 1.8-.9 2.7-2 2.3-2.7-.4-.7-.3-.8.1-.4 1.1.9 1.6 3.9.7 3.3-.4-.2-1.6.2-2.7 1-1 .8-1.3 1.4-.6 1.4.7 0 1 .4.7.9-.3.4.6.7 2 .5 2.6-.3 7.4 1.4 7.4 2.5 0 .4-1 .8-2.2.8-1.6.2-1.9 0-1-.6 1.1-.7 1.1-.9-.2-1.4-.8-.3-1.8-.2-2.1.2-.6 1.1 2.3 3.6 3.2 2.8.9-.9 3.4 1.3 2.7 2.4-.3.5 0 .9.5.9 1.4 0 1.4-1.3-.1-2.8-.9-.9-.9-1.2 0-1.2.7 0 1.2.5 1.2 1.1 0 .5.4.7 1 .4.6-.4.7.1.3 1.2-.6 1.6-.5 1.7 1.3.3 1.7-1.4 1.8-1.4.6.2-.9 1.1-1.1 2.2-.4 3.4.8 1.5.9 1.5 1.5 0 .5-1.2.3-1.5-.6-1-.7.4-.7.1.2-.7 1-1.1 1.5-1.1 1.8-.2.3.7 1.1 1.3 1.9 1.3.9 0 1.2-.5.8-1.2-.4-.7-.3-.8.5-.4.6.4.9 1.2.6 1.7-.4.5.7 2.3 2.4 3.9 1.8 1.8 3.1 2.5 3.3 1.8.3-.8.7-.6 1.1.5.3.9-.1 2.3-.9 3.2-.9.8-1.1 1.5-.5 1.5.6 0 1.9-1 3.1-2.2 2.4-2.7 2.7-1.3.3 1.5-1.7 1.9-1.7 2 .4.8 1.5-.7 2.4-.8 2.8-.1.4.6 1.1.8 1.6.4.5-.3.9-.2.8.3-.3 1.8.2 2.7.9 1.6.5-.8 1.3-.9 2.2-.3 1.3.8 1.2 1-.2 1.1-1 .1-2.2.3-2.8.4-.5.1-1.3.3-1.6.4-1.1.2 1.8 3.1 3 3 3.4-.4 4.4.2 4 2.3-.4 2.1-.4 2.1.5.3 1.2-2.7-.4-4.5-3.7-3.9-1.5.3-2.4.2-2-.1.3-.4 1.2-.7 2-.9.7-.1 1.9-.5 2.6-1 .8-.5 1.2-.3 1 .6-.2.7.3 1.2 1 1 .8-.1 1.1.1.9.5-.8 1.3 1.1 5.3 2.5 5.3.9 0 .9-.3-.2-1-3-1.9 0-1 3.7 1.2 5.1 3 8.1 6.8 5.2 6.8-.5 0-.8-.4-.5-.9.6-.9-1.7-3.2-5.1-5-2-1-2.1-.9-1.8 1 .3 1.2.7 2.4 1.1 2.8.4.3.4-.2 0-1.3-.5-1.4-.3-1.7 1-1.2.8.3 1.9.6 2.2.6.4 0 0 .5-.8 1.1-1.2.8-1.2.9.5.7 1.2-.2 2 .3 2 1.2 0 1.4.6 1.6 3.5 1.2.7-.1.7-1-.1-2.4-1.2-2.3-1.2-2.3.8-.3 1.5 1.5 1.7 2.2.8 2.7-1.4.9-.8 4.8.7 4.8.5 0 .4-.9-.2-2-.9-1.6-.8-2 .5-2 .8 0 1.5-.5 1.5-1.2 0-.6.3-.8.6-.5.4.4.2 1.3-.5 2.1-.9 1.1-.8 1.5.4 2 .9.3 1.3.2 1-.4-.3-.6-.1-1 .4-1 .6 0 1.1.7 1.1 1.5s-.4 1.5-1 1.5c-.5 0-1 .4-1 .9 0 .4 1 .8 2.3.7 1.3-.1 2.1.4 1.9 1.2-.1.6.4 1.1 1 1 .7-.2 1.2.3 1 1-.2.9.2 1.1 1 .6 2.1-1.3 3.9-1.3 3.5-.1-.3.7-1 1.1-1.6.9-.6-.1-1.1.2-1.1.7 0 .6.9.9 1.9.8 1.1 0 1.7-.5 1.5-.9-.3-.4.4-.8 1.6-.8 1.7 0 2 .4 1.6 2.2-.3 1.3-.3 1.7 0 .9.5-1.1 1-.8 2.1 1 .8 1.3 1.2 1.6.9.7-.3-1.2-.1-1.5.9-1.1 1.2.4 1.2 1 .4 2.6-.9 1.7-.9 1.9 0 1.1 1.7-1.5 2.2-5.5.8-5.3-2.4.3-3.5-.1-4-1.4-.3-.8.1-1.4.8-1.4.8 0 1.4.3 1.3.6-.2 1.8.3 2.4 1 1.3.6-.9 1.3-.8 2.8.6 1 1 2.6 1.7 3.4 1.6.8 0 1 .1.3.3-2.5.9-1.2 2.3 1.7 1.9 1.7-.2 2.8.1 2.7.8-.1.6.4 1 1.1.8.8-.1 1.1.2.7.8-.3.6-1.2.7-1.8.3-.6-.4-2-.8-3.1-.8-1-.1-2.7-1.3-3.7-2.6-1.8-2.3-1.8-2.3-1.3-.2.4 1.2 1.5 2.5 2.5 2.8 1 .4 1.9 1.1 1.9 1.6s.6.8 1.3.7c.6-.2 1.1.5 1 1.5-.1 1.4.6 1 2.8-1.4 1.6-1.8 2.9-2.7 2.9-2 0 .7.5.9 1.2.5s.8-.3.4.5c-.4.6-1.1.9-1.6.6-.4-.3-1.4.3-2.1 1.3-1.2 1.5-1.2 1.6.2.5.9-.7 1.9-1 2.2-.6.4.3 1.5 0 2.4-.8 1.6-1.3 1.7-1.2.5.2-1.1 1.4-.9 1.7 1.3 1.8 1.4.1 3.6.2 4.9.3 1.4.1 2.2.6 2 1-.3.4-.1.8.5.8.5 0 1.2-.6 1.5-1.3.3-.6.4-.3.3.8-.1 1.5.3 1.9 1.8 1.7 1.1-.2 1.6.1 1 .5-.5.4-1.1 1.9-1.3 3.3-.1 1.7.1 2.1.7 1.2.4-.8 1.1-1.3 1.5-1.3 2 .3 2.6 0 2-1-.4-.8-.9-.7-1.6.2-.8 1.1-.9 1.1-.6.1.2-.8.6-1.2.9-1 .3.2 1.4-.4 2.5-1.2 1.7-1.4 1.8-1.3.7.1-1.5 1.8-.8 3 1.2 2.2.9-.3 1.3.2 1.2 1.5 0 1.2-.5 1.8-.9 1.6-.5-.3-.6-.9-.3-1.4.8-1.4-2.4-.5-3.8 1-1 1.2-.9 1.2.5.2 1.1-.9 1.8-1 2.3-.2.3.5.1 1-.4 1-.6 0-1.1.5-1.1 1.1 0 .8.4.8 1.4 0 1.1-.9 1.7-.8 2.8.6 1.3 1.8 5.3 2.9 4.3 1.2-.3-.4.4-1.3 1.6-1.9 1.3-.8 1.9-.8 1.5-.2-.4.6.2 1.1 1.1 1 2.1 0 6.4.9 7 1.5.2.3-.3.7-1.2 1.1-.9.3-1.4.2-1-.3.3-.5-.3-.8-1.2-.7-1 .2-2.1-.1-2.4-.6-.4-.6-.9-.6-1.3.1-.4.6-.2 1.1.4 1.1.6 0 .8.6.4 1.2-.6 1-.4 1 .6.1 1.1-1 1.9-.8 3.9 1 1.4 1.2 1.9 1.4 1.2.4-.9-1.2-1-1.7-.2-1.7.6 0 1.6 1 2.1 2.2.7 1.9.9 1.9.9.5.1-1 .5-1.6 1.1-1.2.5.3.6 1.3.3 2.3-.4 1 .2.7 1.5-.8 1.7-2.1 2.3-2.3 3.4-1.1.7.8.8 1.1.2.8-.7-.4-1.8.1-2.5 1.1-1.3 1.5-1.2 1.6.4.3 1.1-.9 1.7-1 1.7-.2s.5.8 1.9-.1c1.1-.7 1.7-1.6 1.4-2.2-.3-.5-.1-.6.5-.2 1.6.9.5 3.2-2.1 4.3-1.9.9-1.8 1 1.3.9 2.6-.2 3.4-.6 3.2-1.8-.1-.9.2-1.9.8-2.3.5-.3 1-.1 1 .5s.5.8 1.2.4c.7-.5.8-.3.4.5-.5.8-.1 1.4 1.2 1.8 1.4.3 1.9 1 1.4 2.1-.4 1.2.3 1 2.9-.8 1.9-1.3 2.8-1.7 2.1-1-1.3 1.6-1.7 5-.4 5 .4 0 1.4-.6 2-1.2 1-1 1.5-1 2.2.2 1.2 1.9 3.1 2 5.2.2 1.3-1.1 2-1.1 3.7 0 1.2.7 2.1 1.7 2.1 2.2 0 .4-.6.4-1.2-.1-1.6-1.2-4.8-1.3-4.8-.1 0 .4.7.8 1.6.8.8 0 1.3.4 1 .9-.7 1 2 .9 3-.2 1.2-1.2 2.4-.8 2.4.7 0 .8.4 1.8 1 2.1.6.3.7-.1.4-1-.5-1.1-.2-1.4 1-.9.9.3 1.3 1.1.9 1.8s-.1.7.9-.1c1.8-1.5 2.9-.7 2.1 1.4-.3.8.7.3 2.2-1.1 1.5-1.4 3.1-2.3 3.6-2 .5.3.9-.1.9-.8 0-.7.7-.2 1.6 1 .8 1.2 1.2 2.8.8 3.5-.6.9-.4.9.8-.1 1.4-1.1 1.8-1 2.6.4.8 1.5.9 1.5 1.5 0 .5-1.1.3-1.5-.5-1-.7.5-.8.3-.3-.6.5-.8.4-1.1-.2-.7-.6.4-1.9-.3-2.9-1.6l-1.9-2.2 2.3 1.9c1.7 1.4 2.2 1.6 2.2.5.1-1.3 2.2 1.5 2.6 3.3.1.5.2 1 .3 1.3 0 .3 1 .1 2.2-.5 1.1-.7 1.8-1.4 1.5-1.7-.3-.3-1.3 0-2.3.8-1.1.9-1.4 1-.9.2.8-1.5 4.8-3.8 4.4-2.6-.2.4.2.8.7.8.6 0 .9-.4.7-.8-.1-.5 1 0 2.6 1.2 1.6 1.1 3.8 1.9 5 1.6 2-.4 2.5 1.6.7 3.2-.4.4-.5.3-.2-.4.8-1.4-1.9-1.1-3.3.3-1.6 1.6 5.5 1.1 7.4-.5 1-.8 1.6-1 1.5-.5-.3 2 .2 3.4 1.2 3.4.8 0 .8-.5-.1-1.5-1.7-2.1-.1-1.9 2.3.3 1.9 1.6 2 1.6.9-.5-.7-1.2-1.7-2.3-2.4-2.6-.7-.3-.3-.4.9-.4 1.2.1 2 .4 1.7.9-.2.4 1.3.6 3.4.4 2.6-.2 3.9.1 3.9 1 0 1.2-2.7 1.1-4.7-.1-.6-.3-1-.1-1 .4 0 1 1.4 1.3 3.6 1 .4 0 1.1.5 1.5 1.3.7 1 .9 1 .9 0 0-.7.4-1.1.8-.8 1.2.7 3.8-1.2 2.9-2.1-.5-.4-1.2-.1-1.7.7-.6.9-1 1-1 .3 0-2.2 2.3-2.6 3.7-.8.7 1.1 1.3 1.4 1.3.8 0-.6.8-1 1.8-.9.9.2 2.1-.2 2.5-.8.6-.7.7-.4.3.6-.3 1 0 1.8.6 1.8s.8.3.5.6c-.4.4-1.2.2-2-.4-.8-.7-1.8-.7-2.7-.2-.8.5-1.8.6-2.2.4-.4-.3-.8 0-.8.5 0 1.4.6 1.4 3 .1 1.3-.7 2.1-.7 2.5 0 .4.6 1.5.8 2.6.5 1.5-.5 1.8-.3 1.3 1.2-.4 1.4-.4 1.5.4.4 1-1.4 3.6-.6 2.7.9-.3.5 0 1.2.6 1.6.8.4.9.3.5-.4s-.1-1.2.6-1.2 0-.9-1.6-1.9c-3.6-2.4-5-4.7-3.5-5.7.7-.4.9-.3.6.2-.3.6-.2 1.6.3 2.4.8 1.3 1.2 1.2 2.5-.5 1.6-2 1.6-1.9.5.2-1.2 2.6.1 3.1 2 .8.7-.8 1.8-1.5 2.4-1.5.6 0 .4.5-.4 1-1 .6-1.1 1-.2 1 .6 0 1.2.5 1.2 1.1 0 .8-.4.8-1.4 0-.8-.7-1.7-.8-2-.3-.3.6.3 1.2 1.4 1.5 1.1.3 2.2.1 2.5-.3.8-1.4 4.7.1 4.1 1.6-.3.7 0 1.6.7 2 .7.4.9.4.5-.1-.4-.4-.3-1.7.3-2.8.6-1 .7-1.7.2-1.4-.5.3-1.5.2-2.3-.4-1.1-.6-1.2-.9-.2-.9.8 0 1-.5.6-1.3-.4-.6.1-.5 1.2.4 1 .8 2.9 1.4 4.1 1.3 1.3-.1 2 .3 1.6.9-.4.6 0 .8 1 .4.9-.3 1.9-.1 2.3.5.4.7.3.8-.4.4s-1.2-.2-1.2.4c0 .7.6 1 1.3.7.6-.2 1.2-1.1 1.1-1.9-.1-.8.5-1.5 1.3-1.5s1.2.6.8 1.5c-.4 1.2-.2 1.2.8.4 1.4-1.2 2.7-.6 2.7 1.2 0 .6-.5.4-1-.4-.7-1.2-.9-1.1-.8.5.1 1.2.9 2.1 1.8 2.1 1.1 0 1.5-.7 1.3-2.1-.3-1.3.4-2.5 1.9-3.4 2.2-1.3 2.3-1.3.6.6-2.3 2.6-2.3 3.1.5 2.9 1.2-.1 3.4.3 4.8 1 2.1 1.1 2.6 1 2.6-.1 0-.8-.7-1.1-1.6-.8-1.2.5-1.3.3-.5-.6.6-.7 2.1-1.3 3.3-1.4 1.1-.1 2.1-.4 2.1-.8 0-1 6.1-.6 7.8.4.7.5 1 1.2.8 1.6-.3.4.5.8 1.6.8 1.7.2 1.8 0 .6-1-.8-.7-1.8-1.9-2.3-2.7-.6-1-.3-.8.7.2.9 1 2.8 1.9 4.2 2 1.4.1 2.7.6 2.7 1 .1.4.2 1.2.3 1.7.3 2.4 1.2 1.7 1.1-.8 0-1.6-.4-2.7-.9-2.4-.5.4-.6.1-.2-.5.4-.6 1.3-.9 2.1-.5 1.1.4 1.4 0 .9-1.3-.6-1.7-.5-1.7.9.1 1 1.2 1.7 1.5 1.8.7.1-.6.2-1.6.3-2.1 0-.5.3-1.1.6-1.3.3-.1.4-.1.3.1-.2.2.2 1 .8 1.7.8.9.4 1.6-1.3 2.5-1.3.7-2.5 1.1-2.8 1-.2-.1-.6.3-.8 1.1-.3 1-.2 1 .6-.1s1-1.1 1.5 0c.4 1 .6 1 .6.1.1-.6.6-1.2 1.2-1.2.5 0 .7.6.3 1.3-.4.6.2.4 1.4-.6 1.1-1.1 1.8-2.5 1.5-3.3-.3-.8 0-1.4.7-1.4.6 0 .8.4.5 1-.3.5-.2 1 .3 1 .6 0 .9.8.7 1.8-.1.9 0 1.1.2.4.3-.7.8-1 1.3-.7.5.3 1.2 0 1.6-.6.4-.7.3-.9-.4-.5-1.8 1.1-2.3-1.1-.4-2.5.9-.7 1.4-.9 1-.5-.4.5-.3 1.5.3 2.3.9 1 .8 1.7-.2 3-1.3 1.6-1.2 1.7.4.4 1.2-1 1.6-2.2 1.3-3.7-.4-1.3-.2-2.5.3-2.8.5-.3.8.2.7 1.1 0 .9.5 1.8 1.2 2 .7.3 1-.1.6-1-.3-.8 0-1.8.6-2.2.6-.3.9-.3.8.2-.1.4.2 1.9.6 3.2.6 1.8 1 2.1 1.7 1 .7-1.2.9-1.2.9 0 0 1.1.4.9 1.4-.5.9-1.2 1.1-2.3.5-3-.6-.8-.2-1.1 1.3-1 1.3 0 2.3-.4 2.3-1.1 0-.6.3-1.4.8-1.7.4-.3.5-.3.2.1-.8 1.1 1.6 3.2 3 2.7.7-.3 1.6 0 2 .6.3.6.1.9-.6.8-.6-.2-1.4.4-1.6 1.2-.4 1.3-.3 1.3.6 0 1-1.3 1.1-1.3 1.1 0s.1 1.3 1 0c.6-1 1-1.1 1-.3 0 .7.5 1.3 1.1 1.3.6 0 0-1.5-1.2-3.3-1.6-2.1-1.7-2.7-.6-1.8 1.4 1.1 2 1.1 3.2.1.8-.7 1.5-.9 1.5-.5s.6.2 1.4-.4c1-.8 1.6-.8 2.5.3.9 1.1.9 1.6 0 2.2-.7.4-.9.3-.6-.3.3-.5 0-1-.8-1s-1.2.4-.9.8c.2.4-.5.6-1.6.4-1.1-.2-2 .1-2 .7 0 .5.6.8 1.4.5.7-.3 1.7-.2 2.2.3.5.5 1.8.2 2.9-.6 1.6-1.2 1.8-1.8.7-3.4-.7-1.1-.8-2-.3-2s1.3.9 1.6 2c.3 1.1 1.6 2.5 2.8 3.1 2.1 1 2.1 1 .3-.5-1.1-.9-1.7-1.9-1.3-2.2.4-.4 1.3-.1 2.2.6.9.7 1.8 1 2.2.6.3-.3.2-.6-.4-.6-.6 0-1.4-.7-1.7-1.6-.5-1.4-.4-1.5.8-.5.8.7 2.1.9 2.7.5.8-.5 1-.2.5.7-.4.8 0 .5.9-.6s1.4-2.8 1.1-3.8c-.2-1 0-1.4.6-1.1.6.4.8 2.2.4 4.3-.3 2.2-.2 3.1.3 2.2.5-.7 1.3-1.1 1.8-.8.5.3 1 0 1-.8s-.3-1.2-.7-1c-.4.2-.7-.2-.7-1 0-1.1.4-1.2 1.4-.4.7.6 1.3.9 1.3.5 0-.3 1.2-.1 2.7.5 1.5.6 2.4.7 2 .3-.3-.4.1-1.3 1.1-2.1 1.5-1.3 1.5-1.3-.5-.4-3.2 1.6-4.2 1.3-1.3-.4 1.9-1 2.8-1.1 3.9-.2.8.7 1.6 1.1 1.8.9.1-.1.4-.2.6-.1 2 .6 3.7.5 3.7-.1 0-1.5-1.8-2.1-2.3-.8-.4.8-.6.9-.6.2-.1-.6.7-1.8 1.6-2.5 1.1-1 1.4-1 .9-.2-.4.7-.3 1.3.2 1.3.6 0 1.2-.6 1.5-1.4.6-1.4 3-1.6 4.3-.3 1.1 1.1 3.4.8 3.4-.4 0-.5-.4-.8-.9-.4-.5.3-1.2.1-1.5-.4-.4-.5.7-.7 2.4-.5 1.8.3 3 .1 3-.6 0-.6-.5-.8-1.2-.4-.7.5-.8.3-.3-.5.5-.9 1-1 1.8-.2.7.7 1.9.5 3.8-.5 2.5-1.3 2.8-1.3 2.3.1-.3.8-1 1.3-1.4 1-.5-.3-1.5.2-2.4 1-.8.9-1.8 1.6-2.1 1.5-2-.1-2.4.2-2.2 1.9 0 1.1.5 1.7.9 1.5.5-.3.6-.9.3-1.4-.3-.5-.1-1.1.5-1.5.5-.3 1 0 1 .7s.7.2 1.6-1c1.5-2.1 3.4-2.2 3.4-.1 0 .6-.4.8-.9.4-.5-.3-1.2-.1-1.5.4-.4.5.2.8 1.1.7 1-.2 1.8-1.1 1.8-2 0-.9.6-2.1 1.3-2.5.8-.5 1.3-1.1 1.3-1.5-.3-2.3 0-3 .9-1.6.5.8 1 1.1 1 .6 0-.5.7-.3 1.5.4s1.3 1.5 1.1 1.9c-.3.4.4.7 1.4.7 1.9 0 1.8-.1 0-1.9-2.4-2.1-2.7-3.5-.4-1.6 1.4 1.2 1.6 1.1 1.2-.6-.2-1.1-1-1.9-1.7-1.7-.7.1-1-.2-.5-.9.5-.9 1.3-.5 2.6 1 1 1.3 1.5 2.7 1.2 3.2-.3.5.7.4 2.1-.3l2.6-1.2-2.5-1.3c-3.2-1.7-3.2-1.8.1-2 1.9-.1 2.2.1 1.2.8-1 .6-.6.9 1.4.9 1.5 0 2.7-.5 2.7-1.1 0-.5.5-.7 1.2-.3.8.5.6 1.1-.7 2-1.6 1.2-1.6 1.3.3 1.1 1.1 0 1.9-.4 1.6-.8-.7-1.1 2-2.6 4.3-2.4 1.5.1 1.9-.3 1.6-1.3-.5-1.2-.2-1.2 1.7-.2 1.8 1 2.1.9 1.5-.1-.6-.9-.3-1.1.8-.6.9.3 1.9.1 2.3-.5.4-.7.3-.8-.4-.4s-1.2.2-1.2-.4c0-.6-.3-.9-.8-.6-.4.2-1.8-.2-3.2-1-1.4-.7-2-1.3-1.5-1.3.6-.1 1.7.3 2.5.9.9.6 1.9.5 2.9-.3 1.1-.9 1.5-.9 1.9.1.3 1 .8.8 1.8-.5 1.3-1.6 1.3-1.5.4 1-.7 1.9-.7 2.6 0 2.2.6-.3 1-1.3 1-2.1s.4-1.3.9-.9c.6.3.8-.6.5-2-.2-1.4 0-2.5.6-2.5s.8.5.4 1.2c-.5.8-.2.9 1 .5 1-.4 1.9-.7 2.2-.7.2 0 .1-.8-.2-1.8-.5-1.4-.4-1.4.4-.2.8 1 .8 1.8 0 2.7-.6.8-.8 1.6-.4 2 .3.3.6.1.6-.6s.5-.9 1.2-.5.8.3.4-.4-.2-1.2.3-1.2c.6 0 1.1.5 1.1 1.1 0 .5 1.1-.2 2.4-1.8 2.1-2.5 2.5-2.6 4.2-1.3 1.8 1.4 1.8 1.4.4-.4-1.4-1.7-1.3-1.8.5-1.3 1.1.4 2.7.2 3.5-.4 1.2-.8 1.1-.9-.5-.5-1.1.3-2.7.1-3.5-.5-1.3-.9-1.3-1 0-.8 4.3.4 5.1 0 4-2.4-1-1.9-.9-2 .2-.6.8.9 2.2 1.9 3.3 2.1 1.1.2 1.9 1 1.7 1.7-.1.7.2 1 .8.6 1.4-.9-.6-3.4-2.9-3.6-.9-.1 0-.5 1.9-.8 2.6-.5 3.9-.3 4.9.8 1.2 1.4 1.3 1.4.8-.1-.7-1.9 1.9-3.8 4.1-3.1 1.5.6 1.6-1.3 0-2.3-.6-.4-.8-.3-.5.3.3.5 0 1-.8 1-1.1 0-1.2-.4-.4-1.4 1.1-1.2.5-1.7-1.4-1.4-.5.1-.5-.3-.2-.9.5-.8 1.3-.6 2.5.5 1 .9 2.3 1.4 2.9 1.1.5-.4 1.5.2 2.1 1.1 1.1 1.7 1.1 1.7.6-.1-.5-1.5-.2-1.7 1.4-1.3 1.1.3 1.8 0 1.7-.7-.1-.6.3-1 .9-.9.6.1 1.1-.5 1.1-1.2 0-1.2-.3-1.2-1.6-.2-1 .8-1.3.8-.8 0 .4-.6.1-1.4-.5-1.7-.7-.2-.3-.4 1-.2 1.3.1 2.8.9 3.3 1.7.7 1.1.9 1.1.9.1 0-.7.4-1 1-.7.6.4.7-.1.3-1.2-.5-1.5-.4-1.6.8-.7 1.1.9 1.7.9 2.6-.1 1-1 .9-1.4-.3-1.9-1-.4-1.3-.2-.8.6s.2.9-.9.5c-1-.4-2 0-2.6 1.1-.6.9-1.1 1.2-1.1.5 0-.6-.9-1.4-2-1.6-1.2-.3-1-.4.7-.3 1.5 0 2.8-.4 2.8-1.1 0-.6.4-1.5.9-2 .5-.4.6-.3.3.3-.8 1.5 4.3 1.6 6.1.2.8-.7 1.7-.6 2.9.3 1.4 1.2 1.6 1.2.8-.1-1.2-2-1.4-7-.2-7 .5 0 .7.7.3 1.5-.3.8-.1 1.5.4 1.5s.7.6.4 1.4c-.6 1.6 1.9 1.6 3.3.1.4-.4.2-.5-.4-.1-.7.4-1.3.4-1.4-.1 0-.4-.2-1.6-.4-2.6-.2-.9.1-1.7.7-1.7s.8.6.5 1.3c-.3.8.1 1.4.9 1.4.7 0 1-.5.7-1-.4-.6 0-.8 1-.4.9.3 1.9.2 2.2-.4.4-.5 1.1-.7 1.6-.4.5.4.6-.2.2-1.2-.6-1.6-.5-1.7 1.3-.3s1.8 1.4.5-.3c-1.4-1.7-1.6-1.7-2.7-.3-1 1.4-1.1 1.3-1.1-.9-.1-1.4.3-2.8.8-3.1.5-.3.6.3.2 1.3-.3 1-.3 1.5.2 1.1.4-.4 1.6-.3 2.6.2 1.5.9 1.7.6 1.4-2.2-.4-2.8-.3-2.9.9-1.2.8 1 1.2 2.4.9 3.1-.3.7 0 1.3.7 1.3.6 0 .9-.4.5-.9-.3-.5-.1-1.2.4-1.6.6-.3.8-1.2.4-2-.3-1 .2-1.5 1.6-1.5 2.2 0 2.7-.9 1.3-2.6-.4-.5-.5-.8-.3-.6.2.1 1.2-.5 2.1-1.3 2.7-2.4 2.2 1-.6 4-1.3 1.4-1.9 2.5-1.4 2.5s1.2-.5 1.5-1c.4-.6 1.1-.7 1.7-.4.7.4.8.2.4-.4-.7-1.2 1.3-5.2 2.7-5.2.4 0 .6.4.3.8-.3.5.1.9.9.9s1.2-.4.9-.9c-.3-.4.6-1.3 2-2 1.4-.6 2.6-1.8 2.6-2.5 0-.8.4-1.2.9-.9.5.3 1.1-.1 1.5-.9.3-.8 1.1-1.3 1.8-1.1.7.1 1 .1.5-.1-.4-.3-.4-1 0-1.6.3-.7-.2-.5-1.3.4-3 2.5-4.4 3.1-4.4 2 0-.6.6-1.1 1.4-1.1.8 0 1.8-.5 2.2-1.2.5-.8.2-.9-1-.5-.9.4-1.5.3-1.2-.2.3-.4 1.9-.8 3.6-.9 1.7 0 2.8.3 2.5.8-.3.5-.1 1.2.5 1.5.6.4.9.1.8-.7-.2-.7.3-1.2 1-1 .6.1 1.2-.3 1.2-.9 0-.6-.7-.9-1.5-.6-.8.4-1.7.2-2-.3-.3-.5-1.4-.7-2.5-.5-1.2.2-1.8 0-1.5-.5.6-.9 2.4-.8 4.3.3 1.5 1 1.5.2.1-2.6-.9-1.9-.7-1.8 1 .3 1.1 1.4 2.1 2.1 2.1 1.6s.7-.3 1.5.4c1.3 1.1 1.4 1 .9-.6-.4-1-.4-1.6 0-1.3.4.4 1.8-.4 3.1-1.7 1.7-1.7 2.2-3.1 1.9-5.1-.3-2-.2-2.4.5-1.3.5.8.8 1.7.5 2.1-.2.4 0 1.1.6 1.4.6.4.9.1.8-.7-.2-.7.3-1.2 1-1 .8.1 1.1-.2.7-.8-.3-.6-1-.8-1.4-.6-.4.3-.7-.7-.8-2.2 0-1.5.1-1.9.4-1 .5 2.2 2.3 2.4 2.3.4 0-2.1 1.7-2.8 2.4-1 .3.8.2 1.3-.3 1-.5-.3-1.1.1-1.5.9-.3.8 0 1.7.6 2.1.7.5.8.2.3-.6-.6-.9-.4-1.2.6-.8 1.1.4 1.5-.3 1.6-2.8 0-2.1-.3-3.1-1-2.7-.6.3-.7.1-.3-.5.4-.6 1.4-.8 2.4-.5 1.5.5 1.4.3-.3-1.8l-2-2.4 2.3 1.9c2 1.7 2.1 2.1.7 3.6-1.3 1.4-1.3 1.7-.1 1.7.8 0 1.5-.3 1.4-.6-.2-2 .4-2.3 1.5-.7 1.2 1.6 1.3 1.6 1.3-.3 0-1.1-.3-1.8-.6-1.6-.3.2-1.2-.6-1.9-1.8-.8-1.2-1-1.9-.6-1.5 1.1 1 3.3-1.5 2.8-3.2-.4-1.2-.3-1.2.5-.1.8 1.1 1 1.1 1.4 0 .3-.9.6-.8 1.1.5.5 1.1.3 1.5-.5 1-.7-.5-.8-.3-.4.5.5.7 1 1 1.4.7.3-.3 1.1.2 1.9 1.2 1.3 1.5 1.3 1.5.4-.4-.8-1.6-.7-2.5.3-3.3.7-.6 1.5-.9 1.8-.6.2.3.5-.2.5-1 0-1.2-.3-1.2-1.6-.3-.9.7-1.3.8-.9.4.4-.5.2-1.6-.5-2.5-1-1.4-1-1.4.5-.3 1 .8 1.9.9 2.2.3.3-.5.1-1.2-.4-1.4-.6-.3-.5-.4.1-.3.7.1 1.3 1 1.5 2 .1 1 .6 2.1.9 2.4.4.4.5-.2.3-1.3-.2-1.2.2-1.9 1-1.7 2 .4 1.4-1.6-.8-2.3-1.1-.3-2-1.1-2-1.7 0-.6.3-.8.7-.5.3.4 1.1.3 1.7-.3.7-.5 1.7-.5 2.6.2 1.2.8 1.2.9-.2.4-2.5-.8-2.2.1.3 1.5 1.2.6 1.9.7 1.5.1-.3-.5.1-1.5.9-2.2 1.6-1.3 1-3.5-.6-2.4-.5.3-.7 1-.4 1.5 1 1.6-.2 1-1.6-.8-.7-1-.9-1.5-.5-1.1.5.4 1.5.3 2.3-.3 1-.9 1.7-.8 2.8.1 2 1.6 1.9.6-.1-1.4-1.4-1.5-1.3-1.6.6-1.6 1.2 0 1.9.4 1.6.8-.3.5.1.9.9.9 1.2 0 1.2-.3.3-1.5-1-1.1-.8-1.3.8-1 1.1.2 1.8-.2 1.6-.9-.1-.7.3-1.3.8-1.3.6 0 .5-.6-.2-1.4-.7-.8-1.7-1.1-2.2-.8-.5.3-.6 0-.2-.7.5-.7 1.1-1 1.4-.7.3.4 1.7-.1 3-1 2.3-1.5 2.5-1.5 1.9 0-.4 1-.3 1.5.3 1.1.6-.4.9-1.4.8-2.3-.2-1 .3-1.6 1-1.4.8.1 1.1-.2.7-.8-.3-.6-1.2-.7-1.8-.3-.7.4-.5-.4.4-1.7.9-1.3 2.2-2.6 3-2.8.8-.2.6.3-.5 1.2-1.1.9-1.6 1.9-1.1 2.3.4.5 1 .3 1.2-.4.2-.7 1.2-.9 2.1-.6 1 .3 1.3.1.7-.4-.6-.4-1-1.5-1-2.3 0-.8-.6-1.8-1.4-2.1-1.1-.4-.9-.7.7-1.1 1.2-.4 2.5-.1 2.9.4.3.6.1.8-.5.5-.6-.5-.8.1-.4 1.5.5 2.1.6 2.1 1.3.2.4-1.1.8-1.3.8-.5.1.8.4 1.2.7.9.3-.4-.1-1.7-1-3-1-1.5-1.2-2.8-.6-3.8.7-1.2 1.2-1.2 2.8.4 1.3 1.1 2.2 1.4 2.7.7.6-1-.1-1.5-1.7-1.2-.5 0-.8-.2-.9-.6 0-.5-.2-1.6-.4-2.6-.2-.9.1-1.7.7-1.7s.8.7.4 1.5c-.3.8-.1 1.5.3 1.5.5 0 1.8.3 2.8.6 1.4.5 1.5.4.4-.4-1.7-1.2-2.6-5.8-1.2-6.6.5-.3.7.3.4 1.4-.3 1.1 0 2 .6 2s1.2-.8 1.2-1.8c.1-.9.2-2.3.3-3.1.1-1.5 4.6-2.7 4.6-1.2 0 .6-.9.8-2 .6-1.1-.2-2 0-2 .4 0 .5 1.1.8 2.4.8 2.1 0 2.4-.4 2.4-2.8-.1-2.3-.4-2.7-1.5-1.8-.7.7-1.6.9-2 .5-.3-.3-.1-.6.6-.6s1-.4.7-.9c-.4-.5.2-.8 1.1-.6 1 .1 2.5-.4 3.3-1.2.8-.7 2.6-2.2 3.9-3.3 1.3-1.1 2.1-2 1.7-2-.4 0-.1-.6.6-1.4 1-1 1.7-1.1 2.8-.3 1.2.9 1.3.9.3-.3-2-2.2-1.5-3.2 1-1.9 1.4.7 1 0-1.3-2.1-1.9-1.8-2.7-2.7-1.8-2 1.5 1 1.9.9 2.4-.5.4-1 .1-2.7-.6-3.9-1.3-2.1-1.3-2.1.9-.2 1.7 1.6 2.5 1.7 4.3.7 2.1-1 2.1-1.1.2-.6-1.2.3-2.6-.1-3.4-1-.7-.8-1.1-1.5-.9-1.6 3.9-.8 4-.8 2.7.9-1.1 1.5-1.1 1.5.3.5.9-.7 1.8-1.2 2-1 .3.1-.7-.8-2.1-2.1l-2.5-2.4 3.5 1.8c2.8 1.3 3.2 1.4 2.3.2-.7-.8-.9-1.9-.5-2.3.4-.5-.2-.5-1.3-.2-1.9.7-1.9.7-.1-.8 2.2-1.7 4.2-1 2.6 1-.8.9-.6 1.4.5 1.9 1 .3 1.3.2 1-.5-.4-.5-.1-1.7.7-2.6.7-.9.9-1.4.3-1.1-.5.3-1.8-.2-2.7-1.2-1.7-1.6-1.7-1.7.2-1.5 1.1.1 2.3.4 2.6.8.4.4 1.1.7 1.6.7s.2-.7-.6-1.6c-.9-.8-1.4-1.9-1.1-2.4.3-.5-.1-1-.7-1.3-.7-.2-.1-.4 1.5-.4 2.4 0 2.5.1 1.1 1.2-1.4.9-1.4 1.4-.4 2 .9.6 1.1.4.5-.5-.6-1-.4-1.2.7-.8 1.1.5 1.5 0 1.4-1.5-.1-1.2.4-2.1 1.1-2 .7.2 1-.4.6-1.3-.4-1.2-.8-1.3-1.4-.3-.4.7-1.5 1.4-2.3 1.5-.9.1-1.4-.2-1-.7.3-.5 1-.6 1.6-.3.8.5.9.1.5-1-.4-1-.3-1.5.3-1.1 1 .6 1.3-.3 1.3-3.7 0-1 .3-1.5.8-1.3.4.3 1.3-.3 1.9-1.2 1.1-1.7 1.1-1.7.6-.1-.3 1-.1 1.8.4 1.8.6 0 1-.8 1-1.8 0-1.4.2-1.5.9-.2.6.8.7 1.9.4 2.5-.4.5-.2.7.2.2 1-.8 1.5-4.8.6-4.3-.3.2-1.5 0-2.6-.5-1.8-.7-1.8-.8.5-.9 1.4-.2 2.8-.2 3.2-.1.4 0 .5-1.1.2-2.5s-.1-2.3.5-2c.5.3 1.4 0 2-.8.9-1 .5-2-1.6-4.1-2.8-2.8-1.4-2.6 2 .3.9.8 2 1.2 2.4.9.3-.4.1-.7-.5-.7s-1.6-1-2.3-2.1c-.8-1.5-.8-1.9 0-1.5.6.4 1.1.2 1.1-.3 0-.6-.4-1.1-1-1.1-.5 0-1-.5-1-1.1 0-.6.5-.7 1.3-.2 1.9 1.2 4.7 1.4 4.7.4 0-.6-.5-1.3-1.2-1.7-.7-.4-.8-.3-.4.4.5.8.1 1-1 .5-1.1-.4-1.3-.8-.6-1.1.7-.2.9-.8.6-1.4-.4-.6.2-.6 1.4.1 2.6 1.4 3.2 1.4 3.2 0 0-.5-.4-.8-.9-.5-.4.3-1.9-.7-3.2-2.2-1.8-2-1.9-2.2-.3-.9 2.9 2.4 3.7 2.1 1.9-.7-1.7-2.5-.8-4 1.8-3 1.1.4 1.4-.1 1.2-2-.2-1.5.1-2.4.6-2 .5.3.7.9.5 1.3-.3.4.1.8.8.8 1.1 0 1.2-.5.4-2.3-.6-1.3-1.5-2.1-2.1-1.7-.6.3-.7.1-.3-.6.4-.6 1.2-.9 1.7-.6 1.3.9 1.1-.9-.3-2.5-1-1.1-.9-1.1.6 0 1.8 1.4 1.9 1.3 1.3-.2-.3-1-.2-2 .3-2.3.5-.3.7-1.4.5-2.5-.2-1.1 0-2 .5-2 1.1 0 .6 6-.8 8.6-.9 1.6-.7 2 .8 2.1 1 .1 2.5-.6 3.2-1.5 1.2-1.5 1.1-1.6-.5-.3-.9.8-2 1.1-2.4.7-.4-.3.2-1.2 1.2-2 1.3-.9 1.5-1.5.6-2-1.8-1.1.6-3.6 2.7-2.9 1.5.4 1.5.3.2-.6-.8-.6-1.1-1.1-.6-1.1.5 0 .3-.7-.4-1.5s-1.6-1.3-1.9-1c-.4.2-.8-.2-.8-1 0-1.1.7-.9 2.8.6 1.8 1.2 3 1.6 3.4.9.4-.6.1-.9-.6-.8-.7.2-1.5-.5-1.7-1.6-.2-1.1 0-1.6.7-1.2 1 .7 1.6-.6 1.2-2.8-.1-.4.3-1.4.9-2.1.8-1 .8-1.9.1-3.3-.8-1.5-.7-2.3.6-3.3.9-.8 1.4-.9 1-.3-.3.6 0 1.1.7 1.1.8 0 1.2-.7.8-1.5-.3-.9-.1-1.3.5-.9s.9-.3.7-1.8c-.2-2.3.6-3 2.9-2.6.5.1.6-.3.2-.8-.3-.6-1.3-.7-2.3-.4-1.3.5-1.4.3-.5-.7.6-.7.9-2 .5-2.9-.5-1.3-.3-1.4.9-.4 1.3 1.1 1.5.9 1.3-1-.1-1.2-.3-2.5-.3-3-.1-.4-.4-.6-.8-.6-2.2.4-2.4-.3-.7-2.2 1-1.2 1.8-2.3 1.7-2.5-.8-1.2-.1-2.3 1.2-1.8.8.4 1.2 1 .9 1.5-.3.5-.9.7-1.3.5-.4-.3-.8.1-.8.9 0 2 1.3 1.9 2.1-.1.3-.9 1.1-1.2 1.8-.8.8.5.7 0-.2-1.1-1.4-1.7-1.3-1.8.5-1.2 1.9.7 1.9.6.2-.7-1.1-.8-2.5-1.2-3.1-1-.7.3-1.3-.2-1.3-.9 0-1.1.7-1.3 2.7-.7 1.9.5 2.7.4 2.7-.5 0-.7-.6-1.1-1.3-.8-.7.3-1.8.2-2.3-.1-1.2-.8-.3-3.6 1.1-3.6.6 0 .5.6-.2 1.5-.9 1-.9 1.5-.1 1.5.6 0 1.1-.5 1.1-1.1 0-.5.6-.7 1.3-.3.6.4.3-.3-.8-1.6l-2-2.3 2.1 1.1c2.1 1.1 2.1 1 1-1.3-.6-1.4-1.6-2.5-2.3-2.5-.6 0-1.5-.4-1.8-1-.3-.5 0-.7.9-.4.8.3 1.9-.3 2.5-1.4.9-1.6.6-2.3-1.1-3.4-1.7-1.1-1.9-1.6-.8-2.3.9-.5 1.1-.4.6.3-.7 1.1.6 1.7 2.7 1.3.5-.1.5.4.1 1.1-.4.7-.4 1 .1.6.4-.4 1.4-.3 2.1.3.9.7 1.4.6 2-.3.4-.7.4-1-.1-.6-.4.4-1.4.3-2.2-.3-1.6-1.4-1.8-3.3-.1-2.3.6.4.8.3.4-.4-.3-.5-.3-1.2.1-1.5.5-.2.3-.3-.3-.1-.6.1-1.7-.2-2.5-.8-1.1-.8-1-.9.4-.4 1.2.4 1.7.2 1.4-.6-.2-.7-1.1-1.2-2-1.2-.9.1-1.3-.4-1-1.3.3-.7.8-1.1 1.1-.8.7.7 4.2-2.5 4.2-3.8 0-.6-1-.2-2.2.9-2.3 1.9-2.3 1.9-.6-.2 1.4-1.6 1.5-2.3.5-3.4-.9-1-.9-1.1.1-.6 1.8 1.1 2.7-2.1 1.1-4.1-1.1-1.3-.8-1.3 1.6.3 1.6 1 2.6 1.4 2.2.7-.4-.6-.3-1.4.3-1.8.5-.3 1-1.2 1-1.8 0-.7-.4-.6-1.1.3-.9 1.2-1 1.1-.6-.8.3-1.2.1-2-.3-1.7-.5.3-.7-.4-.5-1.5.2-1.1 0-2-.6-2-.5 0-.9-.5-.9-1.2 0-.6.3-.8.7-.5.8.8 3.3-1.1 3.3-2.5 0-.6-.8-.4-1.7.3-1.6 1.3-1.7 1.2-.5-.3.8-1 1.9-1.6 2.4-1.5.6.1 1.2-.6 1.3-1.6.2-.9-.1-1.5-.6-1.1-.5.3-.9-.2-.9-1.1 0-1.1.5-1.5 1.4-1.2 1.1.4 1.3.1.9-1.1-1-2.9-1.4-3.3-2.5-2.6-.7.4-.7.9 0 1.3s.6 1.3-.3 2.5c-1.3 1.7-1.4 1.7-1.1-.6.3-3.1 1.5-5 2.7-4.3.5.4.9.3.9 0 0-1-2.7-3.5-3.2-3-.3.3-.5-.2-.5-1 0-1 .4-1.2 1.2-.5.7.5 1.6.6 2 .2.5-.4.5-.2.2.4-.3.6 0 1.1.7 1.1.8 0 1.2-.6.9-1.4-.3-.7-1.1-1.3-1.8-1.3s-1.6-.7-1.9-1.6c-.9-2.4-.7-2.7 1-1 .8.9 2.1 1.6 2.7 1.5.9 0 .8-.2 0-.6-1.6-.6-1.7-4.3-.1-4.3.6 0 .8-.3.5-.6-.4-.4-1.3-.1-2.2.6-.9.7-1.8 1-2.2.6-.3-.3-.1-.6.6-.6s.9-.5.5-1.2-.3-.8.4-.4 1.2.2 1.2-.4c0-.8.6-.8 2.3 0 1.8.9 2 .9.7-.2-1.7-1.5-1.9-2.7-.6-4.7.7-1 .6-1.2-.4-.6-.9.5-1 .2-.6-1.3.6-1.8-.9-3.3-3.6-3.6-.3-.1-.9-.4-1.3-.8-.9-.9 1.6-.5 3.3.5.6.5 1.2.4 1.2-.2 0-.5-.5-1.3-1-1.6-.6-.4-.8-1.1-.4-1.6.3-.6-.2-1.7-1.2-2.5-1.8-1.4-1.8-1.5.2-.5 1.2.6 2.5.7 2.9.3.4-.4.2.3-.4 1.5-.8 1.5-.8 2.3-.1 2.3.5 0 1-.7 1-1.6 0-1.4.2-1.5 1.8-.3 1.5 1.2 1.6 1.2.5-.2-.7-.9-.9-2-.5-2.4.4-.5.1-.5-.5-.1-.9.5-1.3 0-1.3-1.5 0-1.9.2-2 1.8-.8 1.5 1.3 1.6 1.2.4-.3-.8-1-.9-1.8-.3-2.2 1.3-.9.2-3.6-1.4-3.6-.8 0-1.1-.8-.8-2 .6-2.2 1.3-2.5 3.1-1 .8.7.9.7.3-.1-.5-.6-.7-1.7-.5-2.4.3-.6-.3-1.8-1.3-2.6-1.6-1.3-1.7-1.2-.5.3 1.1 1.4 1 2-.7 3.7-1.2 1.2-2.1 1.7-2.1 1.2 0-.6.4-1.3 1-1.6 1.2-.8.9-5.5-.4-5.5-.5 0-.6-.3-.3-.6.4-.4 1.9.1 3.4 1.1 2.7 1.8 2.8 1.8 1.3-.1-2.2-2.8-3.1-3.3-5.3-2.8-1.1.2-1.6 0-1.3-.4.4-.4 1.3-.7 1.9-.7 1.5 0 1.6-3.7.2-4.8-.6-.5-.4-.7.5-.4.9.2 1.5 1.5 1.4 3 0 1.5.2 2.4.5 2.2.2-.3 1.1.1 2 .8 1.4 1 1.4 1 .3-.5-1.4-1.8-.7-4.3.9-3.2.5.3.6 1 .3 1.6-.4.7-.2.8.5.4.9-.6.9-1.1 0-2.2-.6-.7-1.5-1.1-2-.9-.4.3-1.3-.3-1.9-1.4-.6-1.2-1.6-1.8-2.5-1.5-.8.4-1.5.1-1.5-.5s.6-1 1.3-.8c1.8.3 1.7-5.2-.2-6.4-1.4-.9-1.4-1 .2-.5.9.3 1.7.1 1.7-.4 0-.6-.5-1-1.1-1-.6 0-.8-.7-.5-1.6.4-1.1.2-1.5-.7-1.1-.8.3-1.4-.1-1.4-.8 0-.8.7-1.1 1.6-.7 1.4.5 1.4.4.1-1.3-.9-1.1-1-1.6-.2-1.1.7.4 1.2.1 1.2-.8 0-1-.6-1.3-1.7-1-1.5.5-1.6.4-.3-.5 1.4-1 .7-1.6-1.3-1.2-.5.1-.6-.3-.2-.9.5-.8 1.1-.7 2.1.1 1.8 1.5 1.8.5-.1-3.1-1.3-2.5-1.3-2.8 0-2.6.8.1 2.2 1.1 3.1 2.2 1.5 1.8 1.5 1.8.5-.2-.6-1.2-.7-2.5-.3-2.9.4-.5.1-.5-.6-.1-1.9 1.1-1.1-2.6.8-4.1 1.3-1 1.2-1.1-.4-1-1.1.1-2-.5-2.1-1.6-.2-.9 0-1.7.4-1.7s.8-.7.8-1.5-.5-1.1-1-.8c-.6.4-.8 0-.4-.9.7-2-1.7-5.6-2.7-4-.4.7-.3 1.2.2 1.2s.9.6.9 1.2c0 .7.4 2.2.7 3.3.4 1.1-.1.6-1-1-1-1.7-1.8-4.4-1.9-6.1-.1-1.7-.5-3.6-.9-4.2-.4-.7-.4-1.1.1-1 .4.2.8-.2.8-.7 0-.6-.4-.9-.8-.7-.5.1-.6-.2-.2-.8.3-.6 1.1-.8 1.6-.5.5.4.9.1.9-.5s.4-.9.9-.6c.5.3 1.1-.1 1.4-.9.4-.9.1-1.2-.7-.9-.7.3-1.3-.2-1.3-1.1 0-.8.5-1.5 1.1-1.5.6-.1 0-.7-1.4-1.4-1.4-.8-2.9-1.2-3.5-.8-.5.3-.4-.2.4-1.1 1.1-1.4 1.1-1.8-.3-2.3-1.3-.5-1.4-.9-.5-2 1.4-1.7 3.3-.8 2.5 1.2-.8 2.2.8 1.7 2.2-.7.8-1.2.9-1.8.2-1.4-1.3.8-4.2-1.4-3.4-2.6.5-.8-.9-1.3-2.8-1-.5 0-.8-.4-.8-.9 0-.6 1.1-.8 2.4-.6 1.8.3 2.3 0 2.1-1.2-.1-1 .3-2.1.9-2.5.7-.6.4-.7-.6-.3-1.1.3-2.1-.2-2.7-1.2-.9-1.5-1-1.4-.8.5 0 1.2.4 2 .7 1.8.4-.2.7.2.7 1 0 1.1-.4 1.2-1.3.4-.7-.5-1.1-2.3-.9-3.9.3-2.4.1-2.8-1.3-2.4-1 .4-1.3.2-.7-.3 1.8-1.5 1.7-4.3-.2-4.4-1 0-1.3-.3-.6-.5.6-.3 2.3.2 3.6 1 2 1.4 2.4 1.4 2.4.1 0-.8-.4-1.2-.9-.9-.4.3-1.7-.1-2.8-.9-1.8-1.3-1.9-1.5-.5-2.1.9-.3 1.3-1 1-1.6-.6-.9.8-1.4 2.8-1.1.5.1.6-.3.2-.9-.3-.6-1.1-.7-1.7-.4-.5.4-2.6.8-4.6 1-2.9.2-3.3.1-1.9-.7.9-.6 1.5-1.5 1.2-2-.4-.5-1.1-.6-1.7-.3-.7.4-.8.2-.4-.5.4-.6 1.2-.8 1.8-.5.8.5.9.1.5-1.1-.4-.9-.2-2.4.4-3.1.7-.9.8-1.4.1-1.4-.6 0-.9-.8-.7-1.8.1-.9-.5-2.6-1.4-3.6-1.5-1.8-1.5-1.9.4-1.3 1.9.7 1.9.7.1-.8-1.6-1.2-1.7-1.7-.6-3 1.6-1.9.3-2-1.6-.1-.9 1-1 1.7-.4 2.1.6.4.8 1 .5 1.5-.3.5.2 1.6 1.1 2.4.8.9 1.2 1.6.7 1.6-1.1 0-4-2-2.9-2 .5 0 .3-.7-.4-1.5s-.9-1.5-.5-1.5.1-.8-.6-1.7c-.9-1-.9-1.4-.2-1 .7.5 1.6-.1 2.3-1.3.6-1.1.7-2 .3-2-.4 0-.1-.5.7-1.1 1.3-.9 1.2-1-.2-.5-1 .3-1.8.1-1.8-.4 0-.6.6-1 1.2-1 .7 0 .2-.7-1-1.6-1.2-.8-2.2-2-2.2-2.7 0-.8.3-.8 1.2.1 2.2 2.2 2.9 1.3.8-1-2.3-2.5-2.5-3.4-.7-4.2.6-.3.5-.4-.5-.3-.9.1-1.7-.3-1.7-.8-.1-.6.3-1 .8-1s1.3-.4 1.8-.9.3-.6-.4-.2c-.7.4-1.3.2-1.3-.3 0-.6-.9-.2-2 .9s-2.5 2-3.1 2c-.6 0-.1-.9 1.2-2.1 1.8-1.6 2-1.9.6-1.5-1 .3-1.5.2-1.2-.3.3-.5-.5-1.7-1.7-2.7-1.5-1.1-1.7-1.4-.5-1.1.9.4 1.7.2 1.7-.4 0-.6.4-.8.9-.4 1.7 1 2.4-1.8.8-3-.9-.7-1.3-1.6-.9-2 .4-.5.1-.5-.5-.1-.7.4-1.3.2-1.3-.3 0-.6.5-1.1 1-1.1.6 0 1-.5 1-1.1 0-.8-.5-.7-1.6.2-1.3 1.1-1.5 1-1.2-.6.1-1-.4-2-1.2-2.2-1.3-.4-1.3-.3 0 .6.9.7 1 1.1.3 1.1-2 0-2.4-1.8-.6-2.9 2.4-1.4-.2-1.4-2.7-.1-1.3.7-2.1.6-2.6-.2-.4-.7-.4-1 .1-.6.4.4 1.4 0 2.2-1 .9-1 1.2-1.1.7-.2-.6 1.1-.2 1 1.3-.3 1.1-.9 2.2-1.4 2.6-1.1.3.3.3-.4 0-1.7-.5-1.8-.8-1.9-1.2-.7-.3.8-1.4 1.4-2.3 1.2-1-.1-1.8.2-1.8.7 0 .5-.4.9-.8.9-.5 0-.9-.7-.9-1.5s.2-1.3.5-1c.3.2 1.4 0 2.4-.6 2.3-1.2 1.4-2.7-2.2-3.4-2.5-.5-4-1.5-2.2-1.5 1.4 0 1.6-3.6.2-4.5-.5-.3-.7-1.2-.4-1.9.3-.8 0-1.7-.6-2.1-.8-.5-.7-1.1.2-2.3.7-.9.8-1.3.2-.9-.6.4-1.9-.2-2.8-1.2-1.1-1.3-1.4-2.1-.7-2.6.6-.3 1.1-1.1 1.1-1.6 0-.6-.6-.4-1.3.3-1.6 1.6-1.8 5-.3 4.1.6-.3.8-.2.3.2-.4.5-1.7.9-2.9 1-1.8.2-1.9 0-.5-1s1.4-1.5.3-3.7c-1-1.9-1.1-2.9-.3-3.7 1.6-1.6-.6-1.4-2.2.1-1 .9-1.2.9-.7.1.3-.6.1-1.5-.4-1.8-.8-.5-.6-1.3.6-2.6 1.8-2 .6-2.7-1.3-.8-.8.8-1.3.7-1.8-.2-.5-.7-.4-1 .2-.6.6.4 1.4 0 1.7-.9.4-1.1.2-1.5-.8-1.1-1 .4-1.2 0-.9-1.4.6-2.2 1.9-2.5 2.6-.7.4 1 .6 1 .6.1.2-2.1-1.8-2.4-4.6-.7-1.5.9-2.1 1-1.1.2 1.2-1 1.3-1.9.7-3.1-.7-1.1-.7-1.7 0-1.7.5 0 1.1.5 1.3 1 .2.6.9 0 1.7-1.2 1.3-2 1.2-2.2-.1-1.1-.8.7-1.8 1-2.1.6-.4-.3-1.4 0-2.2.7-1.3 1.1-1.3 1.5-.3 2.2 1 .8 1 .9-.1.6-.8-.2-1.5-1.2-1.7-2.1-.1-.9.2-1.5.7-1.1.5.3.9-.2.9-1.1 0-1 .5-1.3 1.3-.9.8.5.8.2-.2-.9-.7-.9-2.3-1.7-3.5-1.7-1.7 0-1.8-.2-.6-1 1.2-.8 1.3-1.3.3-3-.7-1.1-1.3-2.7-1.3-3.5 0-.8-.5-1.5-1.1-1.5-.5 0-.8-.4-.4-.9.9-1.5-1.5-2.5-2.8-1.2-.9.9-.7 1.1.8.6 1.4-.5 1.6-.4.7.3-1.1.7-1 1 .3 1.6 1 .3 1.5 1.2 1.1 2.1-.3.8 0 1.5.6 1.5s.9.3.5.6c-.3.3-1.4.1-2.4-.5s-1.2-1.1-.5-1.1c1.7 0 1.5-2-.2-2-.8 0-1.6-.6-1.9-1.3-.7-1.8 1.2-4.9 2.6-4.1.7.4.5-.1-.4-1-.9-1-2.2-1.4-3.3-1-1.4.5-1.5.9-.4 1.5 1 .7.9 1.2-.6 2.6-1.4 1.2-1.6 1.3-.8.2.6-.9.8-1.9.4-2.3-.4-.4-.8-1.2-.8-1.7-.1-.5-.3-1.1-.4-1.4-.1-.3-.3-.8-.4-1.3 0-.4-1.1-1.8-2.4-3.2-1.2-1.3-2.2-2.8-2.2-3.2 0-.5-.3-.7-.8-.4-.4.2-.8-.9-.9-2.6 0-2 .2-2.6.7-1.7.5.7.6 1.7.4 2.1-.3.5.2 1.1 1 1.4.9.3 1.3 1 1 1.5-.3.5.1.6.9.3s1.8-.1 2.2.5c.3.6.1 1.1-.5 1.1s-.8.4-.5 1c.3.5 1 1 1.5 1 1.4 0 .5-3.2-1.3-4.5-.9-.7-1.4-1.5-1-1.9.4-.4-.1-.4-1.2 0-1.8.7-1.9.6-.5-1.1.8-1 1-1.6.4-1.2-.7.4-1.5 0-1.8-.9-.5-1.3-.9-1.4-2-.5-1.8 1.5-3.4-.6-1.7-2.2.9-.9 1-.7.5.8-.4 1.1-.4 1.7 0 1.4 1.2-1.1 1.5-4.8.4-5.5-.7-.4-.8-.2-.4.4 1 1.6-.7 1.5-2.3-.1-1.1-1-1.3-1-.7 0 .4.7.3 1.3-.3 1.3-.5 0-.8-1.3-.6-3 .2-1.6-.1-3.3-.7-3.6-.7-.4-.8-.2-.4.4.4.7.1 1.2-.6 1.2-.9 0-.9.3.2 1 1 .6 1.1 1 .3 1-.7 0-1.6.1-2 .2-.3.2-.7-.5-.9-1.5-.1-.9.2-1.5.7-1.1.5.3.9-.2.9-1 0-.9.4-1.6.8-1.6.5 0 .9-.7.9-1.6 0-1.2-.5-1-1.8.7-1.5 2-2 2.2-3.1 1.1s-1-1.2.4-.7c1.2.5 1.6.2 1.4-1.2-.2-1 0-2 .5-2.3.4-.3.4-1.2-.1-2-.8-1.3-1-1.2-1 .2 0 1-.5 1.8-1.1 1.8-.7 0-.9-.9-.6-2.1.3-1.2.3-1.8 0-1.5-1 .9-3.2-1.4-2.7-2.8.3-.7-.3-1.9-1.3-2.7-1.6-1.2-1.7-1.2-.6.2.7.8 1.1 2.5.8 3.8-.2 1.4 0 1.9.7 1.5.7-.5.8-.2.3.6-.6.9-.4 1.1.5.5.9-.5 1.1-.4.6.3-.4.6.2 1.7 1.3 2.4 1.9 1.1 1.8 1.2-.6 2.5-3.3 1.7-4.2 1.7-1.8-.1 1.9-1.4 1.9-1.5.1-3.5-1-1.1-2.2-1.8-2.6-1.6-.4.3-1.4-.3-2.1-1.3-1.3-1.5-1.2-1.6.3-.4.9.8 1.9.9 2.2.4.5-.9-1.7-2.4-3.8-2.6-.5-.1-1.1-.8-1.3-1.6-.4-1.3-.3-1.3.6 0 .6.8 1.1 1.1 1.1.6 0-.6.5-.5 1.2.2 2 2 2.9 1.3 1.5-1.1-.8-1.2-1.3-3.2-1.2-4.4.2-1.9-.1-2.1-1.6-1.3-1.2.7-2 .6-2.4-.1-.5-.6-1.2-.4-2.1.8-1.3 1.7-1.4 1.7-.7-.1.4-1.1.2-1.7-.3-1.3-.6.3-1.6.1-2.4-.5-1.2-.8-1.2-.9.2-.4 2.2.7 3.4-1.2 1.8-2.7-1-.9-1.1-.9-.6 0 .5.9.2 1.1-.8.7-.8-.3-1.7-1.2-2-2-.3-.9-1-1.2-1.6-.9-1.6 1-1.1-.1.7-1.6 1.4-1.2 1.6-1.2.8 0-.6 1-.4 1.2.5.6s1.1-.4.5.5c-.6.9-.4 1.1.5.5.8-.5 1.1-.4.7.1-.3.5.2 1 1.2 1 .9 0 1.7-.8 1.7-1.8 0-1.1-.4-1.4-1.2-.7-1.3 1.1-4.8-2.3-3.7-3.7.4-.5.1-.3-.7.3-2.4 2.1-3.4 1.5-1.4-.8 1.9-2.2 1.9-2.2-.3-.8-1.3.8-2.3 1.7-2.3 2.1 0 .5-.5.8-1.2.8-.6 0-.1-1.1 1.2-2.5s2-2.8 1.7-3.2c-.4-.3-.7-.1-.7.5 0 .7-.7 1.2-1.5 1.2s-1.5.5-1.5 1.2c0 .6-.2.9-.5.6-1-.9.7-3.8 1.8-3.1.6.4.7.1.2-.6-.5-.9-1.4-.6-3.3 1.1-1.5 1.3-2 1.5-1.3.5 1.2-1.5.9-2.1-1.1-1.8-1.5.2-.8-1.1 1.5-3 1.3-1.2 1.6-1.7.6-1.3-1.7.5-3.4-2-2.3-3.7 1-1.8-2.6-2.1-5.1-.5-1.4.9-2.4 1.3-2.3.9.1-.4-.6-2.2-1.5-4-1.8-3.4-2.3-5.8-.7-3.3.6.9 1 1 1 .3 0-.6-.4-1.4-.9-1.8-.6-.3-.8-1.4-.6-2.5.2-1.2 0-1.8-.6-1.5-.5.4-.7 1.1-.4 1.6.4.5-.1 1.2-1 1.5-1 .4-1.2 1-.6 1.8s.6 1.7-.1 2.6c-.8 1.3-.9 1.2-.5-.2.8-2.3-.3-3-2.2-1.5-1.4 1-1.4 1-.3-.4 1.5-2-.2-3.8-3.1-3.4-.9.2-1.5-.1-1.1-.6.3-.5.9-.7 1.4-.4 1 .6 2-.7 2.5-3.5.2-1.1 0-2-.6-2-.8 0-1.3 1.4-1 3.2 0 .4-.6.5-1.5.1-1-.4-1.2-.9-.5-1.6.6-.6.6-1.8.1-3.2-.5-1.3-.7-2.6-.4-2.9.2-.3.1-.4-.3-.1-.3.3-1.1.1-1.7-.5-.8-.6-1.6-.2-2.4 1.1-.7 1.1-.8 1.9-.2 1.9.5 0 1-.5 1-1.1 0-.6.5-.9 1.2-.7 1.4.5 3.1 4.8 1.8 4.8-.6 0-1-.7-1-1.5 0-1-.9-1.3-2.8-1-1.9.2-2.9-.1-2.9-1 0-.8.4-1.2.9-.9.4.3.7-.7.7-2.3-.1-1.8-.3-2.2-.6-1-.3 1-1.1 1.6-1.8 1.4-.7-.3-1.9 0-2.6.6-1.1 1-1.1.9 0-.6.9-1.1 1-1.7.2-1.7-.6 0-1.1-.5-1.1-1.2 0-.6.9-.3 2 .7s2 1.5 2 1.2c0-1.1-4.4-5.2-5.2-4.9-.8.2-1.2-1.5-.8-3.3.1-.5-.2-.6-.7-.2-1.1 1.2-1.1 3 .2 4 .6.5.4.7-.5.4-.8-.2-1.4-1-1.2-1.6.2-.9-.8-1.4-2.8-1.3-.3 0-1.1-.6-1.8-1.4-1.5-1.6-.8-1.8 1.8-.4 1.3.7 2.1.7 2.6-.2.4-.6.3-.8-.3-.5-1.3.8-2.6-2-1.7-3.6.3-.7-.1-.4-.9.5-2 2.5-5.1 2.4-4.4-.2.3-1.1.1-2.3-.4-2.6-.5-.3-.7-1-.4-1.5.3-.5-.1-.6-1-.2-1 .3-2.1 0-2.7-.8-.8-1.1-.9-1-.4.4.3 1.1.2 1.6-.4 1.2-.6-.3-1-.1-1 .4 0 .6-.5 1.1-1.2 1.1-.6 0-.8-.3-.5-.7.4-.3-.5-1.7-1.9-3-1.4-1.2-2.1-2.3-1.5-2.3.5 0 1.3.5 1.6 1 .4.6 1.1.7 1.7.4.6-.4.8-.2.4.4-.3.6-.2 1.3.4 1.7.5.3 1-.3 1-1.5 0-1.1-.6-2-1.2-1.8-2.4.4-5.8-2.1-5.2-4 .5-1.3.4-1.4-.4-.3-.6.8-.8 2-.5 2.7.6 1.5-1.3 2.8-2.2 1.4-.4-.6-1.1-.7-1.7-.4-.7.4-.8.2-.4-.5.6-.9 1.1-.9 2.2 0 2.1 1.7 1.8-.6-.3-2.7-1.7-1.7-1.7-1.8.2-1.1l2 .7-2-1.5c-1.1-.9-2.8-2.2-3.8-3-1.2-1-2.3-1.3-3.4-.7-1.1.6-1.2 1.1-.4 1.6.6.4 1.1.2 1.1-.3 0-.8.7-.7 2 .1 1.4.9 1.6 1.5.7 2.1-.8.6-.7.7.4.4 1.3-.4 1.5-.1 1.2 1.4-.3 1.1-.9 2.2-1.4 2.5-.5.3-.6-.1-.3-.9s0-1.8-.5-2.2c-.6-.3-.9-1.1-.5-1.6.3-.6-.5-.8-2-.5-1.6.3-2.5 0-2.3-.7.1-.7-.7-1.1-1.8-1-1.1.1-1.4 0-.7-.3.6-.3 1.2-1.2 1.2-2s.5-1.4 1.1-1.4c.6 0 .9.7.5 1.5-.8 2.1.1 1.9 1.4-.4.8-1.7.7-1.9-1.5-1.6-2.6.2-3.4-1-1.2-1.8.6-.3.2-.4-1-.4-1.7.1-2 .5-1.2 1.8 1.5 2.9 1 3-1.6.3-2.5-2.5-3.3-4-1.5-2.9.6.3 1 .1 1-.5s.5-.8 1.2-.4.8.3.4-.4c-.4-.6-1.2-.9-1.9-.6-.7.2-2.4-.7-3.6-2-1.3-1.4-2.7-2.3-3.2-2.1-.4.3-1 .1-1.4-.4-.3-.6-1.3-.7-2.2-.4-1 .4-1.4.2-1-.4.4-.6 0-1.6-.8-2.3-1.2-1-1.5-1-1.5.1 0 1.2-.2 1.2-.9.1-.7-1.1-1-1-1.5.3-.9 2.4-.7 3.2.4 1.5.5-.8 1-1 1-.4 0 2.4-1.4 2.2-4.1-.7-3.1-3.3-3.9-5-1.4-2.9 1 .9 1.5.9 1.5.1 0-.6-.5-1.1-1.1-1.1-.5 0-.7-.6-.3-1.3.6-1 .4-1-.7 0-.7.7-2.4 1.3-3.7 1.3-1.5 0-2.1.4-1.6 1.2.5.7.3.8-.5.4-.7-.5-1-1.1-.7-1.4.3-.3.1-1.1-.5-1.8-.7-.8-.6-1.4.2-2 .7-.4.9-.3.6.3-.8 1.3 1.8 2.4 3.8 1.7.8-.4 1.5-1.1 1.5-1.7 0-.7-.4-.7-1.2.1-1.7 1.7-2.8 1.5-2.8-.4 0-1.1-.6-1.4-2-.9-1.9.6-2.5-.3-2.1-2.8.1-.5-.4-.5-1-.1-.8.5-1 .2-.6-.8.4-1.1.1-1.5-1.1-1.3-.9.2-2 .4-2.4.4-.5.1-.8.9-.8 1.8 0 1.5.1 1.5 1.3-.1 1.2-1.7 1.4-1.7 2-.2.4.9.1 1.6-.6 1.7-.7 0-1.9.2-2.8.4-1.6.3-2-2.7-.6-4.1.4-.4.7-1.1.7-1.6 0-.4-.9.1-2 1.2-2.1 2.1-4 1.9-4-.5 0-.7.6-1.6 1.3-1.8.6-.3-.3-.4-2.1-.2-2.6.3-3.2 0-2.8-1 .3-.8 0-1.7-.6-2.1-.7-.4-.8-.3-.4.5.4.6 0 1.4-1 1.8-1 .4-1.9.2-2.2-.5-.2-.7-.8-1.2-1.3-1.2-.6 0-.6.8.1 1.9.7 1.4.7 2.2-.2 2.7-.6.4-.8.3-.5-.3.3-.5-.1-2-.9-3.2-1.3-1.7-1.9-1.9-3-1-.7.6-1.1 1.6-.7 2.2.4.6.1.7-.6.2-1-.5-.8-1.3.8-2.9 1.9-1.8 2.3-1.9 3.1-.6.7 1.2.9 1 .7-.7-.1-2.2-.1-2.2-3.3-.4-3.1 1.9-3.2 1.9-6-.5-3.4-2.8-5.2-3.1-3.3-.7 1.2 1.6 1.2 1.7-.2.6-.9-.7-1.9-1-2.2-.6-.4.3-.7.1-.7-.5 0-.7.5-1.2 1.1-1.2.5 0 .7-.5.3-1.1-.4-.7-1-.7-1.6-.1-1.4 1.4-3.8.4-3.8-1.5 0-1.3-.2-1.3-1.7-.2-1.4 1.2-1.6 1.2-.8 0 .6-1.1.4-1.3-.7-.9-.8.4-1.5 0-1.5-.7 0-1 .5-1.1 1.9-.4 1 .5 1.8.6 1.8.2 0-.4.7.1 1.5 1.1.8 1.1 1.5 1.5 1.5.9 0-.7-.7-1.8-1.5-2.6s-1.2-1.7-1-1.9c.3-.3-.2-.5-1-.5s-1.1.5-.8 1c.3.5 0 .7-.8.5-.8-.3-1.3-1.2-1.1-1.9.2-.8-.8-.3-2.2 1-1.4 1.3-2.3 2.8-1.9 3.4.4.6.1.7-.6.3-.9-.6-.8-1.3.5-2.7 1.6-1.8 1.6-1.9 0-1.9-1 0-1.4-.5-1.1-1.1.4-.6 1.4-.8 2.2-.4 1.3.4 1.4.3.3-1-1.3-1.6-3.5-2.1-2.5-.6.3.5.1 1.2-.4 1.6-.6.3-.7 1.3-.4 2.2.5 1.3.2 1.5-1.2 1-.9-.4-2.3-.3-3 .3-.8.7-1.2.5-1.2-.5 0-.8.4-1.2.9-.9.4.3.8 0 .8-.7 0-.9.3-.9 1.4 0 1.2 1 1.3.9.9-.8-.4-1.6-.9-1.8-2.9-1.1-1.3.5-2.4.7-2.4.3 0-.4-.7.2-1.5 1.3-1.4 1.8-1.4 1.7-.4-.9.7-1.5 1.6-2.7 2.1-2.7s.6.4.3 1 .1.7 1 .4c2-.8 1.2-1.7-1.8-1.9-1.3-.1-2.2-.8-2.1-1.8.1-.9-.4-1.3-1.2-1-1 .4-1.1.9-.4 1.8.5.6.6 1.6.2 2-.4.5 0 .5.8 0s1.2-.4.7 0c-1.2 1.4-3.6 1.4-3.1.1.3-.7-.2-1.9-1.1-2.6-1.1-.9-1.3-1.5-.5-2s.6-.9-.5-1.3c-.9-.4-1.3-.3-1 .3.3.6.1 1-.4 1-.6 0-1.1.5-1.1 1.1 0 .5.5.7 1.2.3.7-.5.8-.3.3.6-.5.8-.4 1.1.3.6.6-.3 1.3-.2 1.6.3.4.5-.2.8-1.1.7-1-.2-2.1.4-2.5 1.3-.6 1.4-.7 1.3-.7-.2-.1-1-.5-1.6-1-1.3-1.2.8-2.5-2.5-3.3-8.1-.1-.7-.5-1-1-.7-.4.3-.4 1.4.2 2.4 1.4 2.7 1.3 3-1.6 3-1.4 0-2.2.4-1.9 1 .4.6-.1.7-1.1.3-1.1-.4-1.3-.8-.6-1.1.7-.2 1-.8.7-1.2-.3-.5.3-.7 1.4-.5 1.5.3 1.8 0 1.4-1.3-.4-1-.8-1.2-1.1-.4-.2.7-.7 1-1.2.7-.5-.3-1.6.2-2.5 1.2-1.4 1.4-1.8 1.4-2.6.2-.5-.8-.9-1.9-.9-2.4 0-.6.4-.4.9.4.8 1.2 1.2 1.2 2.5.2.9-.8 1.6-1.9 1.6-2.5 0-.6-.7-.3-1.4.7-.9 1.1-1.7 1.4-2 .8-.4-.6-1.4-.7-2.3-.4-1.2.5-1.4.3-.8-.8.7-1.2.6-1.2-.7-.1-1 .8-1.9.9-2.2.3-.3-.5 0-1.1.6-1.4 1-.4 1-.7 0-1.8-1.1-1.2-1.3-1.2-1 0 .2.7-.3 1.6-1.1 1.9-.9.3-1.1 0-.6-.9.6-1.1.5-1.1-.5-.2-.7.6-2 .9-2.9.6-1.4-.4-1.4-.3-.1.7 1.2.9 1.1 1-.9.5-1.6-.5-2.1-.4-1.7.4.5.7.1.9-.8.5-.9-.3-1.6-1-1.6-1.6 0-.5.4-.7.9-.4.5.3 1.4-.1 2.1-.9.9-1 .9-1.5.1-1.5-.6 0-1.1.5-1.1 1.1 0 .8-.5.8-1.5-.1-.8-.7-1.5-.9-1.5-.4s-.5.2-1-.6-1-1.1-1-.5c-.1 2.7-1.7 3.7-4 2.5-1.8-1-2.4-.9-3.1.1-.4.7-1.2 1-1.6.5-.4-.5-.2-1.1.5-1.3.6-.3.9-1 .6-1.5-.5-.7-.2-.8.6-.3 2 1.2 6 1.5 6 .3 0-.5-1-.6-2.2-.2-2 .6-2.1.5-.9-1 .9-1 1-1.6.2-1.6-.6 0-1.1.4-1.1 1 0 1.4-4.3.6-4.8-.8-.2-.8.3-1 1.5-.6 1.5.5 1.5.4.3-.5-1.2-.8-1.9-.5-3.1 1.1-1.5 1.9-1.7 2-2.2.5-.4-1.6-.5-1.5-.3 0 .1 1.2.9 1.8 2.4 1.7 2.5-.2 2.1.8-.4 1.2-.9.1-2.4-.6-3.5-1.7-1-1-1.4-1.9-.9-1.9.6 0 1-.5 1-1.1 0-.8-.5-.8-1.5.1-1.1.9-1.2 1.6-.5 2.5.8 1 .8 1.5-.1 2.1-.7.4-.9.3-.6-.3.6-.9-3.2-4.4-4.4-4-1.2.4-3.9-2.6-3.2-3.6.3-.6.1-.7-.5-.3-.9.5-.7 1.5.6 3.4.9 1.4 1.2 2.3.5 1.9-.6-.4-1.3-.3-1.5.2-.1.5-1 .2-1.8-.7-1.3-1.4-1.2-1.5.3-.9 2.4.9 2.1 0-.4-1.4-1.7-.8-2-.8-1.4.1.5.9.1 1-1.6.6-2.3-.7-2.3-.6-.5.8 1.8 1.4 1.8 1.5-.2 1.3-1.1 0-2-.6-1.9-1.1.2-.9-.2-1.1-3.4-1.5-.5 0-.7-.6-.3-1.2.4-.8.9-.7 1.5.2.6 1 .8.7.6-.9-.2-2.7-.8-2.8-2.5-.2-1.5 2.4-3.2 2.6-3.2.4 0-.8.5-1.2 1-.9.6.3 1 .2 1-.4 0-.5-.9-.9-2-.8-1.1.1-2 .5-2 .9s-.3.7-.7.7c-2.2-.4-4.4.2-3.9.9.3.5-.6.8-1.9.8-3.1-.2-3.3-2.1-.3-2.1 1.2 0 2.3-.7 2.5-1.5.4-1.2.3-1.2-.5-.2-1.3 1.9-1.7 1.9-4-.1-2.6-2.4-4.7-1.4-3.1 1.5.7 1.2.7 1.8.1 1.4-.6-.3-1.2-.3-1.5.1-.2.5-.3.3-.1-.2.1-.6-.4-1.9-1.2-3-.8-1-1.4-1.3-1.4-.7 0 1.9-2 1.4-2.1-.6 0-1.4-.2-1.4-.9.3-.5 1.1-.9 1.4-.9.6-.1-1-.4-1.1-1.4-.2-1 .8-1.7.7-2.5-.1-.7-.7-1.2-.8-1.2-.3 0 .6-.5.3-1.1-.5-.9-1.3-1-1.3-.6 0 .2.8 1 1.4 1.6 1.2.7-.1 1 .1.7.6-.3.5 1 .8 2.9.7 1.9-.2 3.5.1 3.5.6s-.5.9-1.1.9c-.5 0-.7.5-.3 1.2.4.7.3.8-.5.4-.6-.4-.9-1.2-.6-1.7 1.1-1.6-.7-1-2.1.8-1.3 1.7-1.4 1.7-.7-.2.6-1.8.5-1.9-1.2-.5-1 .8-1.6 1-1.2.3.5-.7-.1-1.6-1.3-2.3-1.1-.6-2-.7-2-.3 0 .4-.7-.2-1.5-1.3-1.3-1.6-1.4-1.6-.9-.2.4 1.3.1 1.8-1.1 1.8-.9 0-1.3-.5-1-1 .3-.6.2-1-.2-1-.5 0-1.4 1-2.2 2.1-1.2 2-1.1 2.1.6 1.5 1.4-.6 1.5-.5.6.5-1 1-1.6.9-2.9-.2-.9-.8-1.8-1.2-1.8-1-.1.3-.9 0-2-.6-1.2-.7-1.5-1.3-.7-1.7.6-.4 1.1-.3 1.1.1 0 .5 1.1.9 2.5.9s2.5-.4 2.5-.9-.6-.7-1.2-.4c-.7.2-2.1 0-3-.4-1.1-.6-2.2-.4-3.2.6-1.7 1.7-3 2-2.1.5.3-.6.1-1-.4-1-.6 0-1.1.3-1.1.8 0 .4-.9 1.3-2.1 2-1.2.8-1.8.9-1.4.3.6-1.1-.9-1.6-3-1.1-.5.1-1.6.3-2.3.3-.7 0-1.1.6-.8 1.3.3.8.2 1.6-.3 1.8-.4.3-.8 0-.8-.7s-.4-2.1-.8-3.2c-.5-1.6-.5-1.7.4-.5.7.9 1.1 1 1.1.3 0-1.8-2.1-2.7-3.1-1.2-.4.8-.3 2 .4 2.9 1 1.2.9 1.3-.3.4-.8-.5-2.5-.9-3.7-.8-1.9.1-2.1-.2-1.2-1.7.5-1.1 1.5-1.9 2.1-1.9.7 0 .6.5-.2 1.5-.9 1-.9 1.5-.1 1.5.6 0 1.1-.5 1.1-1 0-.6.1-1.3.3-1.8.1-.4-1-.7-2.4-.7-1.7-.1-2.5.4-2.2 1.1.2.7 0 1.5-.6 1.8-.6.4-.8 1.3-.5 2 .3.8.1 1.7-.4 2-.5.3-.9-.2-.8-1 0-.9-.7-1.8-1.6-1.9-1-.2-1.8.1-1.8.5 0 1-6 .8-7.7-.3-.7-.4-1-1.4-.7-2.1.7-1.8-1.2-3-2.2-1.5zm73.1 2.9c.3.5.2 1-.4 1-.5 0-1.3-.5-1.6-1-.3-.6-.2-1 .4-1 .5 0 1.3.4 1.6 1zm-76.8 1.3c.2.3-.3.7-1.1 1-.8.3-2 0-2.6-.8-1-1.2-.8-1.3 1-1 1.3.2 2.5.6 2.7.8zm3 .2c0 .8-.4 1.2-.9.9-.5-.3-.6-1-.3-1.5.9-1.3 1.2-1.1 1.2.6zm3.3 1c1.4 1.9 1.4 1.9-.2.6-1-.7-1.8-1.8-1.8-2.4 0-.6.1-.8.3-.6.1.2.9 1.3 1.7 2.4zm53-.8c0 .2-.8.3-1.8.1-1.1-.2-2.7.4-3.8 1.2-1.8 1.4-1.9 1.4-.1-.7 1.1-1.3 2.5-1.9 3.8-1.6 1 .3 1.9.7 1.9 1zm11.7.1c0 1-.6 1.9-1.3 1.9-.9 0-.9-.5-.1-1.9.7-1 1.3-1.8 1.4-1.8.1 0 .1.8 0 1.8zm-31.7.7c-.7.8-1.7 1.5-2.3 1.5-.6 0-.2-.7.9-1.5 2.5-1.9 3-1.9 1.4 0zm3.1.8c-1 .9-1.1.8-.5-.6.3-1 .9-1.5 1.2-1.2.3.3 0 1.1-.7 1.8zm-17.1-.7c0 .8-1.9 1.3-2.4.6-.3-.5.1-.9.9-.9s1.5.2 1.5.3zm62 .5c0 .9-3.1 2.1-3.8 1.4-.3-.3 0-.5.7-.5s1-.4.7-.8c-.3-.5.1-.9.9-.9s1.5.4 1.5.8zm-96.5 1.8c-.3.2-1.6.6-2.8.8-1.5.2-1.8 0-.9-.5 1.4-.9 4.5-1.2 3.7-.3zm85.5.1c0 .5-.2 1-.4 1-.3 0-.8-.5-1.1-1-.3-.6-.1-1 .4-1 .6 0 1.1.4 1.1 1zm15.4-.2c.3.5-.1.9-.9.9s-1.2-.4-.9-.9c.3-.4.7-.8.9-.8.2 0 .6.4.9.8zm16.7 1.9c.8 1 .9 1.4.2 1-.6-.4-1.4-.3-1.8.3-.3.5-1.2 1-1.8 1-.7 0-.4-.5.6-1.1.9-.6 1.5-1.4 1.2-2-1-1.5.2-1 1.6.8zm-150.7.5c-.3.4-.9.8-1.5.8-.5 0-.9-.4-.9-.8 0-.5.7-.9 1.5-.9s1.2.4.9.9zm15.2 0c.4.7.3.8-.5.4-.6-.4-2-.2-2.9.6-1.5 1.2-1.6 1.1-.3-.5 1.6-2 2.7-2.2 3.7-.5zm4.8 0c-.3.4-1.1.5-1.9.1-2.1-.7-1.9-1.2.4-1 1.1 0 1.8.5 1.5.9zm8.1-.2c.3.5.1 1-.4 1-.6 0-1.1-.5-1.1-1 0-.6.2-1 .4-1 .3 0 .8.4 1.1 1zm-22.5 1.6c0 .2-.7.4-1.5.4s-1.5-.4-1.5-1c0-.5.7-.7 1.5-.4.8.4 1.5.8 1.5 1zm-15 1.8c0 .3-.4.8-1 1.1-.5.3-1 .1-1-.4 0-.6.5-1.1 1-1.1.6 0 1 .2 1 .4zm184 .2c0 .8-1.9 1.3-2.4.6-.3-.5.1-.9.9-.9s1.5.2 1.5.3zm12.5 3.5c.6-.1.4.3-.3 1.1-1 1-1.4 1-2.1 0-.4-.7-1.4-1.1-2.2-.9-.8.2-1.1.2-.6 0 .4-.3.4-.9.1-1.5-.4-.5.4-.4 1.7.3 1.3.7 2.9 1.2 3.4 1zm-223.9 1.1c0 1.9-.1 1.9-1.4.1-1.4-1.7-1.4-1.7-1 .3.3 1.3 0 2.1-.8 2.1-1.7 0-1.7-.3-.5-2.6 1.3-2.3 3.7-2.3 3.7.1zm15.2.3c-.3.3-.9-.2-1.2-1.2-.6-1.4-.5-1.5.5-.6.7.7 1 1.5.7 1.8zm194.2-.4c0 .5-.4.9-.8.9-.5 0-.9-.7-.9-1.5s.4-1.2.9-.9c.4.3.8.9.8 1.5zm16.4 1.7c.3.5-.1.9-.9.9s-1.2-.4-.9-.9c.3-.4.7-.8.9-.8.2 0 .6.4.9.8zm11.6 4.4c0 .6-.6.5-1.5-.2-.8-.7-1.5-1.4-1.5-1.6 0-.2.7-.1 1.5.2.8.4 1.5 1.1 1.5 1.6zm-259.3 1.5c0 1.8-.1 2.1-.4.9-.5-1.9-.6-1.8-2.3.4-1.3 1.7-1.9 2-2.5 1-.6-.9-.4-1.1.4-.6.8.6 1.1.2.9-1-.2-1 .2-1.9.9-1.9.6 0 1.5-.3 1.9-.8 1-1 1-1 1.1 2zm8.3-2.3c0 .2-.7.6-1.5 1-.8.3-1.5.1-1.5-.4 0-.6.7-1 1.5-1s1.5.2 1.5.4zm-4.9 2.9c-1 .9-1.1.8-.5-.6.3-1 .9-1.5 1.2-1.2.3.3 0 1.1-.7 1.8zm-23.5 5.6c1.6-1.3 3 .9 1.5 2.4-.8.8-1.6.5-3.1-1.1-1.1-1.2-1.5-1.8-.8-1.2.7.6 1.6.6 2.4-.1zm12.9 0c.3.5.2 1.2-.3 1.5-.5.3-.9-.1-.9-.9 0-1.7.3-1.9 1.2-.6zm-25.5 6.2c0 .5-.3.8-.7.8-2.1-.3-3.3.2-2.7 1.3.4.6.3.8-.4.4-.5-.3-2.5.6-4.4 2.1-1.8 1.5-2.7 2.1-2 1.2 1-1.3 1-1.8-.1-2.8-.8-.6-1.7-.7-2.2-.3-.4.4-.6 0-.3-.8.3-1 1.8-1.5 4.6-1.5 2.2 0 4.6-.5 5.3-1.2 1.3-1.3 2.9-.8 2.9.8zm352.3 8.4c.3.5-.5 1-1.8 1-1.2 0-2.2-.5-2.2-1.2 0-1.4 3.5-1.3 4 .2zm-372.8 3.4c.3.5.2 1.2-.3 1.5-.5.3-.9-.1-.9-.9 0-1.7.3-1.9 1.2-.6zm374.9-.1c.2.4-.4.8-1.4.8-1 0-1.6-.4-1.4-.8.3-.4.9-.8 1.4-.8.5 0 1.1.4 1.4.8zm11.6 4.4c0 .5-.5.8-1.1.8-.5 0-.7-.5-.4-1 .3-.6-.2-1-1.2-1-1.5 0-1.6-.2-.3-1 1.4-.8 2.9.3 3 2.2zm-6-.8c0 .2-.7.7-1.6 1-.8.3-1.2.2-.9-.4.6-1 2.5-1.4 2.5-.6zm-400.8 4.1c.3-.3 1.1.1 1.7.9.8 1 .9 1.6.1 2.1-.6.4-1 .3-.9-.2.4-2-.2-2.4-1.8-1.2-1.1 1-1.4 1-.9.1.4-.7.2-1.2-.4-1.2-.8 0-1 1-.6 2.7.3 1.6.3 2.2 0 1.5-.5-1-.9-1-2-.1-1.8 1.5-3.1.4-1.6-1.4.7-.8.8-1.8.4-2.2-.4-.5-.1-.5.6-.1s1.5.1 1.8-.9c.5-1.1 1-1.3 1.9-.5.6.5 1.4.8 1.7.5zm5.8.5c0 .5-.2 1-.4 1-.3 0-.8-.5-1.1-1-.3-.6-.1-1 .4-1 .6 0 1.1.4 1.1 1zm410.9 3.3c.8 1 .7 1.4-.2 1.4-.8 0-1.4-.6-1.4-1.4 0-.7.1-1.3.2-1.3.2 0 .8.6 1.4 1.3zm7.9.9c-.2.7.4 1.4 1.2 1.4 1.9.2 2.8.3 3.8.6 1.2.4 5.2 4.1 4.8 4.5-.5.5-5.6-1.9-5.6-2.6 0-.4-.9-.7-1.9-.8-1.1-.1-1.9.4-1.7 1 .1.7.1.9-.1.4-.3-.4-1-.4-1.6 0-.7.4-.7.1.1-.9.9-1.1 1-1.8.2-2.3-1.3-.8-1.3-2.5 0-2.5.6 0 .9.6.8 1.2zm-438.3 4.5c-1.1.7-2.8 1.3-3.9 1.3-1.3 0-1.7.3-1 .8.8.5.4 1.3-1.1 2.5-1.3.9-2.6 1.3-2.9.8-.7-1.1 5.2-6.3 6.4-5.6.4.3 1.1-.2 1.4-1.1.3-.8 1.1-1.2 1.7-.8.9.5.6 1.1-.6 2.1zm436.5-2.3c0 .2-.8 1-1.7 1.7-1.6 1.3-1.7 1.2-.4-.4 1.3-1.6 2.1-2.1 2.1-1.3zm6.4 3.4c.3.5-.1.9-.9.9s-1.5-.4-1.5-.9c0-.4.4-.8.9-.8.6 0 1.2.4 1.5.8zm4.6 2.7c0 .2-.9.3-1.9.2-1.1 0-1.8-.5-1.5-.9.4-.6 3.4 0 3.4.7zm2.9 2.8c.8 1 .7 1.4-.2 1.4-.8 0-1.4-.6-1.4-1.4 0-.7.1-1.3.2-1.3.2 0 .8.6 1.4 1.3zm-459.5.5c.3.5-.1.9-.9.9s-1.5-.4-1.5-.9c0-.4.4-.8.9-.8.6 0 1.2.4 1.5.8zm-3.3 5.5c-1 .9-1.1.8-.5-.6.3-1 .9-1.5 1.2-1.2.3.3 0 1.1-.7 1.8zM761 184c0 .5-.2 1-.4 1-.3 0-.8-.5-1.1-1-.3-.6-.1-1 .4-1 .6 0 1.1.4 1.1 1zm10 1.5c0 .1-.7.8-1.5 1.5-1.3 1.1-1.4 1-.8-.6.6-1.7.5-1.7-1-.5-1 .7-1.7.9-1.7.3 0-1.3 2.1-2.1 3.8-1.4.6.2 1.2.5 1.2.7zm-.5 4.5c.3.5.1 1-.4 1-.6 0-1.1-.5-1.1-1 0-.6.2-1 .4-1 .3 0 .8.4 1.1 1zm-524.1 5.6c.3.8.2 1.2-.4.9-.6-.3-1-1-1-1.6 0-1.4.7-1.1 1.4.7zm-3 .6c-.3.5-1 .6-1.5.3-.5-.4-.9-.2-.9.4 0 .6-.7.8-1.5.5-2.1-.9-1.1-2 1.9-2 1.3 0 2.2.4 2 .8zm538.7 1.5c-1.2 2-1.4 1.4-.5-1.2.4-.9.9-1.4 1.1-1.1.3.2 0 1.3-.6 2.3zm10.3 9.9c.3.8.2 1.2-.4.9-.6-.3-1-1-1-1.6 0-1.4.7-1.1 1.4.7zM224.5 212c.3.5.1 1-.4 1-.6 0-1.1-.5-1.1-1 0-.6.2-1 .4-1 .3 0 .8.4 1.1 1zm0 3c.3.5.1 1-.4 1-.6 0-1.1-.5-1.1-1 0-.6.2-1 .4-1 .3 0 .8.4 1.1 1zm-2.8 2.2c-.3.8-.6.5-.6-.6-.1-1.1.2-1.7.5-1.3.3.3.4 1.2.1 1.9zm-2.7 2.3c0 .8-.2 1.5-.4 1.5s-.6-.7-1-1.5c-.3-.8-.1-1.5.4-1.5.6 0 1 .7 1 1.5zm-2 1.6c0 .5-.4.8-.8.5-.5-.3-1.9.4-3 1.5-1.2 1.1-2.2 1.5-2.2 1 0-1 3.9-4.1 5.2-4.1.5 0 .8.5.8 1.1zm596.5 1.9c-.3.5-.1 1.9.6 3.1.6 1.2.7 1.9.1 1.5-.6-.3-1.2-.1-1.4.6-.3.9-.6.9-1.2 0-.4-.7-.2-1.2.3-1.2.6 0 1.1-.4 1.1-.9 0-.6-.9-.8-2-.6-1.7.3-1.9.1-1-1.6.6-1 1.8-1.9 2.6-1.9s1.2.4.9 1zM210 225.6c0 .8-.5 1.2-1 .9-.6-.4-.8-1.1-.5-1.6.9-1.4 1.5-1.1 1.5.7zm3 .8c0 .3-.4.8-1 1.1-.5.3-1 .1-1-.4 0-.6.5-1.1 1-1.1.6 0 1 .2 1 .4zm-10.3 12.1c0 .8-.4 1.2-.9.9-.5-.3-.6-1-.3-1.5.9-1.3 1.2-1.1 1.2.6zm-3.7.6c0 .5-.5.7-1.2.3-.7-.5-.9-.2-.6.7.4 1-.1 1.5-1.3 1.5-1.7 0-1.7-.2-.2-1.8 1.8-2 3.3-2.3 3.3-.7zM835.7 250c-.1 1.4-.4 1.6-1.4.8-.7-.6-1.3-.7-1.3-.4 0 .4-.5.4-1 .1-1.5-.9-.5-2 1.9-2.2 1.4-.1 1.9.4 1.8 1.7zm-654.5 11.7c-.6.2-1 .9-.7 1.3.3.5.2 1.1-.3 1.4-.4.2-.9-.4-.9-1.5-.1-1.2.4-1.9 1.5-1.8 1.1 0 1.2.2.4.6zM851.5 274c-.3.5-1.2 1-1.8 1-.7 0-.6-.4.3-1 1.9-1.2 2.3-1.2 1.5 0zm-681.2 4.5c-.3.9-.8 1.4-1 1.1-.3-.3-.2-.9.2-1.5.9-1.6 1.5-1.3.8.4zM861 292c0 .5-.5 1-1.1 1-.5 0-.7-.5-.4-1 .3-.6.8-1 1.1-1 .2 0 .4.4.4 1zm11 12c0 .5-.5 1-1.1 1-.5 0-.7-.5-.4-1 .3-.6.8-1 1.1-1 .2 0 .4.4.4 1zm-721.8 3.7c-.6.2-.9.9-.6 1.4.3.6 1.2.5 2.2-.3 1.5-1.2 1.6-1.1.3.5-1 1.3-1.7 1.4-2.6.7-.9-.8-1.5-.8-2 0-.3.5-.1 1 .4 1 .6 0 1.1.5 1.1 1.1 0 .8-.5.7-1.5-.1-1.4-1.2-1.4-1.5.1-3.1 1-1.1 2.2-1.9 2.8-1.8.6 0 .6.3-.2.6zm724.7.6c-.2.2-1.1.8-2 1.5-1.2.9-1.6.9-1.6-.1 0-.7.9-1.4 2-1.4 1.1-.1 1.8-.1 1.6 0zm-726 6.3c.3.4-.2.4-1.1.1-1-.3-2-.2-2.3.3-.4.6 0 1 .7 1 .8 0 .7.4-.4 1.1-.9.5-1.6 1.5-1.4 2.2.1.6.1.9-.1.4-.3-.4-.9-.5-1.4-.2-.5.4-.6-.1-.3-.9.3-.9 1.1-1.6 1.8-1.6.6 0 .3-.5-.8-1.1-1.4-.9-1.5-1.3-.6-1.9 1.4-.9 4.9-.5 5.9.6zm-7.7 13.5c.2.2.1.3-.1.2-.2-.2-1 .2-1.8.9-1.1.9-1.1 1.4.4 3.2 1.8 2.1 1.8 2.1-.2.5-1.1-.9-2.7-1.4-3.5-1.2-1.3.4-1.3.3 0-.6.8-.6 1.6-1.5 1.6-2.1.1-.5.2-1.2.3-1.4.1-.5 2.9-.1 3.3.5zm741.8 3.4c0 .8-.3 1.6-.7 1.8-.5.3-.8-.5-.8-1.8s.3-2.1.8-1.8c.4.2.7 1 .7 1.8zm6.5 5.5c-.3.5 0 1.2.6 1.5.5.4.8 1.3.5 2.1-.3.7-.1 1.6.4 1.9 1.3.8 1.3 2.5-.1 2.5-.5 0-.7-.5-.4-1 .3-.6.1-1-.5-1-.7 0-.9-.8-.4-2.2.6-2.1.6-2.2-1.2-.8-1.8 1.4-1.8 1.4-.4-.4 1.4-1.8 1.3-1.9-.2-1.3-1 .3-1.8.2-1.8-.3 0-.6.7-1 1.6-1 .9 0 1.2-.5.8-1.2-.4-.7-.3-.8.5-.4.6.4.9 1.1.6 1.6zm-755.2 8.5c-.3.9-.8 1.4-1 1.1-.3-.3-.2-.9.2-1.5.9-1.6 1.5-1.3.8.4zm-2.3 1.1c0 .8-1.9 1.3-2.4.6-.3-.5.1-.9.9-.9s1.5.2 1.5.3zm765 4c0 .2-.9.4-2.1.4-1.1 0-1.8-.4-1.4-1 .5-.8 3.5-.3 3.5.6zm-765 .8c0 .3-.4.8-1 1.1-.5.3-1 .1-1-.4 0-.6.5-1.1 1-1.1.6 0 1 .2 1 .4zm769.3 14c1.5 1.5 2.7 2.9 2.7 3 0 .1-1.4.2-3 .1-2.5 0-2.8-.2-1.5-1.1.8-.6 1.2-1.4.8-1.7-.3-.4-1.1-.2-1.8.3-.8.7-1.2.5-1.2-.5 0-.8.4-1.2.9-.9 1.5.9.8-.8-1-2.4-1-1-1.1-1.3-.2-.7.8.5 2.7 2.3 4.3 3.9zm-779.2.4c-.7 1.3-.7 2.2.1 3 1 1 .6 1-3.1.3-.2-.1.2-.8.9-1.6s.9-1.5.5-1.5-.2-.7.5-1.5c1.7-2 2.4-1.2 1.1 1.3zm778.7 8.7c-.3.3-.9-.2-1.2-1.2-.6-1.4-.5-1.5.5-.6.7.7 1 1.5.7 1.8zM123 374c0 .5-.5 1-1.1 1-.5 0-.7-.5-.4-1 .3-.6.8-1 1.1-1 .2 0 .4.4.4 1zm783.5 8.9c-.3.7.2 2.2 1.1 3.2 1.4 1.6 1.4 1.8-.3 2.8-1.6.8-1.9.6-2-1.2-.1-4.7-.3-5.8-1.2-5.3-.4.3-.7-.5-.6-1.7.4-3.3.4-3.4 2.1-1.2.8 1.1 1.2 2.6.9 3.4zm-786 5.9c-.3.3-1.1 0-1.8-.7-.9-1-.8-1.1.6-.5 1 .3 1.5.9 1.2 1.2zm788.7 3.4c-.6.6-1.6.7-2.2.3-.9-.6-.9-.9.1-1.6 1.7-1 3.4 0 2.1 1.3zM115 396c-.7.4-.9 1.3-.6 1.9 1.1 1.7.2 1.3-1.6-.8-1.5-1.7-1.4-1.9.9-1.9 1.6 0 2.1.3 1.3.8zm-2 6.6c0 .2-.7.4-1.5.4s-1.5-.4-1.5-1c0-.5.7-.7 1.5-.4.8.4 1.5.8 1.5 1zm798.2 1.4c1 1 1.4 2.2.9 2.4-.4.3-1.3-.6-1.9-1.9-1.4-3-1.2-3.1 1-.5zm-801.9 4.4c.4 1 .1 1.3-.8.9-.8-.3-1.2-.9-.9-1.4.7-1.2 1.1-1.1 1.7.5zm.8 4.9c-1 .9-1.1.8-.5-.6.3-1 .9-1.5 1.2-1.2.3.3 0 1.1-.7 1.8zm806.4 2.7c.3.5-.1 1-1 1s-1.3-.5-1-1c.3-.6.8-1 1-1 .2 0 .7.4 1 1zM108 423.5c1.1-.2 1.8 0 1.5.5-1 1.7-5.5-.2-5.5-2.3 0-.7.5-.4 1 .5.6 1 1.9 1.5 3 1.3zm-1.7 7.2c-.5 1.2-.3 1.4.8.8.8-.5 1.1-.4.6 0-1.2 1.3-3.6 1.5-4.4.3-.3-.6-.1-.8.4-.5.6.4 1.3 0 1.7-.8.3-.8.8-1.5 1-1.5.3 0 .2.7-.1 1.7zm-2.6 10.2c1 1.6.9 2.2-.5 3.3-1.5 1.2-1.6 1.1-.3-.4 1.1-1.5 1.1-1.9-.2-2.4-.9-.3-1.8-1.2-2.1-1.9-.7-2 1.7-.9 3.1 1.4zm818.6 5.8c-.7.2-1.9.2-2.5 0-.7-.3-.2-.5 1.2-.5s1.9.2 1.3.5zm.4 3c0 .7-.4 1.3-.7 1.3-.4 0-1.2-.6-1.8-1.3-.8-1-.6-1.3.7-1.3 1 0 1.8.6 1.8 1.3zm-.2 18.3c.3.5.1 1-.4 1-.6 0-1.1-.5-1.1-1 0-.6.2-1 .4-1 .3 0 .8.4 1.1 1zm1.5 3c-.8.5-1.9 1-2.5 1-.5 0-.3-.5.5-1s2-1 2.5-1c.6 0 .3.5-.5 1zm1.6 3.5c.3 2.1-1.4 2.9-3.2 1.4-1.4-1.2-1.4-1.4.2-2.6 1.9-1.4 2.7-1.1 3 1.2zM99 492c0 .5-.2 1-.4 1-.3 0-.8-.5-1.1-1-.3-.6-.1-1 .4-1 .6 0 1.1.4 1.1 1zm-.4 24.3c.4.3-.4.4-1.6.2-3-.6-4-1.6-1.2-1.2 1.2.2 2.4.6 2.8 1zM925 518c0 .5-.2 1-.4 1-.3 0-.8-.5-1.1-1-.3-.6-.1-1 .4-1 .6 0 1.1.4 1.1 1zm-824.5 5.9c.3.5.2 1.2-.3 1.5-.5.3-.9-.1-.9-.9 0-1.7.3-1.9 1.2-.6zm827.9 3c.3.4-.4 1.7-1.6 2.7-1.2 1.1-1.8 1.3-1.4.6.4-.6.3-1.2-.1-1.2-.5 0-1.5.6-2.3 1.2-1.1 1-1.1.9 0-.7 2.5-3.4 4.4-4.3 5.4-2.6zm-830 .9c.2.4-.5.9-1.7.9-1.7.2-1.9 0-.7-.7 1.8-1.2 1.8-1.2 2.4-.2zM98 534c0 .5-.8 1-1.7 1-1.5 0-1.6-.2-.3-1 1.9-1.2 2-1.2 2 0zm827.4 10.1c-.8 1.4-2.1 1.1-2.1-.5 0-.8.6-1.2 1.4-.9.7.3 1 .9.7 1.4zm.3 2.5c-.3.3-1.2.4-1.9.1-.8-.3-.5-.6.6-.6 1.1-.1 1.7.2 1.3.5zm-.2 2.4c-.3.5-1.1 1-1.6 1-.6 0-.7-.5-.4-1 .3-.6 1.1-1 1.6-1 .6 0 .7.4.4 1zM100 552c0 .5-.4 1-1 1-1.1 0-.9 2.2.3 3.1.5.3.2.9-.6 1.2-1.3.5-1.4-.6-.8-5.6.2-1.1 2.1-.9 2.1.3zm1 6.5c-1 1.2-1 1.8 0 3.1.8.8.9 1.4.4 1.3-2.1-.4-2.8.2-1.4 1.1 1.3.8 1.2 1-.2 1-2.1 0-2.3-1.1-.5-2.9 1-1 .9-1.2-.5-.9-2.5.5-2.3-1.3.4-2.7 3.1-1.7 3.2-1.7 1.8 0zm822.6 14.7c.4.7.2.8-.5.4-.6-.4-1.8-.3-2.5.3-.9.8-1.3.7-1.3-.2 0-1.6 3.4-2 4.3-.5zm-3.7 12.8c1.1 2.4 1.1 2.4-.3.6-.9-1.1-1.6-2.4-1.6-3 0-1.2.5-.7 1.9 2.4zM104 588c1.3.8 1.3 1-.2 1-.9 0-2-.5-2.3-1-.8-1.3.5-1.3 2.5 0zm813 2c0 .5-.5 1-1.1 1-.5 0-.7-.5-.4-1 .3-.6.8-1 1.1-1 .2 0 .4.4.4 1zm-810.6 5.6c.3.8.2 1.2-.4.9-.6-.3-1-1-1-1.6 0-1.4.7-1.1 1.4.7zm3 4.2c.3.5-.1.9-.9.9s-1.2-.4-.9-.9c.3-.4.7-.8.9-.8.2 0 .6.4.9.8zm803.3 16.8c-.3.3-1.2.4-1.9.1-.8-.3-.5-.6.6-.6 1.1-.1 1.7.2 1.3.5zm-4.4 6.9c-.3.9-.8 1.4-1 1.1-.3-.3-.2-.9.2-1.5.9-1.6 1.5-1.3.8.4zM114 627c-1.3.8-1.2 1.1.5 2.5 2.1 1.7 0 .9-2.3-.8-1.1-.8-1.1-1.2 0-1.8.7-.5 1.8-.9 2.3-.9.6 0 .3.5-.5 1zm792.1 5.3c-1 .9-1.1.8-.5-.6.3-1 .9-1.5 1.2-1.2.3.3 0 1.1-.7 1.8zM117 636c0 .5-.5 1-1.1 1-.5 0-.7-.5-.4-1 .3-.6.8-1 1.1-1 .2 0 .4.4.4 1zm790.4 2.4c-1 .8-1.6 1.8-1.2 2.2.5.4-.1 1.3-1.2 2.1-1.1.8-2 1.9-2 2.5 0 .7.5.6 1.4-.1 1.2-1 1.4-.9 1.1.6-.2 1-.4 2.1-.4 2.5-.1.5-.9.8-1.8.8-1.5 0-1.6-.2-.3-1 1.4-.9.7-1.4-1.3-1.1-.4.1-.2-.9.5-2.1.7-1.3 1.1-2.7 1-3.1-.1-.5.2-.6.8-.2.5.3 1-.3 1-1.4 0-1.8 1.2-2.8 3.4-3 .6-.1.1.5-1 1.3zm-784.7 10.8c.2 1.8 0 2-.7.8-1.2-1.8-1.3-3-.2-3 .4 0 .9 1 .9 2.2zm0 5.8c-.1 1.1-.5 2-.9 2s-.8.5-.8 1c0 .7.6.7 2 0s2-.7 2 0c0 .5-.7 1-1.5 1h-2.2c-.5 0-.8-1.1-.8-2.4-.1-1.4.3-2.2.9-1.9.5.4.7-.1.3-1.1-.4-.9-.3-1.5.2-1.1.6.3.9 1.4.8 2.5zm778.9 1.9c-.4.6-1.5 1-2.4 1-1.5-.1-1.5-.2.1-.6.9-.2 1.7-.9 1.7-1.4 0-.6-.5-.7-1.2-.3-.7.5-.8.3-.3-.5.5-.9 1.1-.9 1.7-.3.6.6.7 1.5.4 2.1zm-5.5 3.4c-1 .9-1.1.8-.5-.6.3-1 .9-1.5 1.2-1.2.3.3 0 1.1-.7 1.8zm3.2 1.2c-1 .8-2 1.1-2.3.8-.3-.3.1-.8.8-1 .6-.3 1-.9.7-1.4-.4-.5.1-.6 1-.3 1.4.6 1.4.8-.2 1.9zm-770.8 1.4c.3.5.2 1.2-.3 1.5-.5.3-.9-.1-.9-.9 0-1.7.3-1.9 1.2-.6zm769.5 4.5c0 .2-.7.9-1.5 1.6-1.3 1.1-1.4 1-.9-.4.5-1.4 2.4-2.3 2.4-1.2zm-766 12c0 1.1-1.9 1.5-2.5.6-.3-.5.1-1 .9-1 .9 0 1.6.2 1.6.4zm2.5.6c.3.5.1 1-.4 1-.6 0-1.1-.5-1.1-1 0-.6.2-1 .4-1 .3 0 .8.4 1.1 1zm3.5 10c-.8.5-1.9 1-2.5 1-.5 0-.3-.5.5-1s2-1 2.5-1c.6 0 .3.5-.5 1zm742 10.5c0 .2-.6.5-1.3.8-.8.3-1.4-.1-1.4-.8 0-.7.6-1.1 1.4-.8.7.3 1.3.6 1.3.8zm2 1.9c0 1.1-1.9 1.5-2.5.6-.3-.5.1-1 .9-1 .9 0 1.6.2 1.6.4zm-4.6 1.7c-.2.4 0 1 .6 1.4 1.1.7.4 2.5-.9 2.5-.4 0-1.6-.7-2.7-1.6-1.8-1.5-1.8-1.5.3-.5 3.2 1.6 3.8 1.3 2-.7-1.4-1.5-1.5-1.9-.2-1.9.8 0 1.2.4.9.8zm-731.6 2.6c-.2 1 .2 1.8.7 1.8 1.4.1 5.2 2.4 4 2.5-.6 0-1.6-.5-2.3-1.2-1.7-1.7-1.5.2.3 2.2 1.3 1.4 1.2 1.6-.4 1.6-1 0-1.7-.5-1.4-1.2.2-.6-.3-1.4-1.2-1.8-.9-.3-1.3-1-1-1.6.3-.5.1-1-.5-1-.7 0-.6-.5.2-1.5 1.7-1.9 1.9-1.8 1.6.2zm3.6-.9c.3.5-.1.9-.9.9s-1.2-.4-.9-.9c.3-.4.7-.8.9-.8.2 0 .6.4.9.8zm3.3 9.8c-.3.3-1.2.4-1.9.1-.8-.3-.5-.6.6-.6 1.1-.1 1.7.2 1.3.5zm3.8 4.4c.3.5.1 1-.4 1-.6 0-1.1-.5-1.1-1 0-.6.2-1 .4-1 .3 0 .8.4 1.1 1zm-1.1 4.6c.5 1.4.4 1.5-.9.4-1.7-1.4-1.9-2-.6-2 .5 0 1.2.7 1.5 1.6zm3.2.6c0 1-.1 1.8-.3 1.8-.1 0-.7-.8-1.2-1.8-.7-1.3-.6-1.9.2-1.9.7 0 1.3.9 1.3 1.9zm-.6 2.8c.8.5 1.1 1 .5 1-.5 0-1.7-.5-2.5-1s-1-1-.5-1c.6 0 1.7.5 2.5 1zm703 1.4c0 .3-.4.8-1 1.1-.5.3-1 .1-1-.4 0-.6.5-1.1 1-1.1.6 0 1 .2 1 .4zm-698.3 3.1c0 .8-.4 1.2-.9.9-.5-.3-.6-1-.3-1.5.9-1.3 1.2-1.1 1.2.6zm1.8 4.5c-.3.5-1.4 1-2.3.9-1.4 0-1.3-.2.3-.9 2.7-1.1 2.7-1.1 2 0zm4.5 1.4c0 .2-.8 1-1.7 1.7-1.6 1.3-1.7 1.2-.4-.4 1.3-1.6 2.1-2.1 2.1-1.3zm686.4 3.2c.3.8.2 1.2-.4.9-.6-.3-1-1-1-1.6 0-1.4.7-1.1 1.4.7zm-2.8 3.3l2.3 1.8-2.7 3.7c-3.4 4.6-6.9 7.1-6.9 5.1 0-.8.4-1.2.8-.9.4.2 1 0 1.4-.6.3-.5.1-1-.4-1-.6 0-1.1-.5-1.1-1.2 0-.9.3-.9 1.2 0 1.7 1.7 3.3 1.5 1.8-.3-1.1-1.3-1-1.4.6-.9 1.6.6 1.7.5.7-.7-.7-.7-1.3-1.8-1.3-2.4 0-.5.5-.2 1.1.9.9 1.5 1.3 1.6 2 .5 1.2-2 1.1-3.1-.3-2.3-.6.4-.8.3-.4-.4.3-.6-.2-1.5-1.1-2.1-1-.6-1.4-1.1-1-1.1.5 0 2 .8 3.3 1.9zM174 752c-1.4.9-1.3 1.1.9 1.4.5 0 1.3.5 1.8 1 .4.5.3.6-.4.3-.6-.4-1.3-.2-1.5.4-.2.7-1.1.1-2-1.3-1.5-2.3-1.5-2.4.5-2.6 1.7-.1 1.9.1.7.8zm8.3 12.3c-.4.7.1.8 1.3.3 1.5-.6 1.7-.5.6.5-1 1.1-1.5 1-2.8-.2-1.3-1.4-1.3-1.6 0-1.6.8 0 1.2.5.9 1zm6.2 1.6c.3.5.2 1.2-.3 1.5-.5.3-.9-.1-.9-.9 0-1.7.3-1.9 1.2-.6zm-.5 6.1c-1.3.8-1.3 1 .2 1 .9 0 1.8-.6 2.1-1.3.3-.6.4-.2.4 1-.2 2.8-.8 2.9-3.8.3l-2.4-1.9 2.5-.1c2 0 2.2.2 1 1zm636 9.5c-.7.8-1.7 1.5-2.3 1.5-.6 0-.2-.7.9-1.5 2.5-1.9 3-1.9 1.4 0zm-5.3 6c0 .8-.4 1.5-.9 1.5-1 0-1.1-1.4-.1-2.3.9-1 1-.9 1 .8zm4.3-1.1c0 .2-.7.9-1.5 1.6-1.3 1.1-1.4 1-.9-.4.5-1.4 2.4-2.3 2.4-1.2zm-8 5.6c0 .5-.5 1-1.1 1-.5 0-.7-.5-.4-1 .3-.6.8-1 1.1-1 .2 0 .4.4.4 1zm2.7 2.3c0 1.4-4.3 1.5-5.5.1-.4-.4.1-.4 1-.1 1 .3 2 .2 2.3-.3.9-1.4 2.2-1.2 2.2.3zm-16.6 9.4c1.3 1.6 1.2 1.7-.3.4-1-.7-1.8-1.5-1.8-1.7 0-.8.8-.3 2.1 1.3zM223 806c0 .5-.2 1-.4 1-.3 0-.8-.5-1.1-1-.3-.6-.1-1 .4-1 .6 0 1.1.4 1.1 1zm576.3 4.5c.4.8.1 1.7-.6 2.1-.7.4-.9.4-.5-.1.4-.4.3-1.4-.3-2.2-.7-.8-.8-1.3-.1-1.3.5 0 1.2.7 1.5 1.5zm-13.8 9.4c-.9.8-3.6 1-3 .2.2-.4 1.1-.8 2-.8.8 0 1.3.3 1 .6zM237 824c0 .5-.7.7-1.5.4-.8-.4-1.5-.8-1.5-1 0-.2.7-.4 1.5-.4s1.5.4 1.5 1zm3.5 0c.3.6-.1.7-.9.4-1.8-.7-2.1-1.4-.7-1.4.6 0 1.3.4 1.6 1zm538 4c-.3.5 0 1 .7 1s0 1.2-1.5 2.5c-1.6 1.4-3.3 2.3-3.8 2-.5-.4-.9-.1-.9.6s-.2 1-.5.7c-.3-.3-.2-1.3.1-2.2.4-1.1.9-1.3 1.3-.7.4.6 1.2.7 2.1.1 1-.7 1.1-1 .3-1-.7 0-1.3-.5-1.3-1.1 0-.8.6-.7 1.6.2 1.5 1.2 1.6 1.1 1-.9-.5-1.4-.3-2.2.4-2.2.6 0 .8.4.5 1zm-20 12c.3.5.1 1-.4 1-.6 0-1.1-.5-1.1-1 0-.6.2-1 .4-1 .3 0 .8.4 1.1 1zm-490 4c.3.5.1 1-.4 1-.6 0-1.1-.5-1.1-1 0-.6.2-1 .4-1 .3 0 .8.4 1.1 1zm493.5.1c0 .3-1 1.3-2.3 2.2-2 1.3-2.7 1.3-4.8.1-1.3-.7-1.9-1.3-1.4-1.3.6-.1 1.6.3 2.4.8 1.4.9 4.3-.8 3.5-2-.2-.3.3-.6 1.1-.6s1.5.4 1.5.8zm-13.9 6.6c1.3 1.6 1.2 1.7-.3.4-1-.7-1.8-1.5-1.8-1.7 0-.8.8-.3 2.1 1.3zm-2.2 2.7c-.3.3-1.1-.5-1.8-1.7-1.3-2.1-1.2-2.1.5-.5 1 1 1.6 2 1.3 2.2zm-459.8 3.3c1.3 1.7 1.3 1.7-.6.3-1.1-.8-2.2-1.6-2.4-1.7-.2-.2 0-.3.6-.3s1.7.8 2.4 1.7zm450.5 3.9c1.8 1.4 1.8 1.4-.6.3-3.1-1.4-3.6-1.9-2.4-1.9.6 0 1.9.7 3 1.6zm-10.1 3.4c-.3.5-1.2 1-1.8 1-.7 0-.6-.4.3-1 1.9-1.2 2.3-1.2 1.5 0zm.7 2.6c-1.7 1.1-2.6 1.2-3.9.4-1.6-1-1.5-1 .4-.5 1.2.3 2.4.1 2.8-.5.3-.5 1.1-1 1.8-1 .6 0 .1.7-1.1 1.6zm-422.1 1.1c1.3 1.6 1.2 1.7-.3.4-1.7-1.3-2.2-2.1-1.4-2.1.2 0 1 .8 1.7 1.7zm-4.5.8l-.6-2 1.5 2c.9 1.1 1.9 1.9 2.2 1.7.4-.1.8.4.9 1.2.3 1.8-2 1.5-4.4-.7-1-.9-2.2-1.4-2.6-1-.4.4-.4 0 0-1 .6-1.7.7-1.7 2.1 0 1.4 1.7 1.4 1.7.9-.2zm7.3 3.1c.4-.3.8.1.8.9s-.4 1.5-.9 1.5c-.4 0-.8-.2-.8-.4s-.2-1-.3-1.8c-.2-.7-.2-1 0-.5.3.4.8.5 1.2.3zm4.6.4c.3.5.1 1-.4 1-.6 0-1.1-.5-1.1-1 0-.6.2-1 .4-1 .3 0 .8.4 1.1 1zm398.3 1.2c-.2.7.2 1.2.9 1.3 1.7 0 2.8 1.5 1.2 1.6-.8 0-2.2.2-3.1.4-1 .2-2.1-.1-2.4-.6-.3-.5 0-.8.7-.7.7.2 1.4-.3 1.5-1 .2-1.9.4-2.2.9-2.2.3 0 .4.5.3 1.2zm-8.5 6.1c.4-1.5.5-1.6.6-.1.2 2.7-1.7 3.1-2.9.6-1-2.1-1-2.2.4-.5 1.4 1.8 1.4 1.8 1.9 0zm-373.3.1c0 .2-.7.7-1.6 1-.8.3-1.2.2-.9-.4.6-1 2.5-1.4 2.5-.6zm355.1 10c-2.2 2.3-5.1 2.5-5.1.4 0-.5.4-.7.9-.4.5.3 1.4-.1 2.1-.9.7-.8 1.6-1.2 2.1-.9.5.3.9 0 .9-.7s.3-.9.7-.6c.3.4-.4 1.8-1.6 3.1zm-327.7 4.2c-1.3 2-1.4 2.8-.5 3.7.9.9 1.2.9.9 0-.2-.6 0-1.1.5-1.2 1.3-.2.9 1.4-.7 2.4-2.8 1.8-3.7-.7-1.6-4.3 1.1-1.7 2.2-3.2 2.5-3.2.3 0-.2 1.1-1.1 2.6zm316.6-.3c0 .2-.8.3-1.8.3s-1.9-.6-1.9-1.3c0-.8.6-.9 1.9-.2 1 .5 1.8 1.1 1.8 1.2zm-6.5-.4c.3.5.2 1.2-.3 1.5-.5.3-.9-.1-.9-.9 0-1.7.3-1.9 1.2-.6zm-2.5 5.2c1.3.9 1.3 1-.2.6-.9-.3-2.2.1-2.9.9-.6.8-1.4 1.2-1.7.9-.3-.3-1.1 0-1.9.7-1.1.8-1.2.7-.7-.6.6-1.5 1.7-2 3.7-1.7.4 0 .7-.4.7-.9 0-1.3 1.1-1.2 3 .1zm-289.3 2.3c0 .9-.6 1.2-1.6.8-1.4-.5-1.4-.4-.1 1.4 1.4 1.7 1.3 1.8-.1.7-.9-.7-1.9-1-2.2-.6-.4.3-.7.2-.7-.4 0-.5 1-1.5 2.3-2.1 1.2-.6 2.2-1.1 2.3-1.1 0-.1.1.5.1 1.3zm278.6.1c-.3.9-.8 1.4-1 1.1-.3-.3-.2-.9.2-1.5.9-1.6 1.5-1.3.8.4zM379 902c0 .5-.2 1-.4 1-.3 0-.8-.5-1.1-1-.3-.6-.1-1 .4-1 .6 0 1.1.4 1.1 1zm12 3.6c0 .8-1.9 1.3-2.4.6-.3-.5.1-.9.9-.9s1.5.2 1.5.3zm9.4 3c.3.8.2 1.2-.4.9-.6-.3-1-1-1-1.6 0-1.4.7-1.1 1.4.7zm-1.6 1.6c.7.7 1.2 1.6 1.2 2.2 0 .5-.6.1-1.4-.9-1.2-1.7-1.6-1.7-3-.6-1.4 1.2-1.6 1.2-1-.3.7-1.9 2.5-2.1 4.2-.4zm3.3 1.5c-1.2 2-1.4 1.4-.5-1.2.4-.9.9-1.4 1.1-1.1.3.2 0 1.3-.6 2.3zm10.3-1.9c.3.5-.1.9-.9.9s-1.2-.4-.9-.9c.3-.4.7-.8.9-.8.2 0 .6.4.9.8zm200.3 1.7c0 .8-.4 1.5-.9 1.5-1 0-1.1-1.4-.1-2.3.9-1 1-.9 1 .8zm-8.6 1.2c1.3 1.6 1.2 1.7-.3.4-1-.7-1.8-1.5-1.8-1.7 0-.8.8-.3 2.1 1.3zm-192 .7c.5-.3.9.1.9.8 0 .9.3.9 1-.2.5-.8 1-1 1-.4s-.3 1.4-.6 1.7c-1 .9-4.4-1.2-4.3-2.6 0-.9.2-.9.6.1.2.6.9 1 1.4.6zm6.3 3.2c.5 1.3.4 1.4-.7.6-.8-.7-1.8-.8-2.2-.4-.5.4-.5.1-.1-.6 1-1.7 2.3-1.5 3 .4zm2.6-.6c0 .5-.2 1-.4 1-.3 0-.8-.5-1.1-1-.3-.6-.1-1 .4-1 .6 0 1.1.4 1.1 1zm175.4.1c.3.3-.4.5-1.4.6-1.1.1-2-.2-2-.7 0-.8 2.5-.8 3.4.1zm-160.4.3c0 .2-.7.7-1.6 1-.8.3-1.2.2-.9-.4.6-1 2.5-1.4 2.5-.6zm13.4 1.4c.3.5-.1.9-.9.9s-1.2-.4-.9-.9c.3-.4.7-.8.9-.8.2 0 .6.4.9.8zm129.1.2c.3.5.1 1-.4 1-.6 0-1.1-.5-1.1-1 0-.6.2-1 .4-1 .3 0 .8.4 1.1 1zM451 922.2c-1.3 1.3-1.9 1.6-1.5.8 1.4-2.5 2.8-4.1 3.2-3.6.3.3-.5 1.5-1.7 2.8zm77.7.3c0 .8-.4 1.2-.9.9-.5-.3-.6-1-.3-1.5.9-1.3 1.2-1.1 1.2.6zm36.8 1.3c-1.1 1.1-3.2 1-3.2-.3 0-.7.8-1 1.9-.7 1 .2 1.6.7 1.3 1zm-46.8 1.4c-.3.8-.6.5-.6-.6-.1-1.1.2-1.7.5-1.3.3.3.4 1.2.1 1.9zm17.8-1.2c-.3.5-.1 1 .4 1 .6 0 1.1-.5 1.1-1.2 0-.6.2-.9.5-.6.3.3.3 1.2-.1 2.1-.5 1.3-.9 1.4-2.4.4-1.4-.8-1.6-1.3-.7-1.9 1.6-1 1.9-1 1.2.2zm-20.2 3.3c-.5.8-.8.7-1.1-.1-.3-1-.7-1-2 0-1.5 1.2-1.5 1.1-.4-.4 1.4-1.8 4.7-1.3 3.5.5z"/><path d="M357.5 127c-.3.5-.1 1 .4 1 .6 0 1.1-.5 1.1-1 0-.6-.2-1-.4-1-.3 0-.8.4-1.1 1zM335.6 133.9c-.4.5-.2 1.2.3 1.5.5.4 1.2.2 1.5-.3.4-.5.2-1.2-.3-1.5-.5-.4-1.2-.2-1.5.3zM282.9 164.7c-1.3 1.6-1.2 1.7.4.4 1.6-1.3 2.1-2.1 1.3-2.1-.2 0-1 .8-1.7 1.7zM904 379.9c0 .6.4 1.3 1 1.6.6.3.7-.1.4-.9-.7-1.8-1.4-2.1-1.4-.7zM923.2 473.7c-.6.2-1 .9-.6 1.4.8 1.4 2.1 1.1 2.1-.6 0-.8-.1-1.5-.1-1.4-.1 0-.7.3-1.4.6zM926 528.1c0 .5.5.7 1 .4.6-.3 1-.8 1-1.1 0-.2-.4-.4-1-.4-.5 0-1 .5-1 1.1zM301.6 871.2c.3.5 1 .6 1.5.3 1.3-.9 1.1-1.2-.6-1.2-.8 0-1.2.4-.9.9zM681.9 889.7c-1.3 1.6-1.2 1.7.4.4 1.6-1.3 2.1-2.1 1.3-2.1-.2 0-1 .8-1.7 1.7zM510.6 94.3c.3.8 1.1 1.4 1.9 1.4 2 0 1.9-.4-.5-1.7-1.5-.8-1.8-.8-1.4.3zM491.5 95c-.4.6-1 .8-1.5.5-1-.6-4 .4-4 1.5 0 .4 1.4.7 3.2.6 2.1-.1 3.2-.7 3.4-1.9.3-1.9-.2-2.2-1.1-.7zM457.6 96.5c-.3.9-.9 1.4-1.4 1.1-.4-.2-1.3.4-1.9 1.4-1.1 1.6-.9 1.8 1.5 1.4 1.5-.3 3.2-.5 3.9-.6.7-.1 1-.5.7-.9-.2-.5-1.2-.5-2.2-.2-1.5.6-1.5.5-.3-1 .8-1 1.2-2 .9-2.3-.3-.3-.8.2-1.2 1.1zM494 96c0 .4.7.7 1.5.6 2.3-.3 2.6-1.2.5-1.3-1.1-.1-2 .2-2 .7zM515 96.1c0 .5.5.7 1 .4.6-.3 1-.8 1-1.1 0-.2-.4-.4-1-.4-.5 0-1 .5-1 1.1zM445.5 97.9c-.7 1.2 1.2 2.4 2.5 1.6.6-.3 1-1.2.9-1.8 0-.9-.2-.9-.6 0-.2.7-.9 1.3-1.4 1.3-.6 0-.7-.5-.4-1 .3-.6.4-1 .1-1-.3 0-.7.4-1.1.9zM575.8 98.8c.4 1 .7 1.2 1 .4.2-.7.9-.9 1.5-.5.7.3.8.2.4-.2-1.4-1.6-3.6-1.4-2.9.3zM437 99.9c0 .6.4 1.3 1 1.6.6.3.7-.1.4-.9-.7-1.8-1.4-2.1-1.4-.7zM586 99.4c0 .2.8 1 1.8 1.7 1.5 1.3 1.6 1.2.3-.4s-2.1-2.1-2.1-1.3zM426.8 103.3c.2 1 .5 1.6.6 1.5.1-.2.7-1 1.3-1.8 1-1.3.8-1.6-.6-1.6-1.3 0-1.7.6-1.3 1.9zM417.6 104.2c.5.7-2 1.2-5.6.9-1 0-1.1.1-.2.5.6.3 1 .9.8 1.3-.3.4.1.8.9.8s1.1-.5.8-1c-.4-.6.2-.8 1.3-.5 1 .2 2.7-.4 3.6-1.3 1.6-1.7 1.6-1.8-.2-1.6-1 .1-1.6.5-1.4.9zM625 106.4c0 .2.8 1 1.8 1.7 1.5 1.3 1.6 1.2.3-.4s-2.1-2.1-2.1-1.3zM387 112.3c0 1.2-.4 1.6-1.2 1.1-.9-.5-.8-.2.1 1 1.9 2.2 3.7.5 2.2-2.1-1-1.7-1-1.7-1.1 0zM638.6 114.5c-.3.9.3 1.9 1.5 2.6 1.8.9 1.9.9 1-.9-.6-1.1-.7-2.2-.4-2.6.3-.3.2-.6-.4-.6-.6 0-1.3.7-1.7 1.5zM372 116c-.9.6-1 1-.3 1 .6 0 1.5-.5 1.8-1 .8-1.2.4-1.2-1.5 0zM360 120c-1.2.7-1 .9.7.7 1.2 0 1.9-.5 1.7-.9-.6-1-.6-1-2.4.2zM671.5 128.7c-.5 1.4-.4 1.5.6.6 1-1 2.2-.5 5.9 2.2 4.4 3.2 4.9 3.4 6.1 1.8.8-1 .9-1.4.2-1-.7.4-1.8-.2-2.7-1.5-.9-1.2-1.6-1.8-1.6-1.3s-.7 0-1.5-1.1c-1.5-1.9-1.5-1.9-.8.1.7 1.9.6 1.9-2 .2-3.2-2.1-3.3-2.1-4.2 0zm11.1 4.4c.3.6-.5.3-2-.6-1.4-1-2.6-1.9-2.6-2.2 0-.7 3.9 1.7 4.6 2.8zM683 130c0 .5.5 1 1.1 1 .5 0 .7-.5.4-1-.3-.6-.8-1-1.1-1-.2 0-.4.4-.4 1zM691.2 135.4c.7.8 1.5 1.2 1.7 1.1.5-.6-1-2.5-2-2.5-.5 0-.4.6.3 1.4zM328.6 135.9c-.4.5-.2 1.2.3 1.5.5.4 1.2.2 1.5-.3.4-.5.2-1.2-.3-1.5-.5-.4-1.2-.2-1.5.3zM700.9 140.7c-1.3 1.6-1.2 1.7.4.4.9-.7 1.7-1.5 1.7-1.7 0-.8-.8-.3-2.1 1.3zM317.4 142.4c-.3.9-1.1 1.3-1.7.9-.6-.4-.7-.1-.2.6.6 1 1.1.9 2.3-.3.9-.8 1.3-1.9.9-2.2-.4-.4-.9.1-1.3 1zM712.6 143.8c-.3.5.1.9.9.9s1.2-.4.9-.9c-.3-.4-.7-.8-.9-.8-.2 0-.6.4-.9.8zM722.7 152.5c-.4.8-.3 1.6.1 1.9.4.3.9-.4.9-1.5.2-2.3-.3-2.5-1-.4zM753.6 169.3c.3 1 .9 1.5 1.2 1.2.3-.3 0-1.1-.7-1.8-1-.9-1.1-.8-.5.6zM258.9 175.7c-.7 1-.9 1.5-.4 1 .4-.4 1.6 0 2.5.8 1.5 1.4 1.9 1.4 3.1-.2.9-1.1 1-1.4.2-.9-.8.4-1.3.2-1.3-.6 0-.9-.3-.9-1 .2-.9 1.3-1.4.7-1.1-1.3.2-1.2-.6-.8-2 1zM760.6 175.9c-.3.5.1 1.1.9 1.4.9.4 1.2.1.8-.9-.6-1.6-1-1.7-1.7-.5zM769 180.1c0 .5.5.7 1 .4.6-.3 1-.8 1-1.1 0-.2-.4-.4-1-.4-.5 0-1 .5-1 1.1zM245.5 186c-.3.5-.1 1 .4 1 .6 0 1.1-.5 1.1-1 0-.6-.2-1-.4-1-.3 0-.8.4-1.1 1zM772.6 186.6c-.5 1.4-.4 1.5.9.4 1.7-1.4 1.9-2 .6-2-.5 0-1.2.7-1.5 1.6zM785.5 194c-.9 1.5.3 2.9 2.5 2.7 1-.1 1.7-.5 1.4-.9-.3-.4-1.2-.4-2.1-.1-1.2.5-1.5.2-1-1 .7-1.9.2-2.3-.8-.7zM797.3 203.5c0 .8.4 1.2.9.9.5-.3.6-1 .3-1.5-.9-1.3-1.2-1.1-1.2.6zM221.5 208c-.3.5-.1 1 .4 1 .6 0 1.1-.5 1.1-1 0-.6-.2-1-.4-1-.3 0-.8.4-1.1 1zM798.6 210.9c-.7 1 1.8 3.4 2.7 2.5.7-.8-.3-3.4-1.3-3.4-.5 0-1.1.4-1.4.9zM806.7 217.6c-.9 1 1.3 4.5 2.4 3.9.5-.4.7-1 .4-1.5-.3-.4.1-1.1.7-1.4.7-.3.2-.3-1.1 0-1.6.4-2.1.3-1.7-.5.8-1.2.3-1.5-.7-.5zM203.6 226.3c.3 1 .9 1.5 1.2 1.2.3-.3 0-1.1-.7-1.8-1-.9-1.1-.8-.5.6zM817.7 228.4c-1 .8-1.4 1.6-1 1.9.5.3 1.4-.3 2.1-1.4 1.4-2.2 1.3-2.3-1.1-.5zM202.6 230.7c-.4.9-.2 2.1.4 2.7.6.6 1 .6 1.1 0 0-.5.2-1.7.4-2.7.4-2.2-1.1-2.2-1.9 0zM830.6 244.6c-.5 1.4-.4 1.5.8.5 1-.8 1.6-.9 1.9-.1.3.6.4.5.3-.2-.4-1.9-2.3-2-3-.2zM183.6 246.2c.3.5 1 .6 1.5.3 1.3-.9 1.1-1.2-.6-1.2-.8 0-1.2.4-.9.9zM188.2 246.4c.7.8 1.7 1.2 2.2.9.4-.3.2-.9-.5-1.4-2.2-1.3-3.1-1.1-1.7.5zM182.7 251.7c-.3.5-.1 1.7.4 2.8.8 2.1.8 2.1 1.5-1.3.4-2.1-1-3.1-1.9-1.5zM169.6 266.2c.3.4 1.1.5 1.9.1 2.1-.7 1.9-1.2-.4-1-1.1 0-1.8.5-1.5.9zM851 269c0 .5.5 1 1.1 1 .5 0 .7-.5.4-1-.3-.6-.8-1-1.1-1-.2 0-.4.4-.4 1zM857.5 276c.3.5.8 1 1.1 1 .2 0 .4-.5.4-1 0-.6-.5-1-1.1-1-.5 0-.7.4-.4 1zM162.9 279.9c-.1.6-.2 1.7-.3 2.3-.1.7-.7 1.2-1.4 1-1.9-.3-1.4.6.9 1.9 1.7.8 2 .8 1.4-.1-.4-.7-.1-1.6.6-2.1 1.2-.7 1.1-.9-.1-.9-1.2 0-1.2-.2-.1-.9.9-.6 1-1.1.2-1.5-.6-.4-1.2-.2-1.2.3zM862.4 289.1c-.8 1.4 1.4 1.9 2.5.6.8-1 .7-1.4-.5-1.4-.8 0-1.7.4-2 .8zM155.5 295c.4.6 1.1.8 1.6.5 1.4-.9 1.1-1.5-.7-1.5-.8 0-1.2.5-.9 1zM151.6 296.2c.3.4.9.8 1.5.8.5 0 .9-.4.9-.8 0-.5-.7-.9-1.5-.9s-1.2.4-.9.9zM149.5 298c-.3.5-.1 1 .4 1 .6 0 1.1-.5 1.1-1 0-.6-.2-1-.4-1-.3 0-.8.4-1.1 1zM873.5 302c.3.5.8 1 1.1 1 .2 0 .4-.5.4-1 0-.6-.5-1-1.1-1-.5 0-.7.4-.4 1zM875.5 304.9c-.3.5-.2 1.2.3 1.5.5.3.9-.1.9-.9 0-1.7-.3-1.9-1.2-.6zM138.6 319.8c-.2.4-.1 1.4.4 2.2.7 1.1.9.9.7-.8-.1-2.4-.3-2.6-1.1-1.4zM136.5 324.1c-.4.6-.5 1.2-.2 1.5.2.3.7-.2 1-1.1.7-1.7.1-2-.8-.4zM882.1 324c-.9.5-1 1-.2 1.4.6.4 1.1.3 1.1-.3s.7-.8 1.5-.5c.8.4 1.5.4 1.5.1 0-1-2.7-1.5-3.9-.7zM132.7 328.1c.7.7 1.5 1 1.8.7.3-.3-.2-.9-1.2-1.2-1.4-.6-1.5-.5-.6.5zM884.7 329.1c.7.7 1.5 1 1.8.7.3-.3-.2-.9-1.2-1.2-1.4-.6-1.5-.5-.6.5zM130.5 336c-.3.5-.1 1 .4 1 .6 0 1.1-.5 1.1-1 0-.6-.2-1-.4-1-.3 0-.8.4-1.1 1zM893.3 339.5c0 1.4.3 2.7.7 3 .4.2.6-.7.4-2.1-.3-3.5-1.1-4.1-1.1-.9zM129.5 340.3c.1.9.7 2.3 1.4 3 .7.6 1.1.7 1 .2-.2-.6.2-2 .9-3.1 1-2 .9-2.2-1.1-2-1.6.1-2.3.7-2.2 1.9zM893.5 347c-.3.6.1.7.9.4 1.8-.7 2.1-1.4.7-1.4-.6 0-1.3.4-1.6 1zM898.5 348c1 1.1 2 2 2.3 2 .3 0-.3-.9-1.3-2s-2-2-2.3-2c-.3 0 .3.9 1.3 2zM121 358c0 .5.5 1 1.1 1 .5 0 .7-.5.4-1-.3-.6-.8-1-1.1-1-.2 0-.4.4-.4 1zM901 358c0 .5.5 1 1.1 1 .5 0 .7-.5.4-1-.3-.6-.8-1-1.1-1-.2 0-.4.4-.4 1zM121 360.4c0 .2.7.7 1.6 1 .8.3 1.2.2.9-.4-.6-1-2.5-1.4-2.5-.6zM116 372.5c-.7.8-1.7 1.2-2.3.8-.6-.3-.7-.1-.3.5.8 1.4 3.3.5 4-1.4.7-1.8.2-1.8-1.4.1zM902.6 372.2c.3.4 1.2.8 2 .8s1.4-.4 1.4-.8-.9-.8-1.9-.8c-1.1 0-1.7.4-1.5.8zM115 379c0 .5 0 1.3.1 1.6 0 .4-.5 1-1.1 1.4-.8.5-.7.9.4 1.3 1.8.7 3.1-.8 1.6-1.8-.8-.5-.7-1.1.1-2.1.8-1 .8-1.4 0-1.4-.6 0-1.1.4-1.1 1zM109.5 387.1c-.4.6-.5 1.2-.2 1.5.2.3.7-.2 1-1.1.7-1.7.1-2-.8-.4zM111.6 388.6c-.8 2 0 3.2 1.4 1.8.5-.5.5-1.5.1-2.2-.6-1.1-1-1-1.5.4zM107 396.1c0 .5.5.7 1 .4.6-.3 1-.8 1-1.1 0-.2-.4-.4-1-.4-.5 0-1 .5-1 1.1zM105.5 402c-.3.5-.1 1 .4 1 .6 0 1.1-.5 1.1-1 0-.6-.2-1-.4-1-.3 0-.8.4-1.1 1zM915 401.7c0 .5 1 1.8 2.3 2.9l2.2 1.9-2-2.5c-1.1-1.4-2.1-2.7-2.2-2.9-.2-.2-.3 0-.3.6zM914.7 407.7c-.4.3-.2 1.2.4 2 .6.7.7 1.3.2 1.3-.5 0-1 .6-1 1.4 0 .8.6 1.2 1.3.9 1.3-.5 1.3-2 0-4.2-.7-1.1-.5-1.3.8-.8 1 .4 1.5.3 1.1-.3-.7-1.2-1.9-1.3-2.8-.3zM918.7 425.4c1 1.3 2 2 2.1 1.5.2-.5.9-.6 1.4-.3.7.4.8.2.4-.5-.4-.6-1.2-.9-1.7-.6-.5.4-1.2-.1-1.5-.9-.3-.9-1-1.6-1.6-1.6-.5 0-.1 1.1.9 2.4zM101 425.4c0 .4.6 1.4 1.4 2.1 1.2 1.2 1.5 1.2 2.1-.2.3-1 .3-1.4-.1-1-.4.4-1.3.2-2.1-.4-.7-.6-1.3-.8-1.3-.5zM100.2 429.3c-.8.9-.8 1.7 0 2.7.8 1.3.9 1.2.5-.1-.3-.9 0-2.2.6-2.8.6-.6.8-1.1.5-1.1-.3 0-1 .6-1.6 1.3zM97.5 434.9c-.3.5-.2 1.2.3 1.5.5.3.9-.1.9-.9 0-1.7-.3-1.9-1.2-.6zM922 436.2c0 .4.4.8.9.8.6 0 1.2-.4 1.5-.8.3-.5-.1-.9-.9-.9s-1.5.4-1.5.9zM95.5 448.9c-.3.5-.2 1.2.3 1.5.5.3.9-.1.9-.9 0-1.7-.3-1.9-1.2-.6zM923.1 453.7c.1.5 0 1-.1 1.3-.1.3-.4 1.7-.6 3.2-.4 2.1-.1 2.6 1.3 2.3 1-.2 2-.4 2.2-.4.2-.1-.4-1-1.3-2-1.1-1.2-1.4-2.1-.7-2.6.6-.3 1.1-.1 1.1.6s.2 1 .5.7c.8-.7-.5-3.8-1.6-3.8-.5 0-.8.3-.8.7zM926.8 461.7c.7.3 1.6.2 1.9-.1.4-.3-.2-.6-1.3-.5-1.1 0-1.4.3-.6.6zM96 469c-1.3.9-1.3 1 0 1 1.2.1 1.2.3-.2 1.1-1 .5-1.5 1.6-1.2 2.4.7 1.8 2 2 2.2.2 0-.6.3-2.2.6-3.5.6-2.5.6-2.5-1.4-1.2zM926.4 484c0 1 .5 1.6 1 1.3.6-.4.6.1.2 1.3-1.5 3.5-1.4 7.5 0 8.1 1.2.4 1.2.8.2 2.2-.7.9-.8 1.3-.4.9.5-.4 1.6-.2 2.5.5 1.4 1.1 1.4 1 .2-.6-.7-.9-1-1.7-.6-1.7s0-1.1-.9-2.5c-1.2-1.8-1.3-2.5-.4-2.5s.8-.3-.2-1c-.8-.5-1-1-.4-1 1.4 0 1.4-5.8-.1-6.3-.6-.3-1.1.3-1.1 1.3zM91.5 494c-.3.5-.1 1 .4 1 .6 0 1.1-.5 1.1-1 0-.6-.2-1-.4-1-.3 0-.8.4-1.1 1zM93 499.9c0 .5.6 1.1 1.3 1.4.8.3 1.4-.1 1.4-.9s-.6-1.4-1.4-1.4c-.7 0-1.3.4-1.3.9zM91.7 503.1c.4 1.3.8 1.8 1.1 1 .2-.7-.1-1.8-.6-2.3-.8-.8-.9-.4-.5 1.3zM927.7 502.4c-.4 1-.3 1.5.3 1.1.6-.3 1 .2 1.1 1.2 0 1 .3 1.3.5.6.3-.7.1-2-.4-2.9-.8-1.5-.9-1.5-1.5 0zM91.5 518c-.3.5-.1 1 .4 1 .6 0 1.1-.5 1.1-1 0-.6-.2-1-.4-1-.3 0-.8.4-1.1 1zM93.5 520c-.3.5-.3 1 .2 1 .4 0 .1.5-.7 1-1.1.7-1.1 1-.2 1 .7 0 1 .4.7 1-.3.5-.1 1 .5 1 .7 0 1-.6.7-1.4-.3-.7-.1-1.8.5-2.4.6-.6.6-1.2 0-1.6-.6-.3-1.3-.2-1.7.4zM91.4 527.1c0 1 .4 1.9.8 1.9s.8-.6.8-1.4c0-.8-.4-1.7-.8-2-.4-.2-.8.4-.8 1.5zM90.9 531.7c-1.3 1.6-1.2 1.7.4.4.9-.7 1.7-1.5 1.7-1.7 0-.8-.8-.3-2.1 1.3zM91.9 538.7c-1.3 1.6-1.2 1.7.4.4.9-.7 1.7-1.5 1.7-1.7 0-.8-.8-.3-2.1 1.3zM929.3 539.9c0 1.1.5 1.8.9 1.5.4-.3.5-1.1.1-1.9-.7-2.1-1.2-1.9-1 .4zM93.8 547.7c.5 2.1.7 2.3 1 .9.2-1 0-2.2-.6-2.8-.6-.6-.7 0-.4 1.9zM928.6 547.8c-.3.5.1.9.9.9s1.2-.4.9-.9c-.3-.4-.7-.8-.9-.8-.2 0-.6.4-.9.8zM94.5 552.1c-.4.6-.5 1.2-.2 1.5.2.3.7-.2 1-1.1.7-1.7.1-2-.8-.4zM927 555.1c0 .5.5.7 1 .4.6-.3 1-.8 1-1.1 0-.2-.4-.4-1-.4-.5 0-1 .5-1 1.1zM926.6 566.2c.3.5 1 .6 1.5.3 1.3-.9 1.1-1.2-.6-1.2-.8 0-1.2.4-.9.9zM95.6 572.7c-.6 1.4-.5 1.5.5.6.7-.7 1-1.5.7-1.8-.3-.3-.9.2-1.2 1.2zM924.6 575.8c-.3.5.1.9.9.9s1.2-.4.9-.9c-.3-.4-.7-.8-.9-.8-.2 0-.6.4-.9.8zM94.9 579.7c-1.3 1.6-1.2 1.7.4.4.9-.7 1.7-1.5 1.7-1.7 0-.8-.8-.3-2.1 1.3zM922.5 578.8c-1.3.9-1.7 3.2-.6 3.2.5 0 1.1-.9 1.4-2 .6-2.2.6-2.2-.8-1.2zM98 581.6c0 1.3 1.8 3.9 2.4 3.4.2-.3-.2-1.4-1-2.4-.8-1.1-1.4-1.6-1.4-1zM918.9 592.7c-.8.9-.8 1.3 0 1.3.6 0 1.1-.5 1.1-1.1 0-.5.4-.8.9-.4.5.3 1.2.2 1.5-.3.9-1.4-2.3-1-3.5.5zM921.2 594.9c-1.1.7-1.1.9 0 1.4.9.3 1.5-.1 1.5-.9s-.1-1.4-.1-1.4c-.1 0-.7.4-1.4.9zM101.4 597.1c-.4.7-.3.9.4.5.5-.3 1.2 0 1.5.6.2.7.7 1 1.1.7.4-.3 0-1.2-.8-1.8-1.1-.9-1.6-.9-2.2 0zM918.2 598.8c-2.4 1.9-2.1 2.7 1.8 4.6 1.1.5 1 .3-.2-.6-1.2-1-1.4-1.8-.6-3.1.5-1 1.4-1.4 2-1.1.7.4.8.2.4-.4-.9-1.5-.6-1.5-3.4.6zM102.4 601.2c-.5.7-.3.8.6.3.8-.5 1.1-.3.8.6-.3.8-1.1 1.3-1.7 1.1-.7-.1-1 .2-.6.8.5.8 1.2.7 2.3-.2 1.3-1.1 1.5-1 .9.4-.4 1.2-.2 1.5.8 1.2 1.2-.5 1.2-1-.2-3-1.8-2.7-1.9-2.8-2.9-1.2zM914.6 612.6c-.9 2.2-.8 2.6.6 2.2 1.3-.5 2-3.8.8-3.8-.4 0-1.1.7-1.4 1.6zM108.4 621.6c2 1.9 2 2.8.2 2.1-1.5-.6-1.6 1.7-.1 3 .4.4.5.3.2-.3-.4-.7 0-1.5.8-1.8 1.3-.4 1.4-1 .5-2.6-.6-1.1-1.5-2-2.1-2-.6 0-.3.7.5 1.6zM910.8 634.7c.7.3 1.6.2 1.9-.1.4-.3-.2-.6-1.3-.5-1.1 0-1.4.3-.6.6zM115.9 653.2c-.7 2.3-.4 3.5.7 3.5.9 0 1.1-.4.4-1.2-.5-.7-.7-1.5-.3-1.8.3-.4.3-.7 0-.7-.4 0-.7.1-.8.2zM903 659c0 .5.5 1 1.1 1 .5 0 .7-.5.4-1-.3-.6-.8-1-1.1-1-.2 0-.4.4-.4 1zM122 675.4c0 .2.8 1 1.8 1.7 1.5 1.3 1.6 1.2.3-.4s-2.1-2.1-2.1-1.3zM125.4 679.1c-.3.6-.2 1.5.3 2s.9.1.9-1.1c0-2.3-.2-2.4-1.2-.9zM893.5 680c.3.5.8 1 1.1 1 .2 0 .4-.5.4-1 0-.6-.5-1-1.1-1-.5 0-.7.4-.4 1zM891.5 684c.3.5.8 1 1.1 1 .2 0 .4-.5.4-1 0-.6-.5-1-1.1-1-.5 0-.7.4-.4 1zM886 684.3c0 .2.9 1.4 2 2.7 1.6 1.9 2.3 2.1 3.3 1.1.6-.7.8-1.2.2-1.1-2.2.5-2.9-.1-1.5-1.1 1.3-.9 1.2-1-.2-.5-1 .3-1.8.1-1.8-.4 0-.6-.4-1-1-1-.5 0-1 .2-1 .3zM129.6 687.8c-.3.5.1.9.9.9s1.5-.4 1.5-.9c0-.4-.4-.8-.9-.8-.6 0-1.2.4-1.5.8zM883.7 696.4c-.4 1.1-.1 1.3 1 .9 1.2-.5 1.4-.3.8.7-.5.9-.4 1.1.4.6.9-.6.9-1.1 0-2.2-1.4-1.7-1.6-1.7-2.2 0zM137.9 697.2c-.5 1.9-.4 4.8.2 4.8 1.1 0 1.8-3.9.8-4.6-.5-.3-.9-.4-1-.2zM881.6 710.2c.3.5 1 .6 1.5.3 1.3-.9 1.1-1.2-.6-1.2-.8 0-1.2.4-.9.9zM872.9 714.2c-.7 2.9-.4 3.4 2 3.5 1.4 0 1.8-.1.8-.4-.9-.2-1.5-.8-1.2-1.3.3-.5.1-1.1-.5-1.5-.5-.3-1-.5-1.1-.3zM873.5 720c.3.5.8 1 1.1 1 .2 0 .4-.5.4-1 0-.6-.5-1-1.1-1-.5 0-.7.4-.4 1zM149.3 723.5c0 .8.4 1.2.9.9.5-.3.6-1 .3-1.5-.9-1.3-1.2-1.1-1.2.6zM162.6 741.4c.3.8 1.3 1.7 2.2 2.1 1.3.5 1.3.2-.3-1.5-2.1-2.4-2.6-2.5-1.9-.6zM167 748c0 .5.5 1 1.1 1 .5 0 .7.5.3 1.2-.4.7-.3.8.4.4.6-.4.9-1.3.5-2.1-.6-1.7-2.3-2-2.3-.5zM164.9 751.7c-1.3 1.6-1.2 1.7.4.4.9-.7 1.7-1.5 1.7-1.7 0-.8-.8-.3-2.1 1.3zM171.5 758c.3.5.8 1 1.1 1 .2 0 .4-.5.4-1 0-.6-.5-1-1.1-1-.5 0-.7.4-.4 1zM174.7 759.6c.3.8 1 1.3 1.5 1.2 1.6-.6 1.4-2.1-.4-2.4-1.1-.1-1.5.3-1.1 1.2zM847.6 760.1c.2.4-.2 1-.8 1.2-.8.4-.9.6-.2.6.6.1 1.7-.5 2.3-1.2.8-1 .7-1.4-.4-1.4-.8 0-1.2.4-.9.8zM176.6 763.7c-.6 1.4-.5 1.5.5.6.7-.7 1-1.5.7-1.8-.3-.3-.9.2-1.2 1.2zM840 767.8c0 .5.7.9 1.5.9s1.2-.4.9-.9c-.3-.4-.9-.8-1.5-.8-.5 0-.9.4-.9.8zM831.6 774.9c-.3.5.1 1.4.8 2 1.2 1 1.3.8.9-.8-.6-2.3-.9-2.5-1.7-1.2zM185 775.9c0 .6.4 1.3 1 1.6.6.3.7-.1.4-.9-.7-1.8-1.4-2.1-1.4-.7zM835 778c0 .5.5 1 1.1 1 .5 0 .7-.5.4-1-.3-.6-.8-1-1.1-1-.2 0-.4.4-.4 1zM203 792.2c0 .4.5.8 1.1.8.5 0 .7.6.3 1.2-.4.7-.3.9.1.5 1.5-1.3 1.4-3.4-.1-3.4-.8 0-1.4.4-1.4.9zM819 791.4c0 .2.7.7 1.6 1 .8.3 1.2.2.9-.4-.6-1-2.5-1.4-2.5-.6zM201.4 794.4c.1.8.5 1.8.8 2.2.4.3.5-.1.4-1-.1-.8-.5-1.8-.8-2.2-.4-.3-.5.1-.4 1zM205.9 795.3c0 .1-.2 1-.4 2-.3 1.5-.1 1.6 1.1.6.8-.6 1.8-.9 2.1-.5.4.4.1 1.1-.6 1.5-.9.6-1 1.1-.2 1.5.6.4 1.1.2 1.1-.4 0-.6.5-.8 1.1-.4.8.5.8.1 0-1.4-.8-1.6-3.9-3.7-4.2-2.9zM811.5 803.9c-.3.5-.2 1.2.3 1.5.5.3.9-.1.9-.9 0-1.7-.3-1.9-1.2-.6zM217 807c1.1 1.1 2.5 2 3 2 .6 0 1 .5 1 1.1 0 .5-.4.8-.8.5-.5-.3-.9.1-.9.9 0 2 1.3 1.9 2.1-.2.5-1.1-.2-2.4-2.1-3.9-3.5-2.9-5-3.1-2.3-.4zM213.6 807.8c-.2.4.4.8 1.4.8 1 0 1.6-.4 1.4-.8-.3-.4-.9-.8-1.4-.8-.5 0-1.1.4-1.4.8zM801 814.1c0 .5.5.7 1 .4.6-.3 1-.8 1-1.1 0-.2-.4-.4-1-.4-.5 0-1 .5-1 1.1zM794.1 815.3c-.8 1-.7 1.4.4 1.4.8 0 1.5-.6 1.5-1.4 0-.7-.2-1.3-.4-1.3s-.9.6-1.5 1.3zM227 816c0 .5.5 1 1.1 1 .5 0 .7-.5.4-1-.3-.6-.8-1-1.1-1-.2 0-.4.4-.4 1zM223.7 817.1c.7.7 1.5 1 1.8.7.3-.3-.2-.9-1.2-1.2-1.4-.6-1.5-.5-.6.5zM230.5 819c.3.5 1.1 1 1.6 1 .6 0 .7-.5.4-1-.3-.6-1.1-1-1.6-1-.6 0-.7.4-.4 1zM234 827.4c0 .2.8 1 1.8 1.7 1.5 1.3 1.6 1.2.3-.4s-2.1-2.1-2.1-1.3zM785.5 830c.3.5.8 1 1.1 1 .2 0 .4-.5.4-1 0-.6-.5-1-1.1-1-.5 0-.7.4-.4 1zM778.5 834c-.3.6.1.7.9.4 1.8-.7 2.1-1.4.7-1.4-.6 0-1.3.4-1.6 1zM245 835.5c0 .8.4 1.5 1 1.5.5 0 .7-.7.4-1.5-.4-.8-.8-1.5-1-1.5-.2 0-.4.7-.4 1.5zM250.5 836.8c.2.9.4 1.9.5 2.2.1.3.2.8.2 1.1-.1.3.5.6 1.3.6s1.2-.4.9-.9c-.8-1.3.6-.9 2.1.6.8.7 1.1 1.7.7 2.1-.4.5-.1.5.6.1 1.6-1 1.6-1.2-1-3.6-3.7-3.4-5.7-4.3-5.3-2.2zm2.5 1.2c0 .5-.2 1-.4 1-.3 0-.8-.5-1.1-1-.3-.6-.1-1 .4-1 .6 0 1.1.4 1.1 1zM258.4 843.6c-1.8 1.4-1.8 1.5.4.4 1.2-.6 2.2-1.3 2.2-1.5 0-.8-.5-.6-2.6 1.1zM765.7 844.5c-.4.8-.3 1.6.1 1.9.4.3.9-.4.9-1.5.2-2.3-.3-2.5-1-.4zM264.4 847.1c-.4.7-.3.9.4.5.5-.3 1.2 0 1.5.6.2.7.7 1 1.1.7.4-.3 0-1.2-.8-1.8-1.1-.9-1.6-.9-2.2 0zM755.3 852.7c0 .9.4 1 1.4.2.7-.6 1.3-1.2 1.3-1.4 0-.1-.6-.2-1.3-.2-.8 0-1.4.6-1.4 1.4zM283 866.1c0 .5.5.7 1 .4.6-.3 1-.8 1-1.1 0-.2-.4-.4-1-.4-.5 0-1 .5-1 1.1zM328 887.4c0 .2.7.7 1.6 1 .8.3 1.2.2.9-.4-.6-1-2.5-1.4-2.5-.6zM332.6 887.8c-.2.4-.1 1.4.3 2.1.6.9 1.1 1 1.5.2.4-.6 1.2-1.1 1.8-1.1.7 0 .6.6-.2 1.5-.7.8-.9 1.5-.5 1.5s1.4-.8 2.2-1.8c1.3-1.6 1.4-1.5 1 .6-.5 1.9-.3 2.1.9 1.1 1.1-.9 1.4-.8 1.4.5 0 1.7 1.5 2.2 2.4.8.9-1.5-4.8-4.9-7.7-4.6-1.5.1-2.5-.2-2.2-.7.4-.5.4-.9.1-.9-.3 0-.7.4-1 .8zM685 894c0 .5.5 1 1.1 1 .5 0 .7-.5.4-1-.3-.6-.8-1-1.1-1-.2 0-.4.4-.4 1zM365.6 905.8c-.3.5.1.9.9.9s1.2-.4.9-.9c-.3-.4-.7-.8-.9-.8-.2 0-.6.4-.9.8zM384.5 907c.4.6.1 1.9-.7 2.8-1.2 1.5-1.1 1.6.4.4.9-.8 2.3-1 3-.6.7.4.4-.2-.6-1.4-2-2.3-3.2-2.9-2.1-1.2zM639.2 908.4c1.5 2.9 1.6 3 1.6.3 0-1.3-.6-2.4-1.4-2.4-1 0-1 .5-.2 2.1zM637 910c0 .5.5 1 1.1 1 .5 0 .7-.5.4-1-.3-.6-.8-1-1.1-1-.2 0-.4.4-.4 1zM618.9 911.8c-.5 4.1-.4 5 .3 4.6.5-.4.7-1.2.4-2-.3-.8-.1-1.4.4-1.4.9 0 1.4 1.5 1.1 3.3-.1.5.3.6.8.2.6-.3.7-1.3.4-2.2-.5-1.2-.3-1.4.8-.8 1.1.6 1.2.5.2-.5-1.4-1.5-4.2-2.2-4.4-1.2zM395.5 914c-.3.5-.1 1 .4 1 .6 0 1.1-.5 1.1-1 0-.6-.2-1-.4-1-.3 0-.8.4-1.1 1zM399.5 916c.3.5.8 1 1.1 1 .2 0 .4-.5.4-1 0-.6-.5-1-1.1-1-.5 0-.7.4-.4 1zM610.6 916.2c.3.4.9.8 1.5.8.5 0 .9-.4.9-.8 0-.5-.7-.9-1.5-.9s-1.2.4-.9.9zM422.4 917.7c.3.3-.3 1.3-1.2 2.2-1 .9-1.2 1.2-.5.7s1.3-.5 1.3 0 .5.1 1.1-.9c.6-.9 1.6-1.4 2.2-1.1.7.4.8.3.4-.1-.4-.5-1.5-1-2.3-1.1-.9-.1-1.3 0-1 .3zM609 918c0 .5.5 1 1.1 1 .5 0 .7-.5.4-1-.3-.6-.8-1-1.1-1-.2 0-.4.4-.4 1zM439.6 919.9c-.4.6-1.3.8-1.9.5-.7-.4-.9-.4-.5.1.4.4 0 1.4-1 2.2-.9.8-1.1 1.1-.3.7.8-.4 2.7-.7 4.3-.8 1.5-.1 2.8-.5 2.8-.9s-.3-.7-.6-.6c-.4 0-1-.5-1.4-1.1-.6-.9-.9-.9-1.4-.1zM605.5 920c.3.5.8 1 1.1 1 .2 0 .4-.5.4-1 0-.6-.5-1-1.1-1-.5 0-.7.4-.4 1zM569.5 921.9c-.3.6-1 .9-1.4.7-.3-.3-.7.4-.7 1.5 0 1.9.1 1.9 1.3.3.7-1 1.3-1.2 1.3-.6 0 .7.4 1.2.9 1.2 1 0 .9-2.5-.1-3.5-.3-.4-.9-.1-1.3.4zM586.5 924c-.3.6.1.7.9.4 1.8-.7 2.1-1.4.7-1.4-.6 0-1.3.4-1.6 1zM460.4 927.8c2.3 2.6 2.3 2.6 2.3.7 0-.8-.3-1.3-.5-1-.3.3-1.2-.1-2.1-.7-1-.8-.9-.4.3 1zM494.5 927.1c-.4.6-.5 1.3-.2 1.6.7.7 2.7-.6 2.7-1.8 0-1.2-1.7-1.2-2.5.2zM523.4 927.2c-.3.5-.9.6-1.3.4-.4-.3-.8.5-.8 1.7-.2 2-.1 2 .8.4.6-.9 1.5-1.4 2.1-1.1.6.4 1.4.1 1.8-.6.4-.7 1.3-.9 2-.5.9.6.9 1-.1 1.7-1.1.8-1.1.9.1.5.8-.2 1.6-1 1.8-1.9.2-1-.6-1.4-2.8-1.4-1.7 0-3.3.3-3.6.8zM558.6 927.3c-1.6 1.2-1.6 1.3.2 1.3 1 0 1.9-.6 1.9-1.3 0-.7-.1-1.3-.2-1.3s-.9.6-1.9 1.3zM465.6 927.8c-.2.4.4.8 1.4.8 1 0 1.6-.4 1.4-.8-.3-.4-.9-.8-1.4-.8-.5 0-1.1.4-1.4.8zM488 928c0 .5.5 1 1.1 1 .5 0 .7-.5.4-1-.3-.6-.8-1-1.1-1-.2 0-.4.4-.4 1zM497.5 929.1c-.4.6-.5 1.2-.2 1.5.2.3.7-.2 1-1.1.7-1.7.1-2-.8-.4zM471 930.1c0 .5.5.7 1 .4.6-.3 1-.8 1-1.1 0-.2-.4-.4-1-.4-.5 0-1 .5-1 1.1zM485.5 930c.3.5.8 1 1.1 1 .2 0 .4-.5.4-1 0-.6-.5-1-1.1-1-.5 0-.7.4-.4 1zM503 930c0 .5.5 1 1 1 .6 0 1-.5 1-1 0-.6-.4-1-1-1-.5 0-1 .4-1 1zM513.7 930.7c-1 .9-.9 2.3.1 2.3.5 0 .9-.7.9-1.5 0-1.7-.1-1.8-1-.8z"/></svg>